<svg width="43.58px" height="99.04px" xmlns="http://www.w3.org/2000/svg" viewBox="0 0 43.58 99.04">
	<defs>
		<style>
			.cls-1{fill:#231f20;}.cls-2{fill:#27398a;}.cls-3{fill:#e2bb8e;}.cls-4{fill:#ee253e;}.cls-5{fill:#936627;stroke:#936929;stroke-miterlimit:10;stroke-width:1.15px;}
		</style>
	</defs>
	<g id="Layer_2" data-name="Layer 2">
		<g id="Layer_1-2" data-name="Layer 1">
			<rect class="cls-1" x="26.24" y="94.75" width="9.5" height="4.29" rx="2.14" />
			<rect class="cls-1" x="7.85" y="94.75" width="9.5" height="4.29" rx="2.14" />
			<polygon class="cls-2" points="21.22 69.44 21.2 73.68 16.82 95.7 8.59 95.4 8.7 68.77 21.22 69.44" />
			<polygon class="cls-2" points="21.22 69.44 21.05 72.56 26.73 95.55 34.96 95.25 33.73 68.77 21.22 69.44" />
			<path class="cls-3" d="M1.38,66.58c-.48-4-2.45-24.79,8.47-27.17a.7.7,0,0,1,.86.73c-.32,4.06-1.66,20.94-2.07,26.17A5,5,0,0,1,7,69.68c-1.38,1.2-3.46,1.95-5.25-1.83A4.3,4.3,0,0,1,1.38,66.58Z" />
			<path class="cls-4" d="M10,49.1c.32-4,.61-7.42.73-9a.7.7,0,0,0-.86-.72c-3.71.79-5.93,3.65-7.23,7.23Z" />
			<path class="cls-3" d="M40.59,66.35c.49-4,2.46-24.79-8.47-27.17a.71.71,0,0,0-.86.73c.32,4.06,1.66,20.94,2.08,26.17A5,5,0,0,0,35,69.44c1.38,1.21,3.46,2,5.26-1.83A3.94,3.94,0,0,0,40.59,66.35Z" />
			<path class="cls-4" d="M32,49.1c-.32-4.05-.6-7.6-.73-9.19a.71.71,0,0,1,.86-.73c3.71.81,5.93,3.73,7.23,7.4Z" />
			<path class="cls-4" d="M33.54,69.28C33.15,58.64,32,39.66,32,39.66l-21.38.21s-1.69,18.3-2.12,29C8.52,68.88,21,72,33.54,69.28Z" />
			<path class="cls-2" d="M33.32,72.14c0-.3,0-.46,0-.82" />
			<path class="cls-3" d="M40.92,22.48A20.13,20.13,0,1,1,20.79,2.35,20.13,20.13,0,0,1,40.92,22.48Z" />
			<path class="cls-5" d="M42.38,20.14c-2-3.4-1.94-12-9.55-15.79s-14.6-6.13-24.08,0S.66,21.79.66,21.79L.58,30.93a4.48,4.48,0,0,0,1.16-1.66c.51,2.58,1.36,6.43,2,7l1.54-2.52s1.89,7.06,3.68,7.89l1.46-2.22s3.62,4.85,4.25,4.74l3.2-2.31,3.84,2.31L26,41.06l.78,1.55s4.62-1.69,5.19-3.43l.51,2.1s4.44-5.48,4.6-8.77l1,3a59.3,59.3,0,0,0,2.66-7.76,4,4,0,0,1,.15,2.41S44.38,23.54,42.38,20.14Z" />
			<path class="cls-5" d="M15.33,8s-8.27,7.34-8,10.63c0,0-1.89-5.1-.67-8.11" />
			<path class="cls-5" d="M27.38,21.67s1.19,6.52.54,10.63a17.61,17.61,0,0,0,4.61-6.79" />
		</g>
	</g>
</svg>
