<svg width="43.58px" height="99.17px" xmlns="http://www.w3.org/2000/svg" viewBox="0 0 43.58 99.17">
	<defs>
		<style>
			.cls-1{fill:#e2bb8e;}.cls-2{fill:#ee253e;}.cls-3{fill:#27398a;}.cls-4{fill:#936627;stroke:#936929;}.cls-4,.cls-5{stroke-miterlimit:10;stroke-width:1.15px;}.cls-5,.cls-7{fill:#231f20;}.cls-5{stroke:#231f20;}.cls-6{fill:#2a3579;}
		</style>
	</defs>
	<g id="Layer_2" data-name="Layer 2">
		<g id="Layer_1-2" data-name="Layer 1">
			<path class="cls-1" d="M1.38,66.58c-.48-4-2.45-24.79,8.47-27.17a.7.7,0,0,1,.86.73c-.32,4.06-1.66,20.94-2.07,26.17A5,5,0,0,1,7,69.68c-1.38,1.2-3.46,1.95-5.25-1.83A4.3,4.3,0,0,1,1.38,66.58Z" />
			<path class="cls-2" d="M10,49.33c.32-4,.61-7.6.73-9.19a.7.7,0,0,0-.86-.73c-3.71.81-5.93,3.73-7.23,7.4Z" />
			<path class="cls-1" d="M40.59,66.35c.49-4,2.46-24.79-8.47-27.17a.71.71,0,0,0-.86.73c.32,4.06,1.66,20.94,2.08,26.17A5,5,0,0,0,35,69.44c1.38,1.21,3.46,2,5.26-1.83A3.94,3.94,0,0,0,40.59,66.35Z" />
			<path class="cls-2" d="M32,49.1c-.32-4.05-.6-7.6-.73-9.19a.71.71,0,0,1,.86-.73c3.71.81,5.93,3.73,7.23,7.4Z" />
			<path class="cls-2" d="M33.54,69.28C33.15,58.64,32,39.66,32,39.66l-21.38.21s-1.69,18.3-2.12,29C8.52,68.88,21,72,33.54,69.28Z" />
			<path class="cls-3" d="M33.32,72.14c0-.3,0-.46,0-.82" />
			<path class="cls-1" d="M40.92,22.48A20.13,20.13,0,1,1,20.79,2.35,20.13,20.13,0,0,1,40.92,22.48Z" />
			<path class="cls-4" d="M9.9,21s13.49,5.47,21,3.9l-1.52-3.15s7.28,4.72,10.26,4.65L38.5,23s3.25,5.17,2.42,7.19c0,0,3.46-6.64,1.46-10s-1.94-12-9.55-15.79-14.6-6.13-24.08,0S.66,21.79.66,21.79L.58,30.93S2.25,29.88,4,22.54a14.49,14.49,0,0,1,.28,5.4A19.54,19.54,0,0,0,9.9,21Z" />
			<rect class="cls-5" x="12.16" y="29.27" width="4.99" height="6.65" rx="2.5" />
			<rect class="cls-5" x="23.81" y="29.27" width="4.99" height="6.65" rx="2.5" />
			<polygon class="cls-6" points="21.13 69.56 21.11 73.81 16.62 85.41 8.39 85.11 8.62 68.9 21.13 69.56" />
			<polygon class="cls-3" points="21.13 69.56 20.97 72.68 26.64 95.68 34.88 95.37 33.64 68.9 21.13 69.56" />
			<rect class="cls-7" x="26.15" y="94.88" width="9.5" height="4.29" rx="2.14" />
			<path class="cls-7" d="M9.13,86.45l.47,1.23a2.26,2.26,0,0,0,1.94,1.43l1.41.11a2.23,2.23,0,0,0,2.15-1.16l.71-1.29a1.17,1.17,0,0,0-1-1.73l-4.58-.18A1.17,1.17,0,0,0,9.13,86.45Z" />
		</g>
	</g>
</svg>
