<svg width="42.95px" height="97.27px" xmlns="http://www.w3.org/2000/svg" viewBox="0 0 42.95 97.27">
	<defs>
		<style>
			.cls-1{fill:#283894;}.cls-2,.cls-7{fill:#231f20;}.cls-3{fill:#ee253e;}.cls-4{fill:#e2bb8e;}.cls-5{fill:#c22035;}.cls-6{fill:#936627;stroke:#936929;}.cls-6,.cls-7{stroke-miterlimit:10;stroke-width:1.15px;}.cls-7{stroke:#231f20;}
		</style>
	</defs>
	<g id="Layer_2" data-name="Layer 2">
		<g id="Layer_1-2" data-name="Layer 1">
			<polygon class="cls-1" points="25.92 92 29.54 67.12 20.98 62.53 13.59 67.32 17.42 94.1 25.92 92" />
			<path class="cls-2" d="M25.92,92a1.61,1.61,0,0,0,.86.8l2.54,1a1.62,1.62,0,0,1,1,1.91l-.07.27a1.62,1.62,0,0,1-1.55,1.21l-9.33.06a1.64,1.64,0,0,1-1.61-1.36l-.3-1.81Z" />
			<path class="cls-3" d="M29.54,67.12a114.67,114.67,0,0,0,.05-28.8c-3.66-27.85-14.09,0-14.09,0s-3.09,8-1.91,29Z" />
			<path class="cls-4" d="M42.49,20.36A20.14,20.14,0,1,1,22.35.23,20.14,20.14,0,0,1,42.49,20.36Z" />
			<path class="cls-4" d="M18.58,47.58h7v17.5a3.5,3.5,0,0,1-3.5,3.5h0a3.5,3.5,0,0,1-3.5-3.5Z" />
			<path class="cls-5" d="M26.47,47.13c-.35-1.44-.57-2.39-.89-3.55-.77-2.86-5.89-3.35-7-.59a14.29,14.29,0,0,0-.87,4.42.38.38,0,0,0,.38.39l8-.21A.36.36,0,0,0,26.47,47.13Z" />
			<path class="cls-6" d="M42.35,18.05s-2.27,4-5.27,5v-3s-5,7-7,8l-4-4-4.18,4,.18-3s-8,11.39-10,12.19l-2,.81s-6.66-7-6.33-10l-.67,2s-3-12.89,0-16.45l-2,.45S7,2.74,15.53,1.41c0,0,12-3.14,18.8,2.76A25.72,25.72,0,0,1,42.35,18.05Z" />
			<rect class="cls-7" x="33.73" y="25.15" width="4.99" height="6.65" rx="2.5" />
		</g>
	</g>
</svg>
