<svg width="43.12px" height="96.43px" xmlns="http://www.w3.org/2000/svg" viewBox="0 0 43.12 96.43">
	<defs>
		<style>
			.cls-1{fill:#2a3579;}.cls-2{fill:#27398a;}.cls-3,.cls-8{fill:#231f20;}.cls-4{fill:#ee253e;}.cls-5{fill:#e2bb8e;}.cls-6{fill:#c22035;}.cls-7{fill:#936627;stroke:#936929;}.cls-7,.cls-8{stroke-miterlimit:10;stroke-width:1.15px;}.cls-8{stroke:#231f20;}
		</style>
	</defs>
	<g id="Layer_2" data-name="Layer 2">
		<g id="Layer_1-2" data-name="Layer 1">
			<polygon class="cls-1" points="26.35 91.13 29.53 66.62 13.58 66.82 17.78 92.97 26.35 91.13" />
			<polygon class="cls-2" points="29.53 66.62 18.89 82.84 5.45 86.63 3.11 78.19 13.09 74.34 13.57 66.78 29.53 66.62" />
			<path class="cls-3" d="M26.35,91.13a1.58,1.58,0,0,0,.83.84l2.5,1.09A1.61,1.61,0,0,1,30.59,95l-.09.27a1.61,1.61,0,0,1-1.58,1.16l-9.33-.24A1.62,1.62,0,0,1,18,94.79c-.09-.61-.17-1.22-.25-1.82Z" />
			<path class="cls-3" d="M5.45,86.63a1.61,1.61,0,0,0-.78.88l-.94,2.56a1.62,1.62,0,0,1-1.88,1L1.57,91A1.63,1.63,0,0,1,.32,89.51L0,80.18a1.62,1.62,0,0,1,1.31-1.64l1.8-.35Z" />
			<path class="cls-4" d="M29.71,67.12a114.63,114.63,0,0,0,.06-28.8c-3.67-27.85-14.1,0-14.1,0s-3.08,8-1.91,29Z" />
			<path class="cls-5" d="M42.66,20.36A20.14,20.14,0,1,1,22.53.23,20.13,20.13,0,0,1,42.66,20.36Z" />
			<path class="cls-5" d="M18.76,47.58h7v17.5a3.5,3.5,0,0,1-3.5,3.5h0a3.5,3.5,0,0,1-3.5-3.5Z" />
			<path class="cls-6" d="M26.65,47.13c-.36-1.44-.58-2.39-.89-3.55-.78-2.86-5.9-3.35-7-.59a14.29,14.29,0,0,0-.87,4.42.38.38,0,0,0,.39.39l8-.21A.38.38,0,0,0,26.65,47.13Z" />
			<path class="cls-7" d="M42.52,18.05s-2.26,4-5.26,5v-3s-5,7-7,8l-4-4-4.19,4,.19-3s-8,11.39-10,12.19l-2,.81s-6.67-7-6.34-10l-.66,2s-3-12.89,0-16.45l-2,.45S7.15,2.74,15.7,1.41c0,0,12.05-3.14,18.8,2.76A25.64,25.64,0,0,1,42.52,18.05Z" />
			<rect class="cls-8" x="33.9" y="25.15" width="4.99" height="6.65" rx="2.5" />
		</g>
	</g>
</svg>
