<svg width="42.98px" height="97.58px" xmlns="http://www.w3.org/2000/svg" viewBox="0 0 42.98 97.58">
	<defs>
		<style>
			.cls-1{fill:#2a3579;}.cls-2{fill:#283894;}.cls-3,.cls-8{fill:#231f20;}.cls-4{fill:#ee253e;}.cls-5{fill:#e2bb8e;}.cls-6{fill:#c22035;}.cls-7{fill:#936627;stroke:#936929;}.cls-7,.cls-8{stroke-miterlimit:10;stroke-width:1.15px;}.cls-8{stroke:#231f20;}
		</style>
	</defs>
	<g id="Layer_2" data-name="Layer 2">
		<g id="Layer_1-2" data-name="Layer 1">
			<polygon class="cls-1" points="37.38 89.86 29.14 66.55 20.42 65.26 13.48 67.45 30.57 95.36 37.38 89.86" />
			<polygon class="cls-2" points="13.33 91.32 29.44 67.25 14.88 63.91 5.04 88.49 13.33 91.32" />
			<path class="cls-3" d="M13.33,91.32a1.66,1.66,0,0,0,.28,1.15l1.59,2.22A1.62,1.62,0,0,1,15,96.82l-.22.19a1.6,1.6,0,0,1-1.95.17l-7.88-5a1.61,1.61,0,0,1-.62-2L5,88.49Z" />
			<path class="cls-3" d="M37.38,89.86a1.58,1.58,0,0,0,1.12.36l2.73-.15a1.62,1.62,0,0,1,1.68,1.32l.05.28a1.62,1.62,0,0,1-.9,1.75l-8.42,4a1.63,1.63,0,0,1-2-.54c-.35-.51-.7-1-1-1.52Z" />
			<path class="cls-4" d="M29.54,67.12a114.67,114.67,0,0,0,.05-28.8c-3.66-27.85-14.09,0-14.09,0s-3.09,8-1.91,29Z" />
			<path class="cls-5" d="M42.49,20.36A20.14,20.14,0,1,1,22.35.23,20.14,20.14,0,0,1,42.49,20.36Z" />
			<path class="cls-5" d="M18.58,47.58h7v17.5a3.5,3.5,0,0,1-3.5,3.5h0a3.5,3.5,0,0,1-3.5-3.5Z" />
			<path class="cls-6" d="M26.47,47.13c-.35-1.44-.57-2.39-.89-3.55-.77-2.86-5.89-3.35-7-.59a14.29,14.29,0,0,0-.87,4.42.38.38,0,0,0,.38.39l8-.21A.36.36,0,0,0,26.47,47.13Z" />
			<path class="cls-7" d="M42.35,18.05s-2.27,4-5.27,5v-3s-5,7-7,8l-4-4-4.18,4,.18-3s-8,11.39-10,12.19l-2,.81s-6.66-7-6.33-10l-.67,2s-3-12.89,0-16.45l-2,.45S7,2.74,15.53,1.41c0,0,12-3.14,18.8,2.76A25.72,25.72,0,0,1,42.35,18.05Z" />
			<rect class="cls-8" x="33.73" y="25.15" width="4.99" height="6.65" rx="2.5" />
		</g>
	</g>
</svg>
