<svg width="3.1079" height="4.0529" xmlns="http://www.w3.org/2000/svg" viewBox="0 0 3.1079 4.0529">
	<defs>
		<style>
			.a{fill:#668da8;}.a,.b{stroke:#365f2e;stroke-miterlimit:10;stroke-width:0.05px;}.b{fill:#6ea4b1;}.c{fill:#37602f;}
		</style>
	</defs>
	<path class="a" d="M.41.025h.6672a.6948.6948,0,0,0,.4765.2323A.7966.7966,0,0,0,2.0362.025h.6612l.3337,1.4957.0512,2.5072H.08L.0251,1.5425Z" />
	<path class="b" d="M.41.025h.6672s.2054.9771.4765.9709C1.8194.99,2.0362.025,2.0362.025h.6612l.3337,1.4957.0512,2.5072H.08L.0251,1.5425Z" />
	<path class="c" d="M1.8047,1.9449a.4682.4682,0,0,0-.1006.0064.4018.4018,0,0,0-.3447.352h.0044a.3023.3023,0,0,1,.5385.2061.3316.3316,0,0,1-.33.3491c-.212,0-.3511-.1651-.3511-.4224A.6241.6241,0,0,1,1.39,1.9893a.5421.5421,0,0,1,.3174-.1464.6671.6671,0,0,1,.0977-.0074Zm-.0381.5723A.202.202,0,0,0,1.562,2.29a.2223.2223,0,0,0-.1924.1221.1192.1192,0,0,0-.0151.06c.0029.1635.0781.2837.2183.2837C1.6885,2.755,1.7666,2.6583,1.7666,2.5172Z" />
</svg>
