<svg width="3.2384" height="4.4279" xmlns="http://www.w3.org/2000/svg" viewBox="0 0 3.2384 4.4279">
	<defs>
		<style>
			.a{fill:#493292;}.b,.c,.g{fill:none;stroke-miterlimit:10;}.b{stroke:#939598;}.b,.c{stroke-width:0.5px;}.c{stroke:#a7a9ac;}.d{fill:#47489e;}.e{fill:#4950a2;}.f{fill:#4d60ac;}.g{stroke:#fff;stroke-width:0.15px;opacity:0.7;}.h{fill:#fff;}
		</style>
	</defs>
	<circle class="a" cx="1.5416" cy="2.8863" r="1.5416" />
	<path class="b" d="M.5264,1.9069A1.5291,1.5291,0,0,1,.6511.7145,1.03,1.03,0,0,1,1.68.26,1.062,1.062,0,0,1,2.4793.83a1.4716,1.4716,0,0,1,.0886.9852" />
	<path class="c" d="M.6375,1.8674A1.4779,1.4779,0,0,1,.7734.7145,1.03,1.03,0,0,1,1.8024.26,1.062,1.062,0,0,1,2.6015.83a1.503,1.503,0,0,1,.0463,1.0379" />
	<circle class="d" cx="1.6968" cy="2.7713" r="1.5416" />
	<ellipse class="e" cx="1.8515" cy="2.8509" rx="0.4936" ry="0.4771" />
	<ellipse class="f" cx="2.0226" cy="2.818" rx="0.4936" ry="0.4771" />
	<ellipse class="g" cx="1.7366" cy="2.8017" rx="1.2665" ry="1.25" />
	<path class="h" d="M1.7917,1.7619c0,.044-.0166.0679-.045.0679-.0253,0-.0424-.0234-.0424-.0659s.0185-.0674.0444-.0674S1.7917,1.7209,1.7917,1.7619Zm-.07.002c0,.0337.0107.0527.0263.0527.0181,0,.0264-.021.0264-.0537S1.7658,1.71,1.7477,1.71C1.7326,1.71,1.7214,1.7287,1.7214,1.7639Z" />
	<path class="h" d="M1.778,3.9138V3.9031l.0137-.0137c.0332-.0313.0478-.0479.0483-.0674a.0234.0234,0,0,0-.0259-.0254.0436.0436,0,0,0-.0273.0108l-.0054-.0118A.0551.0551,0,0,1,1.818,3.782a.0365.0365,0,0,1,.0391.0381c0,.0234-.0171.0429-.0444.0693l-.01.01h.0581v.0146Z" />
	<path class="h" d="M1.9665,3.8474c0,.0439-.0166.0684-.045.0684-.0253,0-.0424-.0235-.0424-.0665s.0185-.0673.0444-.0673S1.9665,3.8064,1.9665,3.8474Zm-.07.0019c0,.0342.0107.0528.0263.0528.0181,0,.0264-.02.0264-.0537,0-.0313-.0083-.0528-.0264-.0528C1.9074,3.7956,1.8962,3.8142,1.8962,3.8493Z" />
	<path class="h" d="M2.7174,2.61l-.0224.0122-.0039-.0132.0283-.0151H2.734v.1289H2.7174Z" />
	<path class="h" d="M2.8678,2.657c0,.0439-.0166.0678-.0449.0678-.0254,0-.042-.0234-.042-.0659s.0186-.0674.044-.0674C2.8522,2.5915,2.8678,2.6159,2.8678,2.657Zm-.07.0019c0,.0337.0108.0528.0264.0528.0185,0,.0264-.021.0264-.0538s-.0079-.0527-.0264-.0527C2.8092,2.6052,2.7975,2.6238,2.7975,2.6589Z" />
	<path class="h" d="M.5924,2.7981a.0614.0614,0,0,0,.0284.0083A.0258.0258,0,0,0,.65,2.781c0-.0181-.0166-.0254-.0332-.0254h-.01V2.7424h.01c.0127,0,.0288-.0068.0288-.022,0-.01-.0069-.02-.023-.02A.0464.0464,0,0,0,.5973,2.71L.5924,2.697a.0629.0629,0,0,1,.0337-.01c.0254,0,.0371.0151.0371.0307a.0321.0321,0,0,1-.0239.0308.0336.0336,0,0,1,.0288.0332c0,.0205-.0161.0386-.0468.0386a.0687.0687,0,0,1-.0337-.0083Z" />
	<path class="h" d="M.7765,2.7522c0,.0439-.0166.0679-.0449.0679-.0254,0-.0425-.0235-.0425-.066s.0186-.0673.0445-.0673S.7765,2.7112.7765,2.7522Zm-.07.0019c0,.0337.0108.0528.0264.0528.018,0,.0263-.021.0263-.0537S.7506,2.7.7326,2.7C.7174,2.7.7062,2.719.7062,2.7541Z" />
	<polygon class="h" points="1.687 1.358 1.786 1.345 1.743 1.44 1.687 1.358" />
</svg>
