<svg width="3.39px" height="2.46px" xmlns="http://www.w3.org/2000/svg" viewBox="0 0 3.39 2.46">
	<defs>
		<style>
			.cls-1{fill:#fff7ea;}.cls-2{fill:#231f20;}
		</style>
	</defs>
	<g id="Layer_2" data-name="Layer 2">
		<g id="Layer_1-2" data-name="Layer 1">
			<rect class="cls-1" width="3.39" height="2.46" />
			<rect class="cls-2" x="2.9" y="0.22" width="0.09" height="0.43" />
			<rect class="cls-2" x="2.9" y="0.78" width="0.09" height="0.94" />
			<rect class="cls-2" x="2.55" y="0.22" width="0.03" height="1.2" />
			<rect class="cls-2" x="2.21" y="0.94" width="0.03" height="1.2" />
			<rect class="cls-2" x="1.87" y="0.48" width="0.03" height="1.2" />
			<rect class="cls-2" x="1.53" y="0.22" width="0.03" height="1.2" />
			<rect class="cls-2" x="0.84" y="0.22" width="0.03" height="1.2" />
			<rect class="cls-2" x="0.5" y="0.88" width="0.03" height="1.2" />
			<rect class="cls-2" x="2.21" y="0.22" width="0.03" height="0.57" />
			<rect class="cls-2" x="0.84" y="1.58" width="0.03" height="0.57" />
			<rect class="cls-2" x="1.18" y="0.22" width="0.03" height="0.57" />
			<rect class="cls-2" x="1.18" y="1.01" width="0.03" height="0.57" />
			<rect class="cls-2" x="1.18" y="1.72" width="0.03" height="0.57" />
			<rect class="cls-2" x="0.5" y="0.22" width="0.03" height="0.57" />
		</g>
	</g>
</svg>
