<svg width="1.21px" height="2.04px" xmlns="http://www.w3.org/2000/svg" viewBox="0 0 1.21 2.04">
	<defs>
		<style>
			.cls-1{fill:#f6abcc;stroke:#231f20;stroke-miterlimit:10;stroke-width:0.09px;}.cls-2{fill:#98d9e8;}.cls-3{fill:#faf184;}.cls-4{fill:#ad75b2;}.cls-5{fill:#be2626;}.cls-6{fill:#aad15d;}.cls-7{fill:#fff;}
		</style>
	</defs>
	<g id="Layer_2" data-name="Layer 2">
		<g id="Layer_1-2" data-name="Layer 1">
			<path class="cls-1" d="M.24,0H1a.21.21,0,0,1,.19.22V1.78A.21.21,0,0,1,1,2H.24A.21.21,0,0,1,0,1.78V.26A.21.21,0,0,1,.24,0Z" />
			<rect class="cls-2" x="0.16" y="0.32" width="0.26" height="0.26" rx="0.13" />
			<rect class="cls-3" x="0.48" y="0.32" width="0.26" height="0.26" rx="0.13" />
			<rect class="cls-2" x="0.8" y="0.32" width="0.26" height="0.26" rx="0.13" />
			<rect class="cls-4" x="0.15" y="0.71" width="0.26" height="0.26" rx="0.13" />
			<rect class="cls-2" x="0.47" y="0.71" width="0.26" height="0.26" rx="0.13" />
			<rect class="cls-5" x="0.79" y="0.71" width="0.26" height="0.26" rx="0.13" />
			<rect class="cls-6" x="0.16" y="1.12" width="0.26" height="0.26" rx="0.13" />
			<rect class="cls-7" x="0.48" y="1.12" width="0.26" height="0.26" rx="0.13" />
		</g>
	</g>
</svg>
