<?xml version="1.0" encoding="iso-8859-1"?>
<!-- Generator: Adobe Illustrator 22.1.0, SVG Export Plug-In . SVG Version: 6.00 Build 0)  -->
<svg version="1.1" id="Layer_1" xmlns="http://www.w3.org/2000/svg" xmlns:xlink="http://www.w3.org/1999/xlink" x="0px" y="0px"
	 width="850.394px" height="850.394px" viewBox="0 0 850.394 850.394" enable-background="new 0 0 850.394 850.394"
	 xml:space="preserve">
<g>
	<path fill="#F6C73E" d="M834,460.536H18c-3.866,0-7-3.134-7-7V245.131c0-3.866,3.134-7,7-7h816c3.866,0,7,3.134,7,7v208.405
		C841,457.402,837.866,460.536,834,460.536z"/>
	<path d="M47.674,307.971H37.626v-63.305h10.048V307.971z M171.772,308.471h-10.048v-63.305h10.048V308.471z M662.131,308.466
		h-10.048v-63.305h10.048V308.466z M539.792,308.218h-10.048v-63.305h10.048V308.218z M292.099,307.968h-10.048v-63.305h10.048
		V307.968z M784.72,307.963h-10.048v-63.305h10.048V307.963z M415.191,307.716h-10.048v-63.305h10.048V307.716z M232.343,286.368
		h-10.048v-41.203h10.048V286.368z M600.87,286.117h-10.048v-41.203h10.048V286.117z M477.693,286.033h-10.048V244.83h10.048
		V286.033z M109.418,286.033H99.37V244.83h10.048V286.033z M723.795,285.949h-10.048v-41.203h10.048V285.949z M355.269,285.698
		H345.22v-41.203h10.048V285.698z M263.326,278.324h-10.048v-33.16h10.048V278.324z M201.583,278.31h-10.048v-33.141h10.048V278.31z
		 M631.852,278.073h-10.048v-33.16h10.048V278.073z M570.109,278.059h-10.048v-33.141h10.048V278.059z M508.675,277.99h-10.048
		v-33.16h10.048V277.99z M140.4,277.99h-10.048v-33.16H140.4V277.99z M446.931,277.974h-10.048v-33.14h10.048V277.974z
		 M78.657,277.974H68.608v-33.14h10.048V277.974z M754.778,277.905H744.73v-33.16h10.048V277.905z M693.034,277.891h-10.048V244.75
		h10.048V277.891z M816.212,277.723h-10.048v-33.14h10.048V277.723z M386.252,277.654h-10.048v-33.16h10.048V277.654z
		 M324.508,277.64H314.46v-33.141h10.048V277.64z"/>
	<path d="M33.413,328.268c0-8.503,4.524-13.026,9.409-13.026s9.408,4.523,9.408,13.026c0,8.504-4.523,13.028-9.408,13.028
		S33.413,336.772,33.413,328.268z M47.706,328.268c0-6.513-2.534-9.046-4.885-9.046c-2.352,0-4.885,2.533-4.885,9.046
		c0,6.514,2.533,9.047,4.885,9.047C45.172,337.315,47.706,334.782,47.706,328.268z M166.053,340.914v-3.98h3.437v-14.836h-0.362
		l-3.257,1.81l-1.809-3.076l9.047-5.246h0.724v21.349h3.437v3.98H166.053z M287.549,320.068c-3.075,0-4.703,3.075-4.703,3.075
		l-3.257-2.352c0,0,2.352-4.703,8.322-4.703c4.523,0,8.142,3.618,8.142,7.96c0,6.875-9.047,13.027-9.047,13.027v0.362h9.047v3.98
		H279.95v-2.895c0,0,11.579-7.96,11.579-14.474C291.53,321.877,289.72,320.068,287.549,320.068z M409.133,330.199h-3.8v-2.895
		l5.79-6.152v-0.362h-9.046v-3.98h15.197v2.895l-6.152,6.513v0.362c0,0,6.875,1.086,6.875,7.599c0,4.342-3.618,7.961-8.503,7.961
		c-6.152,0-8.866-5.066-8.866-5.066l3.257-2.352c0,0,1.99,3.437,5.247,3.437c2.533,0,4.342-1.809,4.342-3.98
		S411.665,330.199,409.133,330.199z M544.148,332.37v3.981h-2.895v5.065h-4.342v-5.065h-11.217v-2.895l13.026-17.369h2.534v16.283
		H544.148z M536.911,325.495h-0.362l-4.885,6.513v0.362h5.247V325.495z M665.966,334.501c0,4.523-3.619,8.142-8.504,8.142
		c-6.152,0-8.865-5.066-8.865-5.066l3.256-2.352c0,0,1.99,3.437,5.247,3.437c2.533,0,4.342-1.809,4.342-4.161
		c0-2.352-1.81-4.162-4.342-4.162c-1.809,0-3.98,1.267-3.98,1.267l-2.895-1.81v-12.484h14.294v3.98h-9.951v5.79
		c0,0,1.447-0.723,2.895-0.723C662.347,326.36,665.966,329.978,665.966,334.501z M777.599,326.54h0.363c0,0,1.085-0.905,2.532-0.905
		c3.619,0,7.238,3.619,7.238,8.323c0,4.885-3.8,8.684-8.684,8.684c-4.885,0-8.684-3.8-8.684-8.684c0-3.981,2.534-7.238,2.534-7.238
		l6.151-9.408h4.704L777.599,326.54z M779.047,329.254c-2.353,0-4.161,1.81-4.161,4.704s1.808,4.703,4.161,4.703
		c2.351,0,4.161-1.809,4.161-4.703S781.398,329.254,779.047,329.254z"/>
</g>
<g>
</g>
<g>
</g>
<g>
</g>
<g>
</g>
<g>
</g>
<g>
</g>
</svg>
