<svg width="3.3428" height="3.6543" xmlns="http://www.w3.org/2000/svg" viewBox="0 0 3.3428 3.6543">
	<defs>
		<style>
			.a{fill:#dc94c0;}.b{fill:#5ba845;}.c{fill:#fff;}.d{fill:#87c540;}.e{fill:#f2b1d0;}
		</style>
	</defs>
	<path class="a" d="M.2029.66H3.1042a.2386.2386,0,0,1,.2386.2386v2.29a.2088.2088,0,0,1-.2088.2088H0a0,0,0,0,1,0,0V.8626A.2024.2024,0,0,1,.2029.66Z" />
	<rect class="b" x="0.6091" y="0.4173" width="2.3953" height="1.7961" transform="translate(-0.3837 0.8722) rotate(-24.6194)" />
	<path class="c" d="M2.4535.5655,2.434.5186a.1569.1569,0,0,1-.08.0088L2.352.4922A.1424.1424,0,0,0,2.4281.4834.0514.0514,0,0,0,2.4633.4151C2.4516.39,2.4281.3819,2.3871.3819,2.3324.3829,2.2953.3741,2.2777.334A.0841.0841,0,0,1,2.3168.23l-.02-.0468L2.3246.1709l.0195.045a.1575.1575,0,0,1,.0684-.01V.2422A.123.123,0,0,0,2.3481.251a.0441.0441,0,0,0-.0313.0606c.01.0234.0313.0283.0781.0293.0567-.001.09.0127.1075.0546a.0864.0864,0,0,1-.0391.1084l.02.0489Z" />
	<rect class="d" x="0.6091" y="0.6369" width="2.3953" height="1.7961" transform="translate(-0.3039 0.4554) rotate(-13.2617)" />
	<path class="e" d="M2.83,3.6542,0,3.5749.0064.8164C.0278.8984.1023.8735.2.8813l2.6409.075a.2656.2656,0,0,1,.2581.2656V3.3925A.2618.2618,0,0,1,2.83,3.6542Z" />
	<path class="c" d="M2.724.9571l-.0088-.05a.1475.1475,0,0,1-.08-.0088L2.641.8633a.1287.1287,0,0,0,.0752.0088c.0352-.0068.0547-.0312.05-.06S2.7387.7725,2.7.7637C2.6459.753,2.61.7364,2.602.6929A.083.083,0,0,1,2.6625.6L2.6537.55,2.684.544l.0088.0478A.1387.1387,0,0,1,2.76.5977L2.7543.6324A.1314.1314,0,0,0,2.6879.627C2.65.6343,2.641.66,2.644.6792c.0048.0259.0253.0352.0712.0455.0557.0117.085.0322.0928.0761A.0862.0862,0,0,1,2.7465.9l.0088.0517Z" />
</svg>
