<svg width="108px" height="126px" id="chairs_and_grandpa" data-name="chairs and grandpa" xmlns="http://www.w3.org/2000/svg" viewBox="0 0 108 126">
	<defs>
		<style>
			.cls-1{fill:#575757;}.cls-2{fill:#fff;}.cls-3{fill:#b7b7b8;}.cls-4{fill:#c3e8f3;}.cls-5{fill:#e1ba8d;}.cls-6{fill:#404040;stroke:#231f20;stroke-miterlimit:10;stroke-width:0.22px;}.cls-7{fill:#d2ccb6;}.cls-8{fill:#e0dac8;}.cls-9{fill:#c6c1af;}.cls-10{fill:#b8b29d;}
		</style>
	</defs>
	<rect class="cls-1" x="14.62" y="55.12" width="28.26" height="14.13" />
	<rect class="cls-2" x="15.37" y="54.75" width="26.77" height="13.38" />
	<circle class="cls-3" cx="20.69" cy="62.11" r="4" />
	<path class="cls-4" d="M30,59.69c-2.06.08-5.73.3-5.73.3l0,4.14s3.54.33,5.61.41A12,12,0,0,0,30,59.69Z" />
	<path class="cls-5" d="M20.92,58.22a3.9,3.9,0,0,1,3.89,3.9,3.85,3.85,0,0,1-.61,2.09,3.9,3.9,0,1,1-3.28-6Z" />
	<rect class="cls-6" x="22.23" y="62.82" width="1.29" height="0.97" rx="0.48" />
	<rect class="cls-6" x="22.23" y="60.57" width="1.29" height="0.97" rx="0.48" />
	<path class="cls-5" d="M29.4,58.65c-.77-.07-4.79-.37-5.25,1.31,0,.07.05.14.14.13l5.06-.32a1.08,1.08,0,0,0,.65-.25c.24-.21.38-.53-.35-.81A1,1,0,0,0,29.4,58.65Z" />
	<path class="cls-5" d="M29.45,65.6c-.78.08-4.8.4-5.26-1.39a.13.13,0,0,1,.14-.15l5.07.35a1,1,0,0,1,.65.27c.23.22.38.56-.36.86A.94.94,0,0,1,29.45,65.6Z" />
	<rect class="cls-2" x="25.78" y="54.75" width="15.62" height="13.38" />
	<rect class="cls-7" x="88.19" y="63.13" width="5" height="5" />
	<rect class="cls-8" x="93.19" y="60.13" width="1" height="4" />
	<rect class="cls-9" x="93.19" y="64.13" width="1" height="4" />
	<rect class="cls-10" x="88.19" y="68.13" width="1" height="2" />
	<rect class="cls-10" x="93.19" y="68.13" width="1" height="2" />
	<rect class="cls-7" x="88.19" y="69.13" width="5" height="5" />
	<rect class="cls-8" x="93.19" y="66.13" width="1" height="4" />
	<rect class="cls-9" x="93.19" y="70.13" width="1" height="4" />
	<rect class="cls-10" x="88.19" y="74.13" width="1" height="2" />
	<rect class="cls-10" x="93.19" y="74.13" width="1" height="2" />
</svg>
