<svg width="45.07px" height="87.34px" xmlns="http://www.w3.org/2000/svg" viewBox="0 0 45.07 87.34">
	<defs>
		<style>
			.cls-1{fill:#c4c2c2;}.cls-2{fill:#e2bb8e;}.cls-3{fill:#ee448c;}.cls-4{fill:#231f20;stroke:#231f20;stroke-miterlimit:10;stroke-width:1.01px;}.cls-5{fill:#5ecbf0;}.cls-6{fill:#ffef94;}.cls-7{fill:#e83b95;}
		</style>
	</defs>
	<g id="Layer_2" data-name="Layer 2">
		<g id="Layer_1-2" data-name="Layer 1">
			<path class="cls-1" d="M8.73,82.67a2.14,2.14,0,0,1-1.13.84C6.73,83.75,6,84.2,6.19,85c.41,1.86,1.43,2.47,4.66,2.2,1.6-.13,1.39-.15,2.38-.28A2.22,2.22,0,0,0,15.09,85l.3-2Z" />
			<path class="cls-1" d="M28.54,83.58a2.2,2.2,0,0,1-1.44-1.49l-6.33,1,.29,2A2.2,2.2,0,0,0,22.91,87c1,.13.78.15,2.38.28,3.24.27,4.25-.34,4.66-2.2C30.13,84.28,29.41,83.83,28.54,83.58Z" />
			<path class="cls-2" d="M28.29,60.57C18.2,62.91,8,60.22,8,60.22c0,.84-.05,1.61-.06,2.32a6.71,6.71,0,0,0,0,.78l1.13,18a2.2,2.2,0,0,1-.4,1.39l6.66.27L18,64.51h.09l2.68,18.58,6.33-1a2,2,0,0,1-.08-.73l1.22-18.07c0-.27,0-.41,0-.72" />
			<path class="cls-3" d="M28.7,60.86C28.36,51.58,27.36,35,27.36,35l-18.67.19s-1.48,16-1.85,25.32C6.86,60.51,17.75,63.24,28.7,60.86Z" />
			<path class="cls-2" d="M35.35,20A17.58,17.58,0,1,1,17.77,2.43,17.57,17.57,0,0,1,35.35,20Z" />
			<rect class="cls-4" x="10.24" y="25.94" width="4.36" height="5.81" rx="2.18" />
			<rect class="cls-4" x="20.41" y="25.94" width="4.36" height="5.81" rx="2.18" />
			<path class="cls-5" d="M7.26,53,5.56,67.22a56.87,56.87,0,0,0,25,0L28.32,53Z" />
			<path class="cls-6" d="M24.07,18.37s-11,10.2-22.67,10.47c0,0-3.62-8.51.79-17A19.34,19.34,0,0,1,17.77,1.45c2.88,0,7.83-.95,14.07,6.14s3.61,21.25,3.61,21.25S24.07,20.84,24.07,18.37Z" />
			<path class="cls-6" d="M28.77,7.64l-1.86-2S33.56-4.88,43.15,2.8A4.91,4.91,0,0,1,45,6.46c.16,4.2.3,13.49-1.42,16.3L39.75,12.12a4.67,4.67,0,0,0-3.51-3Z" />
			<path class="cls-7" d="M26.28,5h0a.87.87,0,0,1,1.2.08L30,7.91A.87.87,0,0,1,30,9.1l-.1.1a.88.88,0,0,1-1.28,0L26.17,6.22A.87.87,0,0,1,26.28,5Z" />
			<path class="cls-2" d="M33.39,58.3c.34-3.51,1.71-21.64-5.88-23.71-.32-.09-.62.23-.59.64.22,3.54,1.15,18.27,1.44,22.84A4.82,4.82,0,0,0,29.5,61c1,1.05,2.4,1.71,3.65-1.6A4.07,4.07,0,0,0,33.39,58.3Z" />
			<path class="cls-2" d="M2.06,58.51C1.7,55,.24,36.87,8.34,34.79a.56.56,0,0,1,.64.64C8.74,39,7.75,53.7,7.44,58.27a4.72,4.72,0,0,1-1.22,2.94c-1,1-2.57,1.71-3.9-1.6A4.11,4.11,0,0,1,2.06,58.51Z" />
		</g>
	</g>
</svg>
