<svg width="36.94px" height="86.41px" xmlns="http://www.w3.org/2000/svg" viewBox="0 0 36.94 86.41">
	<defs>
		<style>
			.cls-1{fill:#603e17;}.cls-2{fill:#f9fae9;}.cls-3{fill:#77a4d7;}.cls-4{fill:#a3a3a3;}.cls-5{fill:#e2bb8e;}.cls-6{fill:#231f20;stroke:#231f20;stroke-miterlimit:10;}.cls-7{fill:#704b25;}.cls-8{fill:#7c5429;}
		</style>
	</defs>
	<g id="Layer_2" data-name="Layer 2">
		<g id="Layer_1-2" data-name="Layer 1">
			<path class="cls-1" d="M0,40.64H33.82V15.87H2.35A2.35,2.35,0,0,0,0,18.22Z" />
			<circle class="cls-1" cx="18.03" cy="18.03" r="18.03" />
			<path class="cls-2" d="M9,81.73a2.11,2.11,0,0,1-1.12.84c-.87.25-1.59.69-1.41,1.5.41,1.85,1.42,2.46,4.66,2.2,1.6-.13,1.38-.16,2.38-.29a2.2,2.2,0,0,0,1.85-1.93l.3-2Z" />
			<path class="cls-2" d="M28.77,82.65a2.23,2.23,0,0,1-1.45-1.5l-6.33,1,.29,2a2.22,2.22,0,0,0,1.86,1.93c1,.13.78.16,2.38.29,3.23.26,4.25-.35,4.66-2.21C30.35,83.34,29.64,82.9,28.77,82.65Z" />
			<path class="cls-3" d="M28.52,59.63C18.42,62,8.21,59.29,8.21,59.29c0,.83-.05,1.61-.07,2.32,0,.26,0,.51,0,.78l1.14,18a2.24,2.24,0,0,1-.41,1.4l6.66.26,2.68-18.5h.08L21,82.16l6.33-1a2.31,2.31,0,0,1-.09-.74l1.22-18.07c0-.26,0-.41.05-.72" />
			<path class="cls-4" d="M28.93,59.93c-.35-9.29-1.35-25.86-1.35-25.86l-18.67.18s-1.47,16-1.84,25.32C7.08,59.58,18,62.31,28.93,59.93Z" />
			<path class="cls-5" d="M35.57,19.07A17.58,17.58,0,1,1,18,1.5,17.58,17.58,0,0,1,35.57,19.07Z" />
			<rect class="cls-6" x="10.47" y="25" width="4.36" height="5.81" rx="2.18" />
			<rect class="cls-6" x="20.63" y="25" width="4.36" height="5.81" rx="2.18" />
			<path class="cls-5" d="M33.62,57.37c.33-3.52,1.7-21.64-5.88-23.72-.32-.08-.63.23-.6.64.22,3.54,1.15,18.28,1.44,22.84a4.88,4.88,0,0,0,1.14,2.94c1,1.06,2.4,1.71,3.65-1.6A4.41,4.41,0,0,0,33.62,57.37Z" />
			<path class="cls-5" d="M2.28,57.57C1.92,54.06.46,35.93,8.56,33.86a.55.55,0,0,1,.64.63C9,38,8,52.77,7.66,57.33a4.64,4.64,0,0,1-1.22,2.94c-1,1.06-2.56,1.71-3.9-1.59A4.18,4.18,0,0,1,2.28,57.57Z" />
			<path class="cls-1" d="M17.42,15.87a17.75,17.75,0,0,1,16.4,11.18A18,18,0,1,0,1.61,25.76,17.68,17.68,0,0,1,17.42,15.87Z" />
			<path class="cls-7" d="M17.5,17.89s13.77-.11,15.26,10l1.31,4.56,2.87-10.17S29.29,9.4,21.54,11.87,17.5,17.89,17.5,17.89Z" />
			<path class="cls-8" d="M19.27,18.26S5.58,19.78,5.31,30l-.77,4.68-4-9.75S7.62,10.14,15.61,11.67,19.27,18.26,19.27,18.26Z" />
		</g>
	</g>
</svg>
