<svg width="35.83px" height="85.89px" xmlns="http://www.w3.org/2000/svg" viewBox="0 0 35.83 85.89">
	<defs>
		<style>
			.cls-1{fill:#e2e2e2;}.cls-2,.cls-6{fill:#231f20;}.cls-3{fill:#e7ba8d;}.cls-4{fill:#bf8f52;}.cls-5{fill:#f1f2f2;}.cls-6{stroke:#231f20;stroke-miterlimit:10;}.cls-7{fill:#414042;}.cls-8{fill:#fee685;}.cls-9{fill:#96cd81;}
		</style>
	</defs>
	<g id="Layer_2" data-name="Layer 2">
		<g id="Layer_1-2" data-name="Layer 1">
			<path class="cls-1" d="M9.21,81.22a2.08,2.08,0,0,1-1.12.83c-.88.25-1.59.7-1.41,1.5.41,1.85,1.42,2.47,4.65,2.2,1.6-.13,1.39-.16,2.38-.28a2.22,2.22,0,0,0,1.86-1.93l.3-2.05Z" />
			<path class="cls-1" d="M29,82.13a2.2,2.2,0,0,1-1.44-1.49l-6.33,1,.29,2a2.21,2.21,0,0,0,1.86,1.93c1,.12.78.15,2.38.28,3.23.27,4.24-.35,4.65-2.2C30.61,82.83,29.89,82.38,29,82.13Z" />
			<path id="part_hair" data-name="part hair" class="cls-2" d="M31.28,30.84S37.38,16,34.6,9.65,21.05,2.07,18.25,2.05,7.16,1.88,3.18,8.48C.35,13.19,4.57,30.29,4.57,30.29S19.62,30.67,31.28,30.84Z" />
			<path class="cls-3" d="M28.77,59.12c-10.09,2.34-20.3-.35-20.3-.35,0,.83-.06,1.61-.07,2.32,0,.26,0,.52,0,.78l1.13,18a2.14,2.14,0,0,1-.4,1.39l6.66.27,2.67-18.51h.09l2.69,18.58,6.33-1a2,2,0,0,1-.09-.73l1.22-18.08c0-.26,0-.4,0-.71" />
			<polygon id="pant" class="cls-4" points="17.94 71.69 19.14 59.13 8.06 58.77 8.19 71.69 17.94 71.69" />
			<polygon id="pant-2" data-name="pant" class="cls-4" points="19.29 71.69 18.14 59.55 29.22 59.21 28.77 71.69 19.29 71.69" />
			<path class="cls-5" d="M7.72,61.68C8,52.07,9.46,33.47,9.46,33.47H26.83s2.27,18.37,2.61,28C29.43,61.5,17.85,64.14,7.72,61.68Z" />
			<path id="arm" class="cls-3" d="M2.54,57.05C2.18,53.54.72,35.42,8.82,33.34a.56.56,0,0,1,.64.64c-.24,3.54-1.23,18.27-1.54,22.84a2.4,2.4,0,0,1-.42,1.57c-1.58,3.18-3.36,3.08-4.7-.23A4.09,4.09,0,0,1,2.54,57.05Z" />
			<path id="arm-2" data-name="arm" class="cls-3" d="M33.75,57.05c.36-3.51,1.82-21.63-6.28-23.71a.55.55,0,0,0-.63.64c.23,3.54,1.23,18.27,1.53,22.84a2.4,2.4,0,0,0,.43,1.57c1.57,3.18,3.36,3.08,4.69-.23A4.09,4.09,0,0,0,33.75,57.05Z" />
			<path id="sleeve" class="cls-5" d="M33.91,57.27c.37-3.56,1.88-22-6.49-24.05a.56.56,0,0,0-.65.64C27,37.45,28.35,57,28.35,57h0s3.91,4.71,5.29,1.36A4.17,4.17,0,0,0,33.91,57.27Z" />
			<path id="sleeve-2" data-name="sleeve" class="cls-5" d="M2.33,57.26C2,53.7.42,35.28,8.93,33.17a.57.57,0,0,1,.67.65C9.35,37.42,8,57,8,57H8s-4,4.73-5.37,1.37A4.35,4.35,0,0,1,2.33,57.26Z" />
			<path id="face" class="cls-3" d="M35.83,18.56A17.58,17.58,0,1,1,18.25,1,17.58,17.58,0,0,1,35.83,18.56Z" />
			<rect id="eye" class="cls-6" x="10.72" y="24.49" width="4.36" height="5.81" rx="2.18" />
			<rect id="eye-2" data-name="eye" class="cls-6" x="20.89" y="24.49" width="4.36" height="5.81" rx="2.18" />
			<path id="part_hair-2" data-name="part hair" class="cls-2" d="M28,15.3a79.38,79.38,0,0,0,6.12,11.08s3.33-3.31.4-16.1A19.38,19.38,0,0,0,18.72,0C13.18-.07,6.81,2.59,4.64,6.13-5,21.91,3.35,26.38,3.35,26.38S28,17.77,28,15.3Z" />
			<polygon class="cls-7" points="33.93 43.25 31.38 43.22 31.38 45.72 34.05 45.72 33.93 43.25" />
			<path class="cls-8" d="M34,43.66c-.94,0-1.81.44-1.8.82s.58.8,1.88.8" />
			<path class="cls-7" d="M34,43.83c-.8,0-1.49.3-1.48.61s.44.7,1.54.7" />
			<path class="cls-9" d="M34,44c-.62,0-1.19.29-1.18.54S33.16,45,34,45" />
			<path class="cls-7" d="M34,44.07c-.52,0-1,.19-1,.4s.3.45,1,.45" />
		</g>
	</g>
</svg>
