<svg width="36.76px" height="85.89px" xmlns="http://www.w3.org/2000/svg" viewBox="0 0 36.76 85.89">
	<defs>
		<style>
			.cls-1{fill:#987a4e;}.cls-2{fill:#6d5220;}.cls-3{fill:#e7ba8d;}.cls-4,.cls-6{fill:#231f20;}.cls-5,.cls-8{fill:#f1f2f2;}.cls-6{stroke:#231f20;stroke-miterlimit:10;}.cls-7{fill:#be1e2d;}.cls-8{font-size:2px;font-family:FuturaStd-HeavyOblique, FuturaStd HeavyOblique;font-weight:800;font-style:oblique;}.cls-9{letter-spacing:-0.01em;}.cls-10{letter-spacing:0em;}
		</style>
	</defs>
	<g id="Layer_2" data-name="Layer 2">
		<g id="Layer_1-2" data-name="Layer 1">
			<path class="cls-1" d="M9.48,81.22a2.07,2.07,0,0,1-1.13.83c-.87.25-1.59.7-1.41,1.5.41,1.85,1.43,2.47,4.66,2.2,1.6-.13,1.38-.16,2.38-.28a2.22,2.22,0,0,0,1.86-1.93l.29-2.05Z" />
			<path class="cls-1" d="M29.29,82.13a2.2,2.2,0,0,1-1.44-1.49l-6.33,1,.28,2a2.22,2.22,0,0,0,1.86,1.93c1,.12.78.15,2.38.28,3.24.27,4.25-.35,4.66-2.2C30.88,82.83,30.16,82.38,29.29,82.13Z" />
			<path id="part_hair" data-name="part hair" class="cls-2" d="M32,31.14s7.24-16.09,2.83-21.49S21.32,2.07,18.52,2.05,7.42,1.88,3.45,8.48c-2.84,4.71.83,22,.83,22S20.37,31,32,31.14Z" />
			<path class="cls-3" d="M29,59.12C19,61.46,8.73,58.77,8.73,58.77c0,.83-.05,1.61-.06,2.32a6.77,6.77,0,0,0,0,.78l1.13,18a2.27,2.27,0,0,1-.4,1.39l6.66.27,2.67-18.51h.09l2.68,18.58,6.33-1a2,2,0,0,1-.08-.73L29,61.83c0-.26,0-.4,0-.71" />
			<polygon id="pant" class="cls-4" points="17.8 79.53 19.41 59.34 8.32 58.77 9.36 79.43 17.8 79.53" />
			<polygon id="pant-2" data-name="pant" class="cls-4" points="20.01 79.97 18.41 59.78 29.49 59.21 28.45 79.86 20.01 79.97" />
			<path class="cls-5" d="M8,61.68c.32-9.61,1.74-28.21,1.74-28.21H27.1s2.27,18.37,2.61,28C29.69,61.5,18.11,64.14,8,61.68Z" />
			<path id="arm" class="cls-3" d="M2.81,57.05C2.45,53.54,1,35.42,9.09,33.34a.55.55,0,0,1,.63.64c-.23,3.54-1.23,18.27-1.53,22.84a2.4,2.4,0,0,1-.43,1.57c-1.57,3.18-3.36,3.08-4.69-.23A4.09,4.09,0,0,1,2.81,57.05Z" />
			<path id="arm-2" data-name="arm" class="cls-3" d="M34,57.05c.36-3.51,1.82-21.63-6.28-23.71a.56.56,0,0,0-.64.64c.24,3.54,1.23,18.27,1.54,22.84a2.4,2.4,0,0,0,.42,1.57c1.58,3.18,3.36,3.08,4.7-.23A4.09,4.09,0,0,0,34,57.05Z" />
			<path class="cls-5" d="M9.64,33.5c-.4-.83-3.11.69-4.31,2.4a13.72,13.72,0,0,0-2.2,5.94l6,.55S10,34.25,9.64,33.5Z" />
			<path class="cls-5" d="M27.19,33.5c.4-.83,3.11.69,4.32,2.4a13.64,13.64,0,0,1,2.19,5.94l-6,.55S26.83,34.25,27.19,33.5Z" />
			<path id="face" class="cls-3" d="M36.09,18.56A17.57,17.57,0,1,1,18.52,1,17.57,17.57,0,0,1,36.09,18.56Z" />
			<rect id="eye" class="cls-6" x="10.99" y="24.49" width="4.36" height="5.81" rx="2.18" />
			<rect id="eye-2" data-name="eye" class="cls-6" x="21.15" y="24.49" width="4.36" height="5.81" rx="2.18" />
			<path id="part_hair-2" data-name="part hair" class="cls-2" d="M9.55,15.3s20.51,5.6,24.19,11.08c0,0,6.21-3.74.83-15.95A19.35,19.35,0,0,0,19,0C13.44-.07,7.07,2.59,4.91,6.13-4.72,21.91,2.78,26.38,2.78,26.38S9.55,17.77,9.55,15.3Z" />
			<rect class="cls-7" x="13.79" y="41.78" width="10.13" height="2.43" />
			<text class="cls-8" transform="translate(14.85 43.34)">
				Sup
				<tspan class="cls-9" x="3.23" y="0">
					r
				</tspan>
				<tspan class="cls-10" x="3.86" y="0">
					eme
				</tspan>
			</text>
		</g>
	</g>
</svg>
