<svg width="36.91px" height="85.94px" xmlns="http://www.w3.org/2000/svg" viewBox="0 0 36.91 85.94">
	<defs>
		<style>
			.cls-1{fill:#4c3f18;}.cls-2{fill:#ddc324;}.cls-3{fill:#e2bb8e;}.cls-4{fill:#f1b4cf;}.cls-5{fill:#81b289;}.cls-6{fill:#e7c49f;}.cls-7{fill:#21aa61;stroke:#1eaa60;stroke-miterlimit:10;}
		</style>
	</defs>
	<g id="Layer_2" data-name="Layer 2">
		<g id="Layer_1-2" data-name="Layer 1">
			<path class="cls-1" d="M9.41,81.27a2.07,2.07,0,0,1-1.13.83c-.87.25-1.59.7-1.41,1.5.41,1.86,1.43,2.47,4.66,2.2,1.6-.13,1.38-.15,2.38-.28a2.22,2.22,0,0,0,1.86-1.93l.3-2Z" />
			<path class="cls-1" d="M29.22,82.18a2.2,2.2,0,0,1-1.44-1.49l-6.33,1,.28,2a2.22,2.22,0,0,0,1.86,1.93c1,.12.78.15,2.38.28,3.24.27,4.25-.34,4.66-2.2C30.81,82.88,30.09,82.43,29.22,82.18Z" />
			<path id="part_hair" data-name="part hair" class="cls-2" d="M35.36,46.51s3.84-24-.57-32.49S21.25,2.13,18.45,2.1,9.62,5.1,3.38,12.19,1.46,46.51,1.46,46.51,23.69,46.24,35.36,46.51Z" />
			<path id="part_hair-2" data-name="part hair" class="cls-2" d="M34,36.75s4.61-12.23.53-20S21.26,4.77,18.67,4.75,10.52,7.52,4.75,14.06s-2.2,22.69-2.2,22.69S23.24,36.5,34,36.75Z" />
			<path class="cls-3" d="M29,59.17c-10.09,2.34-20.31-.35-20.31-.35,0,.83-.05,1.61-.06,2.32a6.71,6.71,0,0,0,0,.78L9.75,80a2.2,2.2,0,0,1-.4,1.39l6.66.27,2.67-18.51h.09l2.68,18.58,6.33-1A2,2,0,0,1,27.7,80l1.22-18.08c0-.26,0-.4,0-.71" />
			<polygon id="pant" class="cls-4" points="28.67 79.77 28.97 58.82 8.25 58.82 9.29 79.48 28.67 79.77" />
			<path class="cls-5" d="M7.92,61.73c.32-9.6,1.74-28.21,1.74-28.21H27s2,18.42,2.39,28.08C29.41,61.61,18,64.19,7.92,61.73Z" />
			<path id="arm" class="cls-6" d="M2.74,57.1C2.38,53.59.92,35.47,9,33.39a.55.55,0,0,1,.63.64C9.42,37.57,8.43,52.3,8.12,56.87a2.38,2.38,0,0,1-.43,1.57C6.12,61.62,4.33,61.52,3,58.21A4.09,4.09,0,0,1,2.74,57.1Z" />
			<path id="arm-2" data-name="arm" class="cls-6" d="M34,57.1c.36-3.51,1.82-21.63-6.28-23.71A.56.56,0,0,0,27,34c.24,3.54,1.23,18.27,1.54,22.84A2.44,2.44,0,0,0,29,58.44c1.58,3.18,3.37,3.08,4.7-.23A4.09,4.09,0,0,0,34,57.1Z" />
			<path class="cls-6" d="M36,18.61A17.57,17.57,0,1,1,18.45,1,17.57,17.57,0,0,1,36,18.61Z" />
			<rect id="eye" class="cls-7" x="10.92" y="24.54" width="4.36" height="5.81" rx="2.18" />
			<rect id="eye-2" data-name="eye" class="cls-7" x="21.08" y="24.54" width="4.36" height="5.81" rx="2.18" />
			<path id="part_hair-3" data-name="part hair" class="cls-2" d="M30.23,15.33S29.36,25.91,33,31.4c0,0,5.87-12.47,1.46-20.92A19.35,19.35,0,0,0,18.91.05C16,0,11.09-.9,4.84,6.19S1.46,30.07,1.46,30.07,30.23,17.8,30.23,15.33Z" />
		</g>
	</g>
</svg>
