<svg width="36.94px" height="86.07px" xmlns="http://www.w3.org/2000/svg" viewBox="0 0 36.94 86.07">
	<defs>
		<style>
			.cls-1{fill:#666;}.cls-2,.cls-6{fill:#231f20;}.cls-3{fill:#fbd3d8;}.cls-4{fill:#e2bb8e;}.cls-5{fill:#603e17;}.cls-6{stroke:#231f20;stroke-miterlimit:10;}.cls-7{fill:#704b25;}.cls-8{fill:#7c5429;}
		</style>
	</defs>
	<g id="Layer_2" data-name="Layer 2">
		<g id="Layer_1-2" data-name="Layer 1">
			<path class="cls-1" d="M9.09,81.4A2,2,0,0,1,8,82.23c-.87.25-1.59.7-1.41,1.5C7,85.59,8,86.2,11.22,85.93c1.6-.13,1.38-.16,2.38-.28a2.2,2.2,0,0,0,1.85-1.93l.3-2Z" />
			<path class="cls-1" d="M28.91,82.31a2.21,2.21,0,0,1-1.45-1.49l-6.33,1,.29,2a2.22,2.22,0,0,0,1.86,1.93c1,.12.78.15,2.38.28,3.23.27,4.25-.34,4.66-2.2C30.49,83,29.78,82.56,28.91,82.31Z" />
			<path class="cls-2" d="M28.66,59.3C18.56,61.64,8.35,59,8.35,59c0,.83,0,1.61-.07,2.32,0,.27,0,.52,0,.78l1.14,18A2.21,2.21,0,0,1,9,81.48l6.66.27,2.68-18.51h.08l2.69,18.58,6.33-1a2.22,2.22,0,0,1-.09-.73L28.6,62c0-.26,0-.4,0-.71" />
			<path class="cls-3" d="M29.07,59.59c-.35-9.28-1.35-25.86-1.35-25.86l-18.66.19s-1.48,16-1.85,25.32C7.22,59.24,18.12,62,29.07,59.59Z" />
			<path class="cls-4" d="M33.76,57c.33-3.51,1.7-21.64-5.88-23.71-.32-.09-.63.22-.6.64.22,3.54,1.15,18.27,1.44,22.84a4.88,4.88,0,0,0,1.14,2.94c1,1,2.4,1.7,3.65-1.6A4.49,4.49,0,0,0,33.76,57Z" />
			<path class="cls-4" d="M2.42,57.23C2.06,53.72.6,35.6,8.7,33.52a.55.55,0,0,1,.64.64C9.1,37.7,8.11,52.43,7.8,57a4.66,4.66,0,0,1-1.22,2.94c-1,1.05-2.56,1.71-3.9-1.6A4.09,4.09,0,0,1,2.42,57.23Z" />
			<path class="cls-5" d="M10,30.51S5.79,36.44,8.8,41.35s2.2,8,2.2,8-2.74-4.79-6.14-6.91S4,20.88,9.44,28.52Z" />
			<path class="cls-5" d="M26.28,29.41s4.2,5.93,1.19,10.85-2.19,8-2.19,8,2.74-4.79,6.13-6.92.9-21.54-4.57-13.89Z" />
			<path class="cls-4" d="M35.71,18.74A17.58,17.58,0,1,1,18.14,1.16,17.57,17.57,0,0,1,35.71,18.74Z" />
			<rect class="cls-6" x="10.61" y="24.67" width="4.36" height="5.81" rx="2.18" />
			<rect class="cls-6" x="20.77" y="24.67" width="4.36" height="5.81" rx="2.18" />
			<path class="cls-5" d="M17.42,15.57a17.75,17.75,0,0,1,16.4,11.18A18,18,0,1,0,1.61,25.46,17.68,17.68,0,0,1,17.42,15.57Z" />
			<path class="cls-7" d="M17.5,17.59s13.77-.11,15.26,10l1.31,4.56L36.94,22S29.29,9.1,21.54,11.57,17.5,17.59,17.5,17.59Z" />
			<path class="cls-8" d="M19.27,18s-13.69,1.53-14,11.73l-.77,4.68-4-9.75S7.62,9.84,15.61,11.37,19.27,18,19.27,18Z" />
		</g>
	</g>
</svg>
