<svg width="39.98px" height="87.11px" xmlns="http://www.w3.org/2000/svg" viewBox="0 0 39.98 87.11">
	<defs>
		<style>
			.cls-1,.cls-3,.cls-5{fill:#231f20;}.cls-2{fill:#e2bb8e;}.cls-3{stroke:#231f20;}.cls-3,.cls-5,.cls-6{stroke-miterlimit:10;}.cls-4{fill:#6dbe45;}.cls-5{stroke:#d22026;}.cls-6{fill:#fff;stroke:#fff;}
		</style>
	</defs>
	<g id="Layer_2" data-name="Layer 2">
		<g id="Layer_1-2" data-name="Layer 1">
			<path class="cls-1" d="M10.07,82.44a2.14,2.14,0,0,1-1.13.84c-.87.24-1.58.69-1.41,1.49C7.94,86.63,9,87.24,12.19,87c1.6-.13,1.39-.15,2.38-.28a2.22,2.22,0,0,0,1.86-1.93l.3-2.05Z" />
			<path class="cls-1" d="M29.88,83.36a2.21,2.21,0,0,1-1.44-1.5l-6.33,1,.29,2a2.2,2.2,0,0,0,1.85,1.93c1,.13.78.15,2.39.28,3.23.27,4.24-.34,4.65-2.2C31.47,84.05,30.75,83.6,29.88,83.36Z" />
			<path class="cls-2" d="M29.63,60.34C19.54,62.69,9.32,60,9.32,60c0,.84-.05,1.62-.06,2.33a6.6,6.6,0,0,0,0,.77l1.13,18a2.2,2.2,0,0,1-.4,1.39l6.66.27,2.67-18.51h.09l2.68,18.59,6.33-1a2,2,0,0,1-.08-.73l1.22-18.07c0-.26,0-.41,0-.72" />
			<path class="cls-1" d="M30,60.64c-.34-9.29-1.34-25.86-1.34-25.86L10,35s-1.48,16-1.85,25.32C8.2,60.29,19.09,63,30,60.64Z" />
			<path class="cls-2" d="M36.69,19.78A17.58,17.58,0,1,1,19.11,2.21,17.58,17.58,0,0,1,36.69,19.78Z" />
			<rect class="cls-3" x="11.58" y="25.71" width="4.36" height="5.81" rx="2.18" />
			<rect class="cls-3" x="21.75" y="25.71" width="4.36" height="5.81" rx="2.18" />
			<path class="cls-1" d="M8.3,50.68,6.6,64.92a57,57,0,0,0,25,0L29.36,50.68Z" />
			<path class="cls-1" d="M13.28,18.15s11,10.2,22.67,10.46c0,0,3.62-8.51-.79-17A19.37,19.37,0,0,0,19.57,1.22C16.7,1.2,11.75.27,5.5,7.36S1.89,28.61,1.89,28.61,13.28,20.61,13.28,18.15Z" />
			<path class="cls-2" d="M34.73,58.08c.34-3.52,1.71-21.64-5.88-23.72-.32-.09-.62.23-.59.64.22,3.54,1.15,18.27,1.44,22.84a4.82,4.82,0,0,0,1.14,2.94c1,1,2.4,1.71,3.65-1.6A4.08,4.08,0,0,0,34.73,58.08Z" />
			<path class="cls-2" d="M3.4,58.28C3,54.76,1.58,36.64,9.68,34.56a.57.57,0,0,1,.64.64C10.08,38.74,9.09,53.48,8.78,58A4.72,4.72,0,0,1,7.56,61c-1,1.06-2.57,1.71-3.9-1.6A4,4,0,0,1,3.4,58.28Z" />
			<circle class="cls-4" cx="6.96" cy="7.25" r="2.3" />
			<circle class="cls-1" cx="4.94" cy="4.94" r="4.94" />
			<circle class="cls-4" cx="32.75" cy="7.84" r="2.3" />
			<circle class="cls-1" cx="35.05" cy="5.54" r="4.94" />
			<polygon class="cls-1" points="28.52 81.86 29.06 71.98 20.83 73.43 22.2 82.87 28.52 81.86" />
			<polygon class="cls-1" points="16.67 82.79 17.96 73.84 9.87 72.54 10.01 82.52 16.67 82.79" />
			<path class="cls-5" d="M27.07,77.42s-.83,6.7,2.46,7.07" />
			<path class="cls-5" d="M12,77.42s.84,6.7-2.46,7.07" />
			<circle class="cls-6" cx="19.44" cy="45.76" r="4.4" />
			<circle class="cls-1" cx="16.75" cy="45.54" r="1.4" />
			<circle class="cls-1" cx="22.08" cy="45.54" r="1.4" />
		</g>
	</g>
</svg>
