<svg width="43.58px" height="99.7px" xmlns="http://www.w3.org/2000/svg" viewBox="0 0 43.58 99.7">
	<defs>
		<style>
			.cls-1{fill:#e2bb8e;}.cls-2{fill:#ee253e;}.cls-3,.cls-6{fill:#231f20;}.cls-4{fill:#27398a;}.cls-5{fill:#936627;stroke:#936929;}.cls-5,.cls-6{stroke-miterlimit:10;stroke-width:1.15px;}.cls-6{stroke:#231f20;}
		</style>
	</defs>
	<g id="Layer_2" data-name="Layer 2">
		<g id="Layer_1-2" data-name="Layer 1">
			<path class="cls-1" d="M40.59,66.35c.49-4,2.46-24.79-8.47-27.17a.71.71,0,0,0-.86.73c.32,4.06,1.66,20.94,2.08,26.17A5,5,0,0,0,35,69.44c1.38,1.21,3.46,2,5.26-1.83A3.94,3.94,0,0,0,40.59,66.35Z" />
			<path class="cls-2" d="M32,49.1c-.32-4.05-.6-7.6-.73-9.19a.71.71,0,0,1,.86-.73c3.71.81,5.93,3.73,7.23,7.4Z" />
			<path class="cls-1" d="M1.38,66.58c-.48-4-2.45-24.79,8.47-27.17a.7.7,0,0,1,.86.73c-.32,4.06-1.66,20.94-2.07,26.17A5,5,0,0,1,7,69.68c-1.38,1.2-3.46,1.95-5.25-1.83A4.3,4.3,0,0,1,1.38,66.58Z" />
			<path class="cls-3" d="M9.19,94.35a2.57,2.57,0,0,1-1.39,1c-1.07.28-2,.79-1.74,1.71.51,2.13,1.76,2.83,5.76,2.52,2-.15,1.71-.18,2.94-.32A2.64,2.64,0,0,0,17.06,97l.37-2.35Z" />
			<path class="cls-3" d="M33.69,95.4a2.63,2.63,0,0,1-1.78-1.71l-7.83,1.14.36,2.27a2.63,2.63,0,0,0,2.29,2.21c1.24.14,1,.17,2.95.32,4,.31,5.25-.39,5.76-2.52C35.66,96.19,34.77,95.68,33.69,95.4Z" />
			<path class="cls-2" d="M10,49.33c.32-4,.61-7.6.73-9.19a.7.7,0,0,0-.86-.73c-3.71.81-5.93,3.73-7.23,7.4Z" />
			<path class="cls-4" d="M33.38,69c-12.47,2.68-25.11-.4-25.11-.4,0,1-.06,1.84-.08,2.66,0,.3,0,.59,0,.89l1.4,20.66a2.4,2.4,0,0,1-.5,1.59l8.23.31,3.31-21.2h.11l3.32,21.29,7.83-1.15a2.19,2.19,0,0,1-.11-.84l1.51-20.71c0-.3,0-.46,0-.82" />
			<path class="cls-2" d="M33.31,69.28c-.4-10.64-1.54-29.62-1.54-29.62l-21.38.21s-1.7,18.3-2.12,29C8.28,68.88,20.77,72,33.31,69.28Z" />
			<path class="cls-1" d="M40.92,22.48A20.13,20.13,0,1,1,20.79,2.35,20.13,20.13,0,0,1,40.92,22.48Z" />
			<path class="cls-5" d="M9.9,21s13.49,5.47,21,3.9l-1.52-3.15s7.28,4.72,10.26,4.65L38.5,23s3.25,5.17,2.42,7.19c0,0,3.46-6.64,1.46-10s-1.94-12-9.55-15.79-14.6-6.13-24.08,0S.66,21.79.66,21.79L.58,30.93S2.25,29.88,4,22.54a14.49,14.49,0,0,1,.28,5.4A19.54,19.54,0,0,0,9.9,21Z" />
			<rect class="cls-6" x="12.16" y="29.27" width="4.99" height="6.65" rx="2.5" />
			<rect class="cls-6" x="23.81" y="29.27" width="4.99" height="6.65" rx="2.5" />
		</g>
	</g>
</svg>
