<svg xmlns="http://www.w3.org/2000/svg" viewBox="0 0 293.32 513.75"><defs><style>.cls-1{fill:#ffdab9;}.cls-1,.cls-10,.cls-2,.cls-3,.cls-4,.cls-5,.cls-6,.cls-7,.cls-8,.cls-9{stroke:#000;stroke-miterlimit:10;}.cls-2{stroke-width:0.5px;}.cls-3{fill:gray;}.cls-4{fill:#1b002a;}.cls-5{fill:#a67c52;}.cls-6{fill:#754c24;}.cls-8{fill:#a90;}.cls-9{fill:#8c6239;}.cls-10{fill:none;}</style></defs><g id="Layer_2" data-name="Layer 2"><g id="Layer_4" data-name="Layer 4"><path class="cls-1" d="M259.26,160.55c-8,62.37-56.62,106.2-109.64,106.2S47.07,222.92,37.77,160.55C26.74,86.61,74.75,15.81,147,15.81S268.76,86.61,259.26,160.55Z"/><path class="cls-2" d="M41.86,50.76C48.84,41.92,84.47-.78,145.19.27c45.44.79,75.83,26.07,85.38,34.26,10.45,9,26.13,22,36,45.38,7.78,18.45,7.75,33.89,7.67,63.15-.08,34.1-.12,50.1-8.59,59.63-9.51,10.7-18.06,6.81-60.84,21.86-25,8.8-26.07,11.77-41.25,15-7.43,1.6-28.09,5.88-50.23,2.67-27.71-4-72.49-22-93.17-63.64C-9.76,118.38,36.2,57.94,41.86,50.76Z"/></g><g id="Layer_3" data-name="Layer 3"><path class="cls-3" d="M72.32,513h-.1c-2-.12-3.62-.89-3.55-1.72l5.64-62.76c.11-1.16,2.16-2,4.56-1.81H79c2.4.16,4.25,1.24,4.12,2.39l-6.94,62.6C76.07,512.5,74.34,513.08,72.32,513Z"/><path class="cls-3" d="M234.91,513.22h-.11c-2,.14-3.81-.41-4-1.22l-14-61.78c-.26-1.14,1.47-2.24,3.85-2.44l.13,0c2.38-.2,4.52.57,4.75,1.7l12.68,62C238.43,512.28,236.92,513.07,234.91,513.22Z"/><path class="cls-3" d="M207.19,480.18l-1.26.09c-1.84.13-3.54-.35-3.77-1.07L188,436c-.3-.91,1.16-1.79,3.24-1.95l1.43-.11c2.08-.17,4,.45,4.29,1.36l13.19,43.4C210.37,479.36,209,480.05,207.19,480.18Z"/><path class="cls-3" d="M95.08,479.81l-1.1-.06c-1.91-.1-3.36-.79-3.24-1.53l7.76-46.7c.16-.95,2.07-1.63,4.24-1.5l1.26.08c2.17.14,3.79,1,3.61,2l-8.82,46.58C98.65,479.39,97,479.91,95.08,479.81Z"/></g><g id="Layer_5" data-name="Layer 5"><path class="cls-4" d="M130.77,475.1h-6.49c-5.37,0-10-1.74-10.22-3.9l-2.19-18.32c-.29-2.42,4.19-4.42,10-4.42h7c5.77,0,10.58,2,10.69,4.42l.83,18.32C140.44,473.36,136.13,475.1,130.77,475.1Z"/><path class="cls-4" d="M176.26,475.1h-6.5c-5.36,0-9.73-1.74-9.71-3.9l.19-18.32c0-2.42,4.77-4.42,10.53-4.42h7c5.77,0,10.32,2,10.11,4.42l-1.54,18.32C186.15,473.36,181.62,475.1,176.26,475.1Z"/><path class="cls-5" d="M250.78,458.14H48.21c-6.05,0-9.92-2.89-8.62-6.33l10.78-28.72c1-2.71,6.11-4.89,11.32-4.89H236.14c5.21,0,10.35,2.18,11.45,4.89l11.63,28.72C260.61,455.25,256.83,458.14,250.78,458.14Z"/><path class="cls-6" d="M253,461.22H46.77c-3.53,0-6.84-1.79-7.35-4l0-.06c-.52-2.22,2-4.05,5.58-4.05H254.61c3.59,0,6.14,1.83,5.69,4.05l0,.06C259.83,459.43,256.57,461.22,253,461.22Z"/><path class="cls-7" d="M132.72,479.86h-9.61c-5.29,0-9.83-1.7-10.09-3.8h0c-.26-2.12,3.94-3.88,9.35-3.88h9.83c5.4,0,9.9,1.76,10,3.88h0C142.27,478.16,138,479.86,132.72,479.86Z"/><path class="cls-7" d="M176,479.86h-9.61c-5.29,0-9.62-1.7-9.62-3.8h0c0-2.12,4.43-3.88,9.84-3.88h9.83c5.4,0,9.68,1.76,9.5,3.88h0C185.75,478.16,181.28,479.86,176,479.86Z"/></g><g id="Layer_7" data-name="Layer 7"><path class="cls-4" d="M200.48,444.75H103.33c-5.88,0-11.08-3.09-11.55-6.9l-2.5-20c-.52-4.18,4.19-7.64,10.46-7.64H203.41c6.28,0,11.05,3.46,10.61,7.64l-2.12,20C211.5,441.66,206.36,444.75,200.48,444.75Z"/><path class="cls-8" d="M197.64,416H104.69c-6.53,0-12.3-3.62-12.83-8.1l-13-110.08c-.77-6.57,5.21-12.05,13.31-12.05H207.45c8.1,0,14.19,5.48,13.55,12.05L210.3,407.89C209.86,412.37,204.17,416,197.64,416Z"/></g><g id="Layer_1-2" data-name="Layer 1"><path class="cls-9" d="M259.26,379.53h-222c-6.63,0-12.94-3.91-14-8.78L.77,271.86C-.77,265.1,4.5,259.48,12.5,259.48h268c8,0,13.44,5.62,12.1,12.38l-19.56,98.89C272.08,375.62,265.89,379.53,259.26,379.53Z"/><path class="cls-6" d="M258.37,384.53h-220c-6.57,0-12.82-3.85-13.91-8.62l-22-97C.86,272.26,6.09,266.75,14,266.75H279.22c7.92,0,13.31,5.51,12,12.13l-19.19,97C271.08,380.68,264.94,384.53,258.37,384.53Z"/><line class="cls-10" x1="12.07" y1="257.37" x2="12.07" y2="257.37"/><line class="cls-10" x1="1" y1="272.87" x2="1" y2="272.87"/></g><g id="Layer_2-2" data-name="Layer 2"><path class="cls-3" d="M93.74,460.15h-.09c-2.35,0-4.43-1.19-4.63-2.65L72.48,335.28c-.31-2.28,1.86-4.16,4.83-4.16h.11c3,0,5.6,1.88,5.87,4.16L97.71,457.5C97.88,459,96.1,460.15,93.74,460.15Z"/><path class="cls-3" d="M209.58,460.15h-.09c-2.35,0-4.16-1.19-4-2.65l11.64-119.72c.22-2.27,2.82-4.13,5.77-4.13H223c2.95,0,5.15,1.86,4.89,4.13L214.17,457.5C214,459,211.94,460.15,209.58,460.15Z"/><path class="cls-3" d="M220.45,341.93H80.33c-3.82,0-7.27-2.4-7.67-5.35h0c-.41-3,2.44-5.46,6.33-5.46H221.57c3.89,0,6.79,2.47,6.45,5.46h0C227.68,339.53,224.28,341.93,220.45,341.93Z"/></g></g></svg>