<svg width="294.55px" height="475.75px" xmlns="http://www.w3.org/2000/svg" viewBox="0 0 294.55 475.75">
	<defs>
		<style>
			.cls-1{fill:#ffdab9;}.cls-1,.cls-10,.cls-11,.cls-2,.cls-3,.cls-4,.cls-5,.cls-6,.cls-7,.cls-8,.cls-9{stroke:#000;stroke-miterlimit:10;}.cls-2{fill:#926627;stroke-width:0.5px;}.cls-3{fill:gray;}.cls-4{fill:#002c59;}.cls-5{fill:#a67c52;}.cls-6{fill:#754c24;}.cls-8{fill:#002d59;}.cls-9{fill:#009f59;}.cls-10{fill:#8c6239;}.cls-11{fill:none;}
		</style>
	</defs>
	<g id="Layer_2" data-name="Layer 2">
		<g id="Layer_4" data-name="Layer 4">
			<path class="cls-1" d="M254.52,126.59c-4.59,50.69-51.11,88.69-104.24,88.69s-99.48-38-103.85-88.69C41.66,71.13,88.15,22.18,150.71,22.18S259.54,71.13,254.52,126.59Z" />
			<path class="cls-2" d="M88,178.85s77.07,39.67,119.26,28.55l-7.5-22.93s38.86,34.05,55.47,33.52l-3.86-24.68s14.44,36.62,8.45,50.3c0,0,24.51-46.28,16-71.55-8.89-26.46-1-99.37-46.72-134.42C180.7.53,133.83-23.53,73,37.64c-55.43,55.78-37.7,146.83-37.7,146.83l6.06,64.12s8.36-7,13.47-58.58c0,0,6.11,22.18,4.73,38.37C59.6,228.38,77.13,212.19,88,178.85Z" />
		</g>
		<g id="Layer_3" data-name="Layer 3">
			<path class="cls-3" d="M54.43,474.89h-.12c-2.4-.14-4.23-1.1-4.06-2.14L62.44,398c.21-1.31,2.6-2.24,5.3-2.05h.13c2.7.18,4.72,1.4,4.49,2.71L59.12,473.27C58.94,474.31,56.82,475,54.43,474.89Z" />
			<path class="cls-3" d="M248,475.21h-.13c-2.38.18-4.55-.5-4.82-1.53L223.89,400c-.34-1.29,1.58-2.54,4.26-2.77h.15c2.68-.23,5.13.64,5.45,1.93L251.89,473C252.14,474,250.39,475,248,475.21Z" />
			<path class="cls-3" d="M213.92,442.92l-1.47.12c-2.13.17-4.11-.48-4.41-1.45L191,384.81c-.34-1.15,1.28-2.27,3.6-2.47l1.6-.15c2.33-.21,4.51.57,4.84,1.72l16.29,56.92C217.58,441.81,216.05,442.74,213.92,442.92Z" />
			<path class="cls-3" d="M83.67,442.41l-1.28-.08c-2.2-.14-3.84-1.07-3.64-2.08l12.11-61c.24-1.2,2.41-2,4.83-1.89l1.4.1c2.42.17,4.18,1.29,3.93,2.5l-13,60.92C87.84,441.85,85.87,442.55,83.67,442.41Z" />
		</g>
		<g id="Layer_5" data-name="Layer 5">
			<path class="cls-4" d="M125.31,436H117.8c-6.21,0-11.43-2.35-11.61-5.25l-1.52-24.22c-.2-3.14,5-5.73,11.52-5.73h7.92c6.54,0,11.93,2.59,12,5.73l.42,24.22C136.55,433.68,131.52,436,125.31,436Z" />
			<path class="cls-4" d="M178,436h-7.52c-6.2,0-11.24-2.35-11.19-5.25l.42-24.22c.05-3.14,5.44-5.73,12-5.73h7.92c6.53,0,11.72,2.59,11.52,5.73l-1.52,24.22C189.38,433.68,184.16,436,178,436Z" />
			<path class="cls-5" d="M262.82,409H32.09c-6.89,0-11-3.31-9.15-7.25l14.92-32.09c1.38-3,7.21-5.34,13-5.34H244c5.77,0,11.59,2.37,13,5.34L272,401.78C273.8,405.72,269.71,409,262.82,409Z" />
			<path class="cls-6" d="M265.6,412.59H30.15c-4,0-7.62-2.06-8-4.6v-.07c-.36-2.55,2.68-4.64,6.75-4.64H266.83c4.07,0,7.11,2.09,6.75,4.64V408C273.22,410.53,269.63,412.59,265.6,412.59Z" />
			<path class="cls-7" d="M127.4,442.48H116.23c-6.15,0-11.32-2.31-11.51-5.15h0c-.19-2.86,4.76-5.23,11-5.23h11.35c6.24,0,11.38,2.37,11.42,5.23h0C138.53,440.17,133.54,442.48,127.4,442.48Z" />
			<path class="cls-7" d="M177.66,442.48H166.49c-6.14,0-11.14-2.31-11.11-5.15h0c0-2.86,5.17-5.23,11.41-5.23h11.34c6.24,0,11.2,2.37,11,5.23h0C189,440.17,183.8,442.48,177.66,442.48Z" />
		</g>
		<g id="Layer_7" data-name="Layer 7">
			<path class="cls-8" d="M205.19,393.77H95.59C89,393.77,83.28,390.3,83,386l-1.56-22c-.32-4.53,5.07-8.27,12-8.27H207.58c6.91,0,12.28,3.74,11.94,8.27l-1.68,22C217.52,390.3,211.82,393.77,205.19,393.77Z" />
			<path class="cls-9" d="M201.35,362H98.57c-7.22,0-13.39-3.91-13.71-8.73L77.59,243.49c-.4-6.06,6-11.08,14.2-11.08H208.7c8.21,0,14.57,5,14.15,11.08l-7.76,109.73C214.75,358,208.57,362,201.35,362Z" />
		</g>
		<g id="Layer_1-2" data-name="Layer 1">
			<path class="cls-10" d="M267,323.39H27.64c-7.15,0-13.54-4-14.22-9L.58,219.84c-.82-6,5-11,13-11H280.94c8,0,13.85,5,13,11l-12.74,94.55C280.57,319.36,274.17,323.39,267,323.39Z" />
			<path class="cls-6" d="M266.4,328.57H28.28c-7.12,0-13.48-4-14.14-8.91l-12.7-93.5c-.81-6,5-10.88,13-10.88H280.16c7.94,0,13.77,4.92,13,10.88l-12.59,93.5C279.86,324.58,273.51,328.57,266.4,328.57Z" />
			<line class="cls-11" x1="13.37" y1="206.97" x2="13.37" y2="206.97" />
			<line class="cls-11" x1="0.7" y1="220.75" x2="0.7" y2="220.75" />
		</g>
		<g id="Layer_2-2" data-name="Layer 2">
			<path class="cls-3" d="M83.83,411.36h-.1c-2.68,0-5-1.38-5.11-3.06l-10-129.24c-.17-2.21,2.22-4,5.32-4h.11c3.1,0,5.75,1.82,5.9,4L88.51,408.3C88.62,410,86.52,411.36,83.83,411.36Z" />
			<path class="cls-3" d="M216,411.36h-.1c-2.68,0-4.78-1.38-4.66-3.06l9-126.81c.16-2.2,2.81-4,5.89-4h.12c3.09,0,5.46,1.81,5.28,4L221.09,408.3C221,410,218.65,411.36,216,411.36Z" />
			<path class="cls-3" d="M223.81,285.56H76.44c-4,0-7.49-2.35-7.72-5.24h0c-.22-2.9,2.92-5.29,7-5.29H224.59c4.07,0,7.2,2.39,7,5.29h0C231.31,283.21,227.83,285.56,223.81,285.56Z" />
		</g>
	</g>
</svg>
