<svg xmlns="http://www.w3.org/2000/svg" viewBox="0 0 280.85 491.75"><defs><style>.cls-1{fill:#ffdab9;}.cls-1,.cls-10,.cls-2,.cls-3,.cls-4,.cls-5,.cls-6,.cls-7,.cls-8,.cls-9{stroke:#000;stroke-miterlimit:10;}.cls-2{stroke-width:0.5px;}.cls-3{fill:gray;}.cls-4{fill:#741700;}.cls-5{fill:#a67c52;}.cls-6{fill:#754c24;}.cls-8{fill:#e99d06;}.cls-9{fill:#8c6239;}.cls-10{fill:none;}</style></defs><g id="Layer_2" data-name="Layer 2"><g id="Layer_4" data-name="Layer 4"><path class="cls-1" d="M244.73,138.18c-5.56,53.12-50.75,92.17-101.44,92.17s-95.67-39-101-92.17C36.4,78.68,81.53,24.94,143.82,24.94S251,78.68,244.73,138.18Z"/><path class="cls-2" d="M81.61,200.38s70.31,41.9,108.47,30.24l-6.63-24.25s34.83,35.91,49.82,35.36l-3-26s12.31,38.42,6.64,52.59c0,0,23.19-48.33,16.11-75.22-7.51-28.54,1.64-109.27-40.73-149.22C166.53.77,121.48-27.66,64.54,43.9c-50.3,63.23-30.75,162.47-30.75,162.47l7.46,67.1s7.28-7.2,10.47-61.22c0,0,6.13,23.4,5.3,40.32C57,252.57,72.44,235.65,81.61,200.38Z"/></g><g id="Layer_3" data-name="Layer 3"><path class="cls-3" d="M57.08,490.9H57c-2.15-.14-3.82-1.08-3.69-2.09l9.41-74.12c.17-1.32,2.34-2.26,4.82-2.07h.12c2.48.18,4.35,1.42,4.17,2.74l-10.54,74C61.12,490.34,59.24,491,57.08,490.9Z"/><path class="cls-3" d="M230.91,491.21h-.12c-2.15.18-4.08-.49-4.3-1.49l-15.86-73c-.28-1.3,1.5-2.57,4-2.8l.13,0c2.47-.23,4.7.65,5,2l14.77,73.23C234.65,490.07,233.05,491,230.91,491.21Z"/><path class="cls-3" d="M200.81,451.23l-1.33.11c-1.94.16-3.72-.44-4-1.33l-14.87-53c-.31-1.09,1.2-2.15,3.34-2.34l1.47-.14c2.15-.19,4.14.54,4.43,1.63l14,53.14C204.14,450.21,202.75,451.07,200.81,451.23Z"/><path class="cls-3" d="M82.84,450.76l-1.16-.07c-2-.13-3.49-1-3.33-1.91l10.13-57.07c.2-1.14,2.19-1.95,4.42-1.79l1.29.09c2.23.16,3.87,1.23,3.65,2.37l-11,56.94C86.61,450.25,84.84,450.89,82.84,450.76Z"/></g><g id="Layer_5" data-name="Layer 5"><path class="cls-4" d="M120.53,444.89h-6.82c-5.63,0-10.39-2.17-10.59-4.84l-1.63-22.54c-.22-2.94,4.5-5.37,10.49-5.37h7.25c6,0,10.93,2.43,11,5.37l.45,22.54C130.72,442.72,126.16,444.89,120.53,444.89Z"/><path class="cls-4" d="M168.29,444.89h-6.82c-5.63,0-10.2-2.17-10.14-4.84l.44-22.54c.06-2.94,5-5.37,11-5.37H170c6,0,10.7,2.43,10.49,5.37l-1.64,22.54C178.68,442.72,173.92,444.89,168.29,444.89Z"/><path class="cls-5" d="M246.24,419.88H35c-6.31,0-10.14-3.11-8.56-6.81l13-30.42c1.22-2.84,6.55-5.11,11.88-5.11H229.86c5.33,0,10.67,2.27,11.88,5.11l13,30.42C256.37,416.77,252.54,419.88,246.24,419.88Z"/><path class="cls-6" d="M248.71,423.22H33.29c-3.69,0-7-1.94-7.4-4.31l0-.07c-.38-2.4,2.35-4.37,6.08-4.37H250c3.73,0,6.47,2,6.08,4.37v.07C255.72,421.28,252.39,423.22,248.71,423.22Z"/><path class="cls-7" d="M122.45,450.83H112.33c-5.56,0-10.27-2.12-10.47-4.74h0c-.2-2.64,4.27-4.82,9.94-4.82h10.3c5.67,0,10.35,2.18,10.39,4.82h0C132.53,448.71,128,450.83,122.45,450.83Z"/><path class="cls-7" d="M168,450.83H157.86c-5.57,0-10.09-2.12-10.06-4.74h0c0-2.64,4.71-4.82,10.37-4.82h10.31c5.67,0,10.15,2.18,10,4.82h0C178.25,448.71,173.54,450.83,168,450.83Z"/></g><g id="Layer_7" data-name="Layer 7"><path class="cls-4" d="M193.64,405.51H93c-6.1,0-11.36-3.28-11.69-7.34l-1.71-21c-.36-4.34,4.59-7.92,11-7.92H196.28c6.4,0,11.32,3.58,10.93,7.92l-1.84,21C205,402.23,199.73,405.51,193.64,405.51Z"/><path class="cls-8" d="M190.44,375.25h-95c-6.68,0-12.43-3.75-12.78-8.38L74.35,258.93c-.47-6.11,5.53-11.18,13.34-11.18H198.81c7.8,0,13.78,5.07,13.28,11.18l-8.83,107.94C202.88,371.5,197.11,375.25,190.44,375.25Z"/></g><g id="Layer_1-2" data-name="Layer 1"><path class="cls-9" d="M252.07,338H28.92c-6.67,0-12.74-3.92-13.5-8.77L.61,235c-1-6.14,4.48-11.23,12.1-11.23H268.12c7.63,0,13.08,5.09,12.12,11.23l-14.69,94.26C264.8,334.1,258.73,338,252.07,338Z"/><path class="cls-6" d="M251.36,343.05H29.63c-6.62,0-12.65-3.87-13.4-8.66l-14.61-93c-.95-6.06,4.46-11.07,12-11.07H267.2c7.57,0,13,5,12,11.07l-14.49,93C264,339.18,258,343.05,251.36,343.05Z"/><line class="cls-10" x1="12.45" y1="221.86" x2="12.45" y2="221.86"/><line class="cls-10" x1="0.76" y1="235.92" x2="0.76" y2="235.92"/></g><g id="Layer_2-2" data-name="Layer 2"><path class="cls-3" d="M82.39,422.06H82.3c-2.46,0-4.58-1.28-4.72-2.87L66.42,294.48c-.19-2.2,2-4,4.94-4h.11c2.92,0,5.44,1.81,5.61,4l9.56,124.71C86.76,420.78,84.85,422.06,82.39,422.06Z"/><path class="cls-3" d="M203.31,422.06h-.1c-2.45,0-4.36-1.28-4.23-2.87l10-122.3c.18-2.19,2.71-4,5.61-4h.11c2.91,0,5.11,1.79,4.91,4L208,419.19C207.89,420.78,205.76,422.06,203.31,422.06Z"/><path class="cls-3" d="M212.35,300.91H73.87c-3.78,0-7.08-2.32-7.34-5.18h0c-.25-2.88,2.67-5.26,6.49-5.26H213.25c3.83,0,6.74,2.38,6.47,5.26h0C219.45,298.59,216.13,300.91,212.35,300.91Z"/></g></g></svg>