<svg width="36.01px" height="90.44px" xmlns="http://www.w3.org/2000/svg" viewBox="0 0 36.01 90.44">
	<defs>
		<style>
			.cls-1,.cls-3{fill:#231f20;}.cls-2{fill:#e2bb8e;}.cls-3{stroke:#231f20;}.cls-3,.cls-6,.cls-7{stroke-miterlimit:10;}.cls-4{fill:#544017;}.cls-5{fill:#2a180c;}.cls-6{fill:none;stroke:#594a42;stroke-width:0.75px;}.cls-7{fill:#ba2027;stroke:#be1e2d;stroke-width:0.25px;}
		</style>
	</defs>
	<g id="Layer_2" data-name="Layer 2">
		<g id="Layer_1-2" data-name="Layer 1">
			<path class="cls-1" d="M8.73,85.77a2.07,2.07,0,0,1-1.13.83c-.87.25-1.58.7-1.41,1.5.41,1.86,1.43,2.47,4.66,2.2,1.6-.13,1.39-.16,2.38-.28a2.22,2.22,0,0,0,1.86-1.93l.3-2Z" />
			<path class="cls-1" d="M28.54,86.68a2.2,2.2,0,0,1-1.44-1.49l-6.33,1,.29,2a2.2,2.2,0,0,0,1.85,1.93c1,.12.78.15,2.38.28,3.24.27,4.25-.34,4.66-2.2C30.13,87.38,29.41,86.93,28.54,86.68Z" />
			<path class="cls-2" d="M28.29,63.67C18.2,66,8,63.32,8,63.32c0,.83-.05,1.61-.06,2.32a6.71,6.71,0,0,0,0,.78l1.13,18a2.2,2.2,0,0,1-.4,1.39l6.66.27L18,67.61h.09l2.68,18.58,6.33-1a2,2,0,0,1-.08-.73l1.22-18.08c0-.26,0-.4,0-.71" />
			<path class="cls-1" d="M28.7,71C28.36,59.2,27.36,38.1,27.36,38.1l-18.67.24S7.21,58.68,6.84,70.57C6.86,70.57,17.75,74.05,28.7,71Z" />
			<path class="cls-2" d="M35.35,23.11A17.58,17.58,0,1,1,17.77,5.53,17.58,17.58,0,0,1,35.35,23.11Z" />
			<rect class="cls-3" x="10.24" y="29.04" width="4.36" height="5.81" rx="2.18" />
			<rect class="cls-3" x="20.41" y="29.04" width="4.36" height="5.81" rx="2.18" />
			<path class="cls-4" d="M7,54,5.26,72.89s12.27,4.21,25,0L28,54Z" />
			<path class="cls-2" d="M31.91,61.54c.5-3.49,2.74-21.53-4.74-24-.32-.1-.63.2-.63.61.06,3.55.28,18.31.35,22.88a4.81,4.81,0,0,0,1,3c.9,1.1,2.31,1.82,3.72-1.42A4.39,4.39,0,0,0,31.91,61.54Z" />
			<path class="cls-2" d="M2.06,61.6C1.7,58.09.24,40,8.34,37.89a.56.56,0,0,1,.64.64C8.74,42.07,7.75,56.8,7.44,61.37a4.72,4.72,0,0,1-1.22,2.94c-1,1-2.57,1.71-3.9-1.6A4.09,4.09,0,0,1,2.06,61.6Z" />
			<ellipse class="cls-5" cx="23.81" cy="7.62" rx="3.53" ry="3.12" />
			<circle class="cls-1" cx="24.1" cy="4.94" r="4.94" />
			<polygon class="cls-1" points="27.18 85.19 27.72 75.31 19.49 76.76 20.86 86.19 27.18 85.19" />
			<polygon class="cls-1" points="15.33 86.12 16.62 77.17 8.53 75.87 8.67 85.85 15.33 86.12" />
			<circle class="cls-1" cx="15.41" cy="48.86" r="1.4" />
			<ellipse class="cls-6" cx="12.29" cy="32.19" rx="5.45" ry="5.05" />
			<ellipse class="cls-6" cx="24.1" cy="32.19" rx="5.45" ry="5.05" />
			<line class="cls-6" x1="6.55" y1="31.62" x2="1.15" y2="29.63" />
			<line class="cls-6" x1="17.72" y1="32.56" x2="18.66" y2="32.59" />
			<line class="cls-6" x1="29.55" y1="32.19" x2="34.04" y2="30.63" />
			<path class="cls-1" d="M11.94,21.47s11,10.2,22.67,10.47c0,0,3.62-8.51-.79-17A19.32,19.32,0,0,0,18.23,4.55c-2.87,0-7.82-.95-14.07,6.14S.55,31.94.55,31.94,11.94,23.94,11.94,21.47Z" />
			<ellipse class="cls-7" cx="17.65" cy="38.23" rx="0.84" ry="0.68" />
		</g>
	</g>
</svg>
