<svg width="37.65px" height="85.94" xmlns="http://www.w3.org/2000/svg" viewBox="0 0 37.65 85.94">
	<defs>
		<style>
			.cls-1,.cls-8{fill:#231f20;}.cls-2{fill:#7f6a4a;}.cls-3{fill:#81d2e7;}.cls-4{fill:#aba3b3;}.cls-5{fill:#233957;}.cls-6{fill:#291c47;}.cls-7{fill:#e2bb8e;}.cls-8{stroke:#231f20;stroke-miterlimit:10;}
		</style>
	</defs>
	<g id="Layer_2" data-name="Layer 2">
		<g id="Layer_1-2" data-name="Layer 1">
			<path class="cls-1" d="M9.59,81.27a2,2,0,0,1-1.12.83c-.87.25-1.59.7-1.41,1.5.41,1.86,1.42,2.47,4.65,2.2,1.61-.13,1.39-.15,2.39-.28A2.2,2.2,0,0,0,16,83.59l.3-2Z" />
			<path class="cls-1" d="M29.41,82.18A2.19,2.19,0,0,1,28,80.69l-6.33,1,.29,2a2.22,2.22,0,0,0,1.86,1.93c1,.12.78.15,2.38.28,3.23.27,4.24-.34,4.66-2.2C31,82.88,30.28,82.43,29.41,82.18Z" />
			<path id="part_hair" data-name="part hair" class="cls-2" d="M35.24,36.75s5-13.88.6-22.33S21.44,2.13,18.63,2.1,9.81,5.1,3.56,12.19,1.18,36.75,1.18,36.75,23.58,36.48,35.24,36.75Z" />
			<path id="part_hair-2" data-name="part hair" class="cls-3" d="M34.2,36.75s4.6-12.23.53-20S21.44,4.77,18.86,4.75,10.7,7.52,4.94,14.06s-2.2,22.69-2.2,22.69S23.42,36.5,34.2,36.75Z" />
			<path class="cls-4" d="M13.35,62c.18-9.61.68-26.75.68-26.75l9.42.2s.75,16.52.93,26.18C24.37,61.64,18.88,64.47,13.35,62Z" />
			<polygon id="pant" class="cls-5" points="28.01 81.27 28.58 59.27 20.36 62.27 21.72 81.69 28.01 81.27" />
			<polygon id="pant-2" data-name="pant" class="cls-5" points="16.19 81.62 17.48 62.11 9.39 59.27 9.6 81.62 16.19 81.62" />
			<path id="coat" class="cls-6" d="M18.89,62.46c0-3.31-.89-10.87-.89-10.87l3.35-18,7.29.2s.58,17.51.73,27.75C29.36,61.54,23.16,65.07,18.89,62.46Z" />
			<path id="coat-2" data-name="coat" class="cls-6" d="M19.23,62.43c0-3-.56-10.78-.56-10.78l-3-18-7.29.21s-.58,17.51-.72,27.75C7.71,61.56,15,65,19.23,62.43Z" />
			<path id="arm" class="cls-7" d="M2.92,57.1C2.56,53.59,1.1,35.47,9.2,33.39a.56.56,0,0,1,.64.64C9.6,37.57,8.61,52.3,8.3,56.87a2.38,2.38,0,0,1-.42,1.57c-1.58,3.18-3.36,3.08-4.7-.23A4.09,4.09,0,0,1,2.92,57.1Z" />
			<path id="arm-2" data-name="arm" class="cls-7" d="M34.13,57.1c.37-3.51,1.83-21.63-6.28-23.71a.55.55,0,0,0-.63.64c.24,3.54,1.23,18.27,1.53,22.84a2.38,2.38,0,0,0,.43,1.57c1.57,3.18,3.36,3.08,4.69-.23A4.09,4.09,0,0,0,34.13,57.1Z" />
			<path id="sleeve" class="cls-6" d="M34.13,57.33c.37-3.55,1.84-21.84-6.34-23.94a.56.56,0,0,0-.64.64L28.7,57.09h0s3.82,4.69,5.17,1.36A4.16,4.16,0,0,0,34.13,57.33Z" />
			<path id="sleeve-2" data-name="sleeve" class="cls-6" d="M3,57.32c-.37-3.57-1.84-22,6.34-24.1a.56.56,0,0,1,.64.65L8.43,57.08h0S4.61,61.8,3.26,58.44A4.25,4.25,0,0,1,3,57.32Z" />
			<path class="cls-7" d="M36.21,18.61A17.58,17.58,0,1,1,18.63,1,17.58,17.58,0,0,1,36.21,18.61Z" />
			<rect id="eye" class="cls-8" x="11.1" y="24.54" width="4.36" height="5.81" rx="2.18" />
			<rect id="eye-2" data-name="eye" class="cls-8" x="21.27" y="24.54" width="4.36" height="5.81" rx="2.18" />
			<path id="part_hair-3" data-name="part hair" class="cls-2" d="M17.65,15.85s6.16,11.32,17.82,11.59c0,0,3.62-8.51-.79-17A19.34,19.34,0,0,0,19.1.05C16.22,0,11.27-.9,5,6.19S1.42,27.44,1.42,27.44,17.65,18.32,17.65,15.85Z" />
			<polygon class="cls-2" points="3.96 36.68 4.17 30.07 4.74 36.74 3.96 36.68" />
		</g>
	</g>
</svg>
