<svg width="1440" height="792" xmlns="http://www.w3.org/2000/svg" viewBox="0 0 1440 792">
	<defs>
		<style>
			.a{fill:#1e3d15;}.b{fill:#5c5e5b;}.c{fill:#936627;}.d{fill:#2a6002;}.e{fill:#d3cdb6;}.f{fill:#e2b774;}.g{fill:#f9eec0;}.h{fill:#b5afa7;}.i{fill:#aa0e00;stroke:#d40c00;stroke-width:0.6178px;}.ab,.ac,.al,.ap,.at,.au,.av,.aw,.ax,.bd,.bq,.br,.bz,.i,.r,.u{stroke-miterlimit:10;}.j{fill:#a9c4b4;}.k{fill:#a7d3b9;}.l{fill:#95b7a2;}.m{fill:#b5b5b5;}.n{fill:#d3d3d3;}.o{fill:#efefef;}.p{fill:#659cb7;}.q{fill:#118941;}.r{fill:#95ddf9;}.ab,.ac,.al,.r{stroke:#fff;}.s{fill:#fff;}.t{fill:#5085a5;}.ab,.ac,.ap,.bq,.u{fill:none;}.ap,.u{stroke:#557bb7;}.v{fill:#777;}.w{fill:#fffe3f;}.x{fill:#d7ba82;}.y{fill:#b0c8d1;}.z{fill:#eae5e1;}.aa{fill:#edd5a9;}.ab{stroke-width:1.0377px;}.ad{fill:#c8bdab;}.ae{fill:#9e9e9e;}.af{fill:#f8edbf;}.ag{fill:#b4aea6;}.ah{fill:#659bb6;}.ai{fill:#138844;}.aj{fill:#e1b673;}.ak{fill:#d2ccb5;}.al{fill:#96d9f6;}.am{fill:#5084a4;}.an{fill:#787878;}.ao{fill:#f7ec46;}.ap{stroke-width:1.0541px;}.aq{fill:#bf9966;}.ar{fill:#ff685f;}.as{fill:#ffbe5f;}.at{fill:#ffc08a;}.at,.au,.av,.aw,.ax{stroke:#f7931e;}.at,.au,.av,.aw,.ax,.br{stroke-width:0.25px;}.au{fill:#4800e9;}.av{fill:#009f04;}.aw{fill:#df0032;}.ax{fill:#bf7600;}.ay{fill:#977a4e;}.az{fill:#6e5220;}.ba{fill:#e6b98c;}.bb,.bd{fill:#231f20;}.bc{fill:#f1f1f2;}.bd{stroke:#231f20;}.be{fill:#be1e2d;}.bf{fill:#e2e2e1;}.bg{fill:#bf8e51;}.bh{fill:#404041;}.bi{fill:#ffe584;}.bj{fill:#95cc80;}.bk{fill:#eac08b;}.bl{fill:#f6fafd;opacity:0.54;}.bm{fill:#252669;}.bn{fill:#e1ba8d;}.bo{fill:#544017;}.bp{fill:#29170c;}.bq{stroke:#5a4a42;stroke-width:0.75px;}.br{fill:#ba2027;stroke:#be1e2d;}.bs{fill:#afc7d0;}.bt{fill:#eee2db;}.bu{fill:#4c3f18;}.bv{fill:#ddc224;}.bw{fill:#f0b3cf;}.bx{fill:#80b289;}.by{fill:#e7c39e;}.bz{fill:#20a961;stroke:#1caa60;}
		</style>
	</defs>
	<rect class="a" width="1440" height="792" />
	<rect class="b" x="266.5652" y="32" width="944.3478" height="362" />
	<path class="c" d="M275.3092,94.9565h54.2126a0,0,0,0,1,0,0V551.3913a0,0,0,0,1,0,0H235.087a0,0,0,0,1,0,0V135.1787A40.2222,40.2222,0,0,1,275.3092,94.9565Z" />
	<polygon class="d" points="282.304 425.478 250.826 456.957 313.783 456.957 282.304 425.478" />
	<polygon class="d" points="282.304 441.217 250.826 472.696 313.783 472.696 282.304 441.217" />
	<polygon class="d" points="282.304 456.957 250.826 488.435 313.783 488.435 282.304 456.957" />
	<polygon class="d" points="282.304 472.696 250.826 504.174 313.783 504.174 282.304 472.696" />
	<polygon class="d" points="282.304 488.435 250.826 519.913 313.783 519.913 282.304 488.435" />
	<polygon class="d" points="282.304 315.304 250.826 346.783 313.783 346.783 282.304 315.304" />
	<polygon class="d" points="282.304 331.043 250.826 362.522 313.783 362.522 282.304 331.043" />
	<polygon class="d" points="282.304 346.783 250.826 378.261 313.783 378.261 282.304 346.783" />
	<polygon class="d" points="282.304 362.522 250.826 394 313.783 394 282.304 362.522" />
	<polygon class="d" points="282.304 378.261 250.826 409.739 313.783 409.739 282.304 378.261" />
	<polygon class="d" points="282.304 205.13 250.826 236.609 313.783 236.609 282.304 205.13" />
	<polygon class="d" points="282.304 220.87 250.826 252.348 313.783 252.348 282.304 220.87" />
	<polygon class="d" points="282.304 236.609 250.826 268.087 313.783 268.087 282.304 236.609" />
	<polygon class="d" points="282.304 252.348 250.826 283.826 313.783 283.826 282.304 252.348" />
	<polygon class="d" points="282.304 268.087 250.826 299.565 313.783 299.565 282.304 268.087" />
	<polygon class="d" points="282.304 94.957 250.826 126.435 313.783 126.435 282.304 94.957" />
	<polygon class="d" points="282.304 110.696 250.826 142.174 313.783 142.174 282.304 110.696" />
	<polygon class="d" points="282.304 126.435 250.826 157.913 313.783 157.913 282.304 126.435" />
	<polygon class="d" points="282.304 142.174 250.826 173.652 313.783 173.652 282.304 142.174" />
	<polygon class="d" points="282.304 157.913 250.826 189.391 313.783 189.391 282.304 157.913" />
	<rect class="e" x="345.2609" y="624.8406" width="472.1739" height="5.2464" />
	<rect class="f" x="817.4348" y="94.9565" width="377.7391" height="15.7391" />
	<rect class="g" x="817.4348" y="110.6957" width="377.7391" height="62.9565" />
	<rect class="e" x="345.2609" y="168.4058" width="849.913" height="5.2464" />
	<rect class="h" x="329.5217" y="94.9565" width="487.913" height="15.7391" />
	<rect class="i" x="802.57" y="253.2222" width="15.7391" height="31.4783" />
	<rect class="j" x="1021.1691" y="188.5169" width="15.7391" height="31.4783" />
	<rect class="g" x="817.4348" y="394" width="220.3478" height="62.9565" />
	<rect class="e" x="817.4348" y="451.7101" width="220.3478" height="5.2464" />
	<rect class="f" x="817.6801" y="378.2609" width="204.3634" height="15.7391" />
	<rect class="f" x="888.2609" y="244.4783" width="283.3043" height="15.7391" transform="translate(1282.2609 -777.5652) rotate(90)" />
	<rect class="j" x="974.8261" y="409.7391" width="31.4783" height="47.2174" />
	<polygon class="k" points="1006.304 409.739 1005.36 410.683 974.826 410.683 974.826 409.739 1006.304 409.739" />
	<polygon class="l" points="975.77 456.012 974.826 456.957 1006.304 456.957 1006.304 456.012 975.77 456.012" />
	<polygon class="m" points="1002.527 432.718 1002.077 435.866 1000.131 435.866 1000.728 432.718 1002.527 432.718" />
	<path class="n" d="M1002.0773,434.0673H996.681a.8994.8994,0,0,0-.8994.8994h0a.8994.8994,0,0,0,.8994.8994h5.3963Z" />
	<polygon class="m" points="1002.077 434.067 996.681 435.866 1002.077 435.866 1002.077 434.067" />
	<rect class="o" x="345.2609" y="110.6957" width="456.4348" height="62.9565" />
	<polygon class="p" points="376.739 126.435 376.739 142.174 392.478 157.913 408.217 142.174 408.217 126.435 376.739 126.435" />
	<polygon class="q" points="423.957 126.435 423.957 142.174 439.696 157.913 455.435 142.174 455.435 126.435 423.957 126.435" />
	<polygon class="p" points="471.174 126.435 471.174 142.174 486.913 157.913 502.652 142.174 502.652 126.435 471.174 126.435" />
	<polygon class="p" points="738.739 126.435 738.739 142.174 754.478 157.913 770.217 142.174 770.217 126.435 738.739 126.435" />
	<polygon class="q" points="691.522 126.435 691.522 142.174 707.261 157.913 723 142.174 723 126.435 691.522 126.435" />
	<polygon class="p" points="644.304 126.435 644.304 142.174 660.043 157.913 675.783 142.174 675.783 126.435 644.304 126.435" />
	<rect class="f" x="801.6957" y="236.6087" width="220.3478" height="15.7391" />
	<rect class="h" x="754.6009" y="142.2966" width="110.0512" height="15.6165" transform="translate(959.7314 -659.5217) rotate(90)" />
	<rect class="i" x="801.6957" y="205.1304" width="15.7391" height="31.4783" />
	<rect class="g" x="817.4348" y="252.3478" width="204.6087" height="62.9565" />
	<rect class="e" x="817.4348" y="310.058" width="204.6087" height="5.2464" />
	<rect class="r" x="1038.657" y="127.3092" width="31.4783" height="31.4783" />
	<path class="s" d="M1055.895,138.7951c.66-.4389.7858,1.3647.7861,1.5244a5.04,5.04,0,0,1-.3482,1.7947c-.1686.4529.556.6485.7232.1994a4.7368,4.7368,0,0,0,.1472-3.389c-.2935-.6463-.9929-1.2387-1.6869-.7771-.4.2661-.0248.9159.3786.6476Z" />
	<path class="s" d="M1060.15,132.17a6.9312,6.9312,0,0,1,1.91,6.1322c-.0833.472.6393.6746.7232.1994a7.7285,7.7285,0,0,0-2.103-6.8619c-.3379-.3459-.868.1847-.53.53Z" />
	<rect class="g" x="345.2609" y="567.1304" width="472.1739" height="62.9565" />
	<rect class="i" x="771.0918" y="581.9952" width="31.4783" height="47.2174" />
	<rect class="i" x="737.8647" y="581.9952" width="31.4783" height="47.2174" />
	<rect class="h" x="668.1854" y="417.3364" width="282.7597" height="15.7391" transform="translate(1234.7712 -384.3593) rotate(90)" />
	<rect class="h" x="345.2609" y="551.3913" width="472.1739" height="15.7391" />
	<rect class="t" x="345.2609" y="582.8696" width="377.7391" height="62.9565" />
	<rect class="p" x="345.2609" y="582.8696" width="377.7391" height="15.7391" />
	<line class="u" x1="361" y1="598.6087" x2="361" y2="645.8261" />
	<line class="u" x1="708.1353" y1="598.6087" x2="708.1353" y2="645.8261" />
	<line class="u" x1="692.3961" y1="598.6087" x2="692.3961" y2="645.8261" />
	<line class="u" x1="676.657" y1="598.6087" x2="676.657" y2="645.8261" />
	<line class="u" x1="660.9179" y1="598.6087" x2="660.9179" y2="645.8261" />
	<line class="u" x1="377.6135" y1="598.6087" x2="377.6135" y2="645.8261" />
	<line class="u" x1="393.3527" y1="598.6087" x2="393.3527" y2="645.8261" />
	<line class="u" x1="643.43" y1="598.6087" x2="643.43" y2="645.8261" />
	<line class="u" x1="627.6908" y1="598.6087" x2="627.6908" y2="645.8261" />
	<line class="u" x1="611.9517" y1="598.6087" x2="611.9517" y2="645.8261" />
	<line class="u" x1="596.2126" y1="598.6087" x2="596.2126" y2="645.8261" />
	<line class="u" x1="580.4734" y1="598.6087" x2="580.4734" y2="645.8261" />
	<line class="u" x1="564.7343" y1="598.6087" x2="564.7343" y2="645.8261" />
	<line class="u" x1="548.9952" y1="598.6087" x2="548.9952" y2="645.8261" />
	<line class="u" x1="533.256" y1="598.6087" x2="533.256" y2="645.8261" />
	<line class="u" x1="517.5169" y1="598.6087" x2="517.5169" y2="645.8261" />
	<line class="u" x1="501.7778" y1="598.6087" x2="501.7778" y2="645.8261" />
	<line class="u" x1="486.0386" y1="598.6087" x2="486.0386" y2="645.8261" />
	<line class="u" x1="470.2995" y1="598.6087" x2="470.2995" y2="645.8261" />
	<line class="u" x1="454.5604" y1="598.6087" x2="454.5604" y2="645.8261" />
	<line class="u" x1="438.8213" y1="598.6087" x2="438.8213" y2="645.8261" />
	<line class="u" x1="423.0821" y1="598.6087" x2="423.0821" y2="645.8261" />
	<line class="u" x1="407.343" y1="598.6087" x2="407.343" y2="645.8261" />
	<rect class="h" x="101.3043" y="323.1739" width="472.1739" height="15.7391" transform="translate(668.4348 -6.3478) rotate(90)" />
	<rect class="f" x="140.6522" y="645.8261" width="204.6087" height="15.7391" transform="translate(896.6522 410.7391) rotate(90)" />
	<rect class="f" x="236.8357" y="551.3913" width="92.686" height="15.7391" />
	<rect class="f" x="274.4348" y="622.2174" width="125.913" height="15.7391" transform="translate(967.4783 292.6957) rotate(90)" />
	<rect class="g" x="250.8261" y="567.1304" width="78.6957" height="62.9565" />
	<rect class="e" x="250.8261" y="624.8406" width="78.6957" height="5.2464" />
	<rect class="v" x="250.8261" y="582.8696" width="78.6957" height="15.7391" />
	<rect class="v" x="250.8261" y="614.3478" width="78.6957" height="15.7391" />
	<rect class="w" x="256.0725" y="605.6039" width="15.7391" height="15.7391" rx="3.4504" transform="translate(-26.7823 12.2294) rotate(-2.5261)" />
	<rect class="x" x="345.2609" y="170.1546" width="456.4348" height="377.7391" />
	<rect class="y" x="345.2609" y="441.2174" width="393.4783" height="110.1739" />
	<rect class="z" x="817.4348" y="252.3478" width="204.6087" height="125.913" />
	<rect class="z" x="817.4348" y="173.6522" width="204.6087" height="62.9565" />
	<rect class="aa" x="361" y="535.6522" width="173.1304" height="15.7391" />
	<rect class="aa" x="549.8696" y="535.6522" width="173.1304" height="15.7391" />
	<rect class="aa" x="549.8696" y="504.1739" width="173.1304" height="15.7391" />
	<rect class="aa" x="549.8696" y="472.6957" width="173.1304" height="15.7391" />
	<rect class="aa" x="361" y="504.1739" width="173.1304" height="15.7391" />
	<rect class="aa" x="361" y="472.6957" width="173.1304" height="15.7391" />
	<rect class="aa" x="361" y="441.2174" width="173.1304" height="15.7391" />
	<rect class="aa" x="549.8696" y="441.2174" width="173.1304" height="15.7391" />
	<rect class="ab" x="376.7391" y="189.3913" width="393.4783" height="220.3478" />
	<line class="ac" x1="376.7391" y1="299.5652" x2="770.2174" y2="299.5652" />
	<line class="ab" x1="582.2222" y1="189.3913" x2="582.2222" y2="409.7391" />
	<polygon class="ad" points="1193.425 455.208 1193.425 171.903 1036.034 171.903 1036.034 455.208 815.686 455.208 815.686 628.338 343.512 628.338 343.512 738.512 1020.295 738.512 1020.295 644.077 1193.425 644.077 1193.425 565.382 1193.425 455.208" />
	<rect class="ad" x="250.8261" y="630.087" width="78.6957" height="110.1739" />
	<rect class="z" x="974.8261" y="378.2609" width="31.4783" height="78.6957" />
	<rect class="x" x="738.7391" y="551.3913" width="62.9565" height="78.6957" />
	<rect class="z" x="801.6957" y="315.3043" width="15.7391" height="31.4783" />
	<rect class="z" x="801.6957" y="205.1304" width="15.7391" height="31.4783" />
	<rect class="z" x="1022.0435" y="189.3913" width="15.7391" height="31.4783" />
	<rect class="ae" x="1005.0259" y="362.5217" width="1.2785" height="5.4818" transform="translate(2011.3302 730.5253) rotate(180)" />
	<rect class="ae" x="860.3773" y="362.5217" width="1.2785" height="5.4818" transform="translate(1722.0332 730.5253) rotate(180)" />
	<rect class="af" x="345.2609" y="567.1304" width="393.4783" height="62.9565" />
	<rect class="af" x="801.6957" y="567.1304" width="15.7391" height="62.9565" />
	<rect class="ag" x="329.5217" y="94.9565" width="487.913" height="15.7391" />
	<polygon class="ah" points="376.739 126.435 376.739 142.174 392.478 157.913 408.217 142.174 408.217 126.435 376.739 126.435" />
	<polygon class="ai" points="423.957 126.435 423.957 142.174 439.696 157.913 455.435 142.174 455.435 126.435 423.957 126.435" />
	<polygon class="ah" points="471.174 126.435 471.174 142.174 486.913 157.913 502.652 142.174 502.652 126.435 471.174 126.435" />
	<polygon class="ah" points="738.739 126.435 738.739 142.174 754.478 157.913 770.217 142.174 770.217 126.435 738.739 126.435" />
	<polygon class="ai" points="691.522 126.435 691.522 142.174 707.261 157.913 723 142.174 723 126.435 691.522 126.435" />
	<polygon class="ah" points="644.304 126.435 644.304 142.174 660.043 157.913 675.783 142.174 675.783 126.435 644.304 126.435" />
	<rect class="aj" x="801.6957" y="236.6087" width="220.3478" height="15.7391" />
	<rect class="ag" x="801.6957" y="95.0792" width="15.7391" height="110.0513" />
	<rect class="af" x="817.4348" y="252.3478" width="204.6087" height="62.9565" />
	<rect class="ak" x="817.4348" y="310.058" width="204.6087" height="5.2464" />
	<rect class="al" x="1038.657" y="127.3092" width="31.4783" height="31.4783" />
	<path class="s" d="M1055.895,138.7951c.66-.4389.7858,1.3647.7861,1.5244a5.04,5.04,0,0,1-.3482,1.7947c-.1686.4529.556.6485.7232.1994a4.7368,4.7368,0,0,0,.1472-3.389c-.2935-.6463-.9929-1.2387-1.6869-.7771-.4.2661-.0248.9159.3786.6476Z" />
	<path class="s" d="M1060.15,132.17a6.9312,6.9312,0,0,1,1.91,6.1322c-.0833.472.6393.6746.7232.1994a7.7285,7.7285,0,0,0-2.103-6.8619c-.3379-.3459-.868.1847-.53.53Z" />
	<rect class="ak" x="345.2609" y="624.8406" width="393.4783" height="5.2464" />
	<rect class="ak" x="801.6957" y="624.8406" width="15.7391" height="5.2464" />
	<rect class="am" x="345.2609" y="582.8696" width="377.7391" height="62.9565" />
	<rect class="ah" x="345.2609" y="582.8696" width="377.7391" height="15.7391" />
	<line class="u" x1="361" y1="598.6087" x2="361" y2="645.8261" />
	<line class="u" x1="708.1353" y1="598.6087" x2="708.1353" y2="645.8261" />
	<line class="u" x1="692.3961" y1="598.6087" x2="692.3961" y2="645.8261" />
	<line class="u" x1="676.657" y1="598.6087" x2="676.657" y2="645.8261" />
	<line class="u" x1="660.9179" y1="598.6087" x2="660.9179" y2="645.8261" />
	<line class="u" x1="377.6135" y1="598.6087" x2="377.6135" y2="645.8261" />
	<line class="u" x1="393.3527" y1="598.6087" x2="393.3527" y2="645.8261" />
	<line class="u" x1="643.43" y1="598.6087" x2="643.43" y2="645.8261" />
	<line class="u" x1="627.6908" y1="598.6087" x2="627.6908" y2="645.8261" />
	<line class="u" x1="611.9517" y1="598.6087" x2="611.9517" y2="645.8261" />
	<line class="u" x1="596.2126" y1="598.6087" x2="596.2126" y2="645.8261" />
	<line class="u" x1="580.4734" y1="598.6087" x2="580.4734" y2="645.8261" />
	<line class="u" x1="564.7343" y1="598.6087" x2="564.7343" y2="645.8261" />
	<line class="u" x1="548.9952" y1="598.6087" x2="548.9952" y2="645.8261" />
	<line class="u" x1="533.256" y1="598.6087" x2="533.256" y2="645.8261" />
	<line class="u" x1="517.5169" y1="598.6087" x2="517.5169" y2="645.8261" />
	<line class="u" x1="501.7778" y1="598.6087" x2="501.7778" y2="645.8261" />
	<line class="u" x1="486.0386" y1="598.6087" x2="486.0386" y2="645.8261" />
	<line class="u" x1="470.2995" y1="598.6087" x2="470.2995" y2="645.8261" />
	<line class="u" x1="454.5604" y1="598.6087" x2="454.5604" y2="645.8261" />
	<line class="u" x1="438.8213" y1="598.6087" x2="438.8213" y2="645.8261" />
	<line class="u" x1="423.0821" y1="598.6087" x2="423.0821" y2="645.8261" />
	<line class="u" x1="407.343" y1="598.6087" x2="407.343" y2="645.8261" />
	<rect class="ag" x="101.3043" y="323.1739" width="472.1739" height="15.7391" transform="translate(668.4348 -6.3478) rotate(90)" />
	<rect class="aj" x="140.6522" y="645.8261" width="204.6087" height="15.7391" transform="translate(896.6522 410.7391) rotate(90)" />
	<rect class="aj" x="236.8357" y="551.3913" width="92.686" height="15.7391" />
	<rect class="aj" x="274.4348" y="622.2174" width="125.913" height="15.7391" transform="translate(967.4783 292.6957) rotate(90)" />
	<rect class="af" x="250.8261" y="567.1304" width="78.6957" height="62.9565" />
	<rect class="ak" x="250.8261" y="624.8406" width="78.6957" height="5.2464" />
	<rect class="an" x="250.8261" y="582.8696" width="78.6957" height="15.7391" />
	<rect class="an" x="250.8261" y="614.3478" width="78.6957" height="15.7391" />
	<rect class="ao" x="256.0725" y="605.6039" width="15.7391" height="15.7391" rx="3.4504" transform="translate(-26.7823 12.2294) rotate(-2.5261)" />
	<rect class="af" x="817.4348" y="394" width="157.3913" height="62.9565" />
	<rect class="af" x="1006.3043" y="394" width="31.4783" height="62.9565" />
	<rect class="aj" x="817.4348" y="378.2609" width="157.3913" height="15.7391" />
	<rect class="aj" x="1006.2854" y="378.2609" width="15.758" height="15.7391" />
	<rect class="ag" x="345.2609" y="551.3913" width="393.4783" height="15.7391" />
	<rect class="ag" x="801.6957" y="551.3913" width="15.7391" height="15.7391" />
	<rect class="af" x="817.4348" y="110.6957" width="267.5652" height="62.9565" />
	<rect class="af" x="1147.9565" y="110.6957" width="47.2174" height="62.9565" />
	<rect class="aj" x="1147.9565" y="94.9565" width="47.2174" height="15.7391" />
	<rect class="aj" x="817.4348" y="94.9565" width="267.5652" height="15.7391" />
	<rect class="aj" x="1022.0435" y="220.8696" width="15.7391" height="173.1304" />
	<rect class="aj" x="1022.0435" y="110.6957" width="15.7391" height="78.6957" />
	<rect class="ag" x="801.6957" y="346.7826" width="15.7391" height="219.8031" />
	<rect class="ag" x="801.6957" y="283.8261" width="15.7391" height="31.4783" />
	<rect class="ak" x="345.2609" y="168.4058" width="456.4348" height="5.2464" />
	<rect class="ak" x="817.4348" y="168.4058" width="204.6087" height="5.2464" />
	<rect class="ak" x="1037.7826" y="168.4058" width="47.2174" height="5.2464" />
	<rect class="ag" x="801.6957" y="252.3478" width="15.7391" height="31.4783" />
	<rect class="am" x="817.4348" y="126.4348" width="157.3913" height="62.9565" />
	<rect class="ah" x="817.4348" y="126.4348" width="157.3913" height="15.7391" />
	<line class="ap" x1="834.9227" y1="142.1739" x2="834.9227" y2="189.3913" />
	<line class="ap" x1="853.3822" y1="142.1739" x2="853.3822" y2="189.3913" />
	<line class="ap" x1="870.8701" y1="142.1739" x2="870.8701" y2="189.3913" />
	<line class="ap" x1="956.3666" y1="142.1739" x2="956.3666" y2="189.3913" />
	<line class="ap" x1="938.8787" y1="142.1739" x2="938.8787" y2="189.3913" />
	<line class="ap" x1="921.3908" y1="142.1739" x2="921.3908" y2="189.3913" />
	<line class="ap" x1="903.9028" y1="142.1739" x2="903.9028" y2="189.3913" />
	<line class="ap" x1="886.4149" y1="142.1739" x2="886.4149" y2="189.3913" />
	<rect class="am" x="864.6522" y="268.087" width="157.3913" height="62.9565" />
	<rect class="ah" x="864.6522" y="268.087" width="157.3913" height="15.7391" />
	<line class="ap" x1="882.1401" y1="283.8261" x2="882.1401" y2="331.0435" />
	<line class="ap" x1="900.5996" y1="283.8261" x2="900.5996" y2="331.0435" />
	<line class="ap" x1="918.0875" y1="283.8261" x2="918.0875" y2="331.0435" />
	<line class="ap" x1="1003.584" y1="283.8261" x2="1003.584" y2="331.0435" />
	<line class="ap" x1="986.0961" y1="283.8261" x2="986.0961" y2="331.0435" />
	<line class="ap" x1="968.6082" y1="283.8261" x2="968.6082" y2="331.0435" />
	<line class="ap" x1="951.1202" y1="283.8261" x2="951.1202" y2="331.0435" />
	<line class="ap" x1="933.6323" y1="283.8261" x2="933.6323" y2="331.0435" />
	<rect class="aq" x="860.3773" y="346.7826" width="145.927" height="15.7391" />
	<rect class="ae" x="991.2863" y="220.8696" width="1.4164" height="5.4818" transform="translate(1983.9889 447.2209) rotate(180)" />
	<rect class="ae" x="831.0365" y="220.8696" width="1.4164" height="5.4818" transform="translate(1663.4894 447.2209) rotate(180)" />
	<rect class="aq" x="831.0365" y="205.1304" width="161.6661" height="15.7391" />
	<path class="ai" d="M536.5205,135.64c-.1338-2.63-.2944-5.7924-.2676-8.143h-.08c-.6162,2.21-1.3667,4.561-2.2774,7.164l-3.1885,9.1509H528.938l-2.92-8.9834c-.8574-2.6582-1.5811-5.0927-2.09-7.3315h-.0532c-.0537,2.3506-.188,5.5127-.3486,8.3393l-.4824,8.0874h-2.2237l1.2593-18.8618h2.9741l3.0816,9.1231c.75,2.3227,1.3662,4.3935,1.8218,6.3525h.0805c.4556-1.9028,1.0987-3.9736,1.9024-6.3525l3.2153-9.1231h2.9741l1.1255,18.8618h-2.2778Z" />
	<path class="ai" d="M545.18,125.0615v7.8916h8.7348v-7.8916h2.3579v18.8618H553.915V135.08H545.18v8.8432h-2.3316V125.0615Z" />
	<rect class="ar" x="361" y="652.8213" width="624.3188" height="69.9517" />
	<rect class="ar" x="840.1691" y="519.0386" width="182.7488" height="107.5507" transform="translate(1504.3575 -358.7295) rotate(90)" />
	<rect class="ar" x="985.3188" y="481.4396" width="187.1208" height="146.8986" transform="translate(2157.7585 1109.7778) rotate(180)" />
	<rect class="ar" x="943.1292" y="306.3418" width="348.0097" height="110.6111" transform="translate(755.4867 1478.7814) rotate(-90)" />
	<rect class="as" x="1060.5169" y="187.6425" width="20.9855" height="297.2947" />
	<rect class="as" x="1153.2029" y="187.6425" width="20.9855" height="440.6957" />
	<rect class="as" x="969.5797" y="385.256" width="20.9855" height="202.8599" transform="translate(1466.7585 -493.3865) rotate(90)" />
	<rect class="as" x="1069.2609" y="526.9082" width="20.9855" height="188.8696" transform="translate(1701.0966 -458.4106) rotate(90)" />
	<rect class="as" x="876.8937" y="476.1932" width="20.9855" height="176.628" />
	<rect class="as" x="618.9469" y="393.1256" width="20.9855" height="536.8792" transform="translate(1291.0048 32.1256) rotate(90)" />
	<rect class="as" x="666.1643" y="408.8647" width="20.9855" height="631.314" transform="translate(1401.1787 47.8647) rotate(90)" />
	<rect class="as" x="974.8261" y="610.8502" width="17.4879" height="104.9275" transform="translate(1967.1401 1326.628) rotate(180)" />
	<rect class="at" x="562.1111" y="121.1884" width="78.6957" height="29.7295" />
	<path class="au" d="M576.17,129.4277a21.1459,21.1459,0,0,1,3.5034-.2729,5.81,5.81,0,0,1,3.9654,1.1748,3.8026,3.8026,0,0,1,1.2383,2.9585,4.1635,4.1635,0,0,1-1.0914,3.0215,5.8589,5.8589,0,0,1-4.3217,1.5522,6.2785,6.2785,0,0,1-1.4688-.126v5.6651H576.17Zm1.8252,6.8189a6.12,6.12,0,0,0,1.5108.1465c2.2026,0,3.5454-1.07,3.5454-3.021,0-1.8672-1.3218-2.77-3.336-2.77a7.6524,7.6524,0,0,0-1.72.147Z" />
	<path class="av" d="M587.334,129.4487a18.9982,18.9982,0,0,1,3.5034-.2939c1.9517,0,3.2105.3569,4.0913,1.1538a3.5229,3.5229,0,0,1,1.1123,2.6855,3.7131,3.7131,0,0,1-2.6645,3.6089v.063a3.5251,3.5251,0,0,1,2.0771,2.8535,22.4753,22.4753,0,0,0,1.0908,3.8814h-1.8882a18.3285,18.3285,0,0,1-.9443-3.378c-.4194-1.9511-1.1748-2.6855-2.8325-2.7485h-1.72v6.1265H587.334Zm1.8252,6.4409h1.8672c1.9511,0,3.1889-1.07,3.1889-2.6855,0-1.8252-1.3217-2.6226-3.2519-2.6436a7.5013,7.5013,0,0,0-1.8042.168Z" />
	<path class="aw" d="M610.772,136.1836c0,4.8672-2.9585,7.4482-6.5674,7.4482-3.7344,0-6.3569-2.8955-6.3569-7.1757,0-4.49,2.79-7.4273,6.5669-7.4273C608.2749,129.0288,610.772,131.9873,610.772,136.1836Zm-10.9732.23c0,3.0214,1.6367,5.728,4.5108,5.728,2.8955,0,4.5322-2.6646,4.5322-5.8745,0-2.8115-1.4688-5.749-4.5112-5.749C601.31,130.5186,599.7988,133.3091,599.7988,136.4141Z" />
	<path class="ax" d="M625.063,137.19c-.105-1.9721-.231-4.3427-.21-6.1054h-.063c-.4824,1.6577-1.07,3.42-1.7832,5.3711l-2.4965,6.8608h-1.3848l-2.2871-6.7349c-.6714-1.9931-1.2378-3.8183-1.6363-5.497H615.16c-.042,1.7627-.147,4.1333-.273,6.2524l-.3774,6.0635h-1.7417l.9863-14.1411h2.3286l2.4131,6.84c.5874,1.7412,1.07,3.294,1.4268,4.7627h.0625c.3569-1.4268.86-2.98,1.49-4.7627l2.5176-6.84h2.3291l.8813,14.1411h-1.7837Z" />
	<path class="ay" d="M513.2869,245.7412a1.3323,1.3323,0,0,1-.7145.5309c-.5535.1571-1.0094.44-.8964.9509.261,1.18.9057,1.5682,2.961,1.4,1.018-.0835.88-.1,1.5138-.18a1.4086,1.4086,0,0,0,1.1811-1.2284l.1884-1.3038Z" />
	<path class="ay" d="M525.8838,246.3228a1.4046,1.4046,0,0,1-.9166-.95l-4.0242.6371.1813,1.2553a1.4088,1.4088,0,0,0,1.1812,1.2284c.6341.08.4958.0964,1.5138.18,2.0553.1685,2.7-.22,2.961-1.4C526.8933,246.7632,526.4374,246.48,525.8838,246.3228Z" />
	<path class="az" d="M527.6258,213.9016s4.6043-10.2291,1.8013-13.6572-8.61-4.8232-10.39-4.8324c-1.8292-.0094-7.0549-.1111-9.5825,4.0889-1.8013,2.9931.5315,13.9717.5315,13.9717S520.21,213.7931,527.6258,213.9016Z" />
	<path class="ba" d="M525.7249,231.6916a30.35,30.35,0,0,1-12.9106-.2215c-.02.53-.034,1.0251-.0418,1.4761-.0029.1667.0016.328.012.4943l.7219,11.4671a1.4127,1.4127,0,0,1-.257.8856l4.2334.1693,1.7-11.7648h.0561l1.7069,11.8134,4.0242-.6372a1.34,1.34,0,0,1-.0547-.4663l.7755-11.49c.01-.1664.0215-.2592.028-.4558" />
	<polygon class="bb" points="518.58 244.67 519.6 231.835 512.553 231.47 513.216 244.603 518.58 244.67" />
	<polygon class="bb" points="519.984 244.948 518.964 232.113 526.01 231.748 525.348 244.881 519.984 244.948" />
	<path class="bc" d="M512.3414,233.3182c.203-6.1049,1.1043-17.9332,1.1043-17.9332h11.0461s1.44,11.6789,1.6572,17.8207C526.1405,233.208,518.7775,234.8826,512.3414,233.3182Z" />
	<path class="ba" d="M509.0474,230.3785c-.23-2.2332-1.1582-13.7566,3.9923-15.0759a.3522.3522,0,0,1,.405.4048c-.1515,2.2516-.7817,11.6187-.9769,14.5209a1.5316,1.5316,0,0,1-.2694.9992c-1,2.0245-2.1373,1.956-2.9851-.1455A2.5883,2.5883,0,0,1,509.0474,230.3785Z" />
	<path class="ba" d="M528.89,230.3785c.23-2.2332,1.1582-13.7566-3.9922-15.0759a.3522.3522,0,0,0-.405.4048c.1514,2.2516.7816,11.6187.9769,14.5209a1.5317,1.5317,0,0,0,.2693.9992c1.0006,2.0245,2.1373,1.956,2.9851-.1455A2.5846,2.5846,0,0,0,528.89,230.3785Z" />
	<path class="bc" d="M513.3926,215.4062c-.2531-.5316-1.9777.4375-2.7439,1.5258a8.6566,8.6566,0,0,0-1.3939,3.7736l3.83.3492S513.62,215.8831,513.3926,215.4062Z" />
	<path class="bc" d="M524.548,215.4062c.2531-.5316,1.9778.4375,2.7439,1.5258a8.6566,8.6566,0,0,1,1.3939,3.7736l-3.83.3492S524.3209,215.8831,524.548,215.4062Z" />
	<path class="ba" d="M530.21,205.9049a11.173,11.173,0,1,1-11.1729-11.1729A11.1729,11.1729,0,0,1,530.21,205.9049Z" />
	<rect class="bd" x="514.2491" y="209.6735" width="2.7695" height="3.6926" rx="1.3847" />
	<rect class="bd" x="520.7112" y="209.6735" width="2.7695" height="3.6926" rx="1.3847" />
	<path class="az" d="M513.3316,203.8356s13.0387,3.56,15.38,7.0454c0,0,3.9469-2.3832.5259-10.1453a12.3076,12.3076,0,0,0-9.9068-6.6279c-3.5227-.0422-7.5722,1.6486-8.9465,3.8994-6.1219,10.0264-1.3516,12.8738-1.3516,12.8738S513.3316,205.4024,513.3316,203.8356Z" />
	<rect class="be" x="516.0268" y="220.6696" width="6.4369" height="1.5435" />
	<path class="bc" d="M516.7832,221.5239a.3914.3914,0,0,0,.1978.0557c.1123,0,.1782-.06.1782-.1455,0-.08-.0454-.1255-.1607-.17-.1391-.0494-.2256-.1216-.2256-.2417a.2462.2462,0,0,1,.2764-.232.3872.3872,0,0,1,.1885.042l-.03.09a.34.34,0,0,0-.1621-.0406c-.1167,0-.1606.07-.1606.128,0,.08.0517.1191.1694.1645.1445.0557.2178.1255.2178.251,0,.1313-.0977.2456-.2989.2456a.4351.4351,0,0,1-.2177-.0547Z" />
	<path class="bc" d="M517.9346,221.4912c0,.063.0009.1187.0049.167h-.0987l-.0063-.1h-.0025a.2312.2312,0,0,1-.2026.1143c-.0962,0-.2114-.0533-.2114-.2686v-.3584h.1113v.3394c0,.1162.0352.1948.1367.1948a.1615.1615,0,0,0,.147-.1011.1661.1661,0,0,0,.01-.0571v-.376h.1114Z" />
	<path class="bc" d="M518.1221,221.2451c0-.0781-.0025-.1416-.0049-.2h.1l.0049.105h.0024a.2422.2422,0,0,1,.2183-.1192.2776.2776,0,0,1,.2592.3116.29.29,0,0,1-.2783.33.2151.2151,0,0,1-.1889-.0967h-.0025v.3335h-.11Zm.11.1636a.2577.2577,0,0,0,.0049.0454.1723.1723,0,0,0,.1675.1309c.1177,0,.186-.0967.186-.2369,0-.123-.0644-.228-.1821-.228a.1775.1775,0,0,0-.1685.1377.1816.1816,0,0,0-.0078.0459Z" />
	<path class="bc" d="M518.8457,221.2363c0-.0722-.001-.1342-.0049-.1909h.0977l.0034.12h.0054a.1833.1833,0,0,1,.1694-.1343.1192.1192,0,0,1,.0317.004v.1049a.1709.1709,0,0,0-.038-.0039.1571.1571,0,0,0-.1495.1431.3389.3389,0,0,0-.0048.0522v.3267h-.11Z" />
	<path class="bc" d="M519.3105,221.3721a.1971.1971,0,0,0,.21.2129.4072.4072,0,0,0,.17-.0318l.0186.08a.4957.4957,0,0,1-.2036.0381.2844.2844,0,0,1-.3013-.3091.2975.2975,0,0,1,.2871-.3306.26.26,0,0,1,.2534.2886.3829.3829,0,0,1-.0039.0523Zm.3272-.08a.1587.1587,0,0,0-.1548-.1807.1842.1842,0,0,0-.1709.1807Z" />
	<path class="bc" d="M519.8857,221.2109c0-.063-.0009-.1152-.0048-.1655h.0976l.0049.0986h.0039a.2117.2117,0,0,1,.1924-.1128.1808.1808,0,0,1,.1733.1231h.003a.2539.2539,0,0,1,.0683-.08.209.209,0,0,1,.1353-.043c.081,0,.2016.0533.2016.2662v.3608h-.1089v-.3472c0-.1176-.0434-.1884-.1333-.1884a.1449.1449,0,0,0-.1318.101.19.19,0,0,0-.0088.0557v.3789H520.27v-.3672c0-.0976-.0429-.1684-.1279-.1684a.152.152,0,0,0-.1377.1113.156.156,0,0,0-.0093.0547v.37h-.1089Z" />
	<path class="bc" d="M521.0083,221.3721a.197.197,0,0,0,.2105.2129.4075.4075,0,0,0,.17-.0318l.0185.08a.4949.4949,0,0,1-.2036.0381.2844.2844,0,0,1-.3013-.3091.2975.2975,0,0,1,.2872-.3306.26.26,0,0,1,.2534.2886.4.4,0,0,1-.0039.0523Zm.3271-.08a.1586.1586,0,0,0-.1547-.1807.1842.1842,0,0,0-.1709.1807Z" />
	<path class="bf" d="M697.2391,347.1546a1.34,1.34,0,0,1-.7185.5339c-.5566.1579-1.015.4428-.9014.9562.2625,1.1862.9108,1.5769,2.9775,1.4074,1.0237-.0839.8846-.1,1.5222-.1808a1.4166,1.4166,0,0,0,1.1878-1.2353l.1894-1.3111Z" />
	<path class="bf" d="M709.9063,347.7394a1.4125,1.4125,0,0,1-.9218-.9554l-4.0467.6407.1824,1.2623a1.4168,1.4168,0,0,0,1.1878,1.2353c.6377.08.4985.0968,1.5222.1808,2.0667.17,2.715-.2213,2.9775-1.4075C710.9213,348.1823,710.4629,347.8974,709.9063,347.7394Z" />
	<path class="bb" d="M711.3516,314.9511s3.8956-9.49,2.1176-13.5469c-1.7872-4.0785-8.6579-4.85-10.4484-4.8593-1.8394-.01-7.0941-.1117-9.6358,4.1117-1.8114,3.01.8856,13.9425.8856,13.9425S703.8944,314.842,711.3516,314.9511Z" />
	<path class="ba" d="M709.7464,333.0267a30.5186,30.5186,0,0,1-12.9826-.2228c-.02.5326-.0341,1.0309-.042,1.4844-.0029.1677.0016.33.0122.4971l.7259,11.5309a1.4211,1.4211,0,0,1-.2585.8906l4.257.17,1.7094-11.83h.0564l1.7164,11.8792,4.0467-.6407a1.3437,1.3437,0,0,1-.0551-.469l.78-11.5543c.0106-.1673.0217-.2606.0282-.4584" />
	<polygon class="bg" points="702.821 341.06 703.587 333.032 696.501 332.804 696.588 341.06 702.821 341.06" />
	<polygon class="bg" points="703.68 341.06 702.948 333.305 710.033 333.084 709.746 341.06 703.68 341.06" />
	<path class="bc" d="M696.2884,334.6624c.2041-6.139,1.11-18.0332,1.11-18.0332h11.1077s1.4479,11.744,1.6664,17.92C710.1643,334.5516,702.76,336.2354,696.2884,334.6624Z" />
	<path class="ba" d="M692.976,331.7063c-.2311-2.2456-1.1647-13.8333,4.0145-15.16a.3542.3542,0,0,1,.4073.407c-.1523,2.2642-.786,11.6835-.9824,14.6018a1.54,1.54,0,0,1-.2709,1.0048c-1.0061,2.0358-2.1491,1.9669-3.0017-.1463A2.6012,2.6012,0,0,1,692.976,331.7063Z" />
	<path class="ba" d="M712.9293,331.7063c.2311-2.2456,1.1647-13.8333-4.0145-15.16a.3542.3542,0,0,0-.4073.407c.1523,2.2642.786,11.6835.9824,14.6018a1.54,1.54,0,0,0,.2709,1.0048c1.0061,2.0358,2.1491,1.9669,3.0017-.1463A2.6012,2.6012,0,0,0,712.9293,331.7063Z" />
	<path class="bc" d="M713.028,331.8434c.2386-2.2777,1.2023-14.0312-4.1441-15.3768a.3627.3627,0,0,0-.42.4129c.1572,2.2965,1.014,14.8107,1.014,14.8107h0s2.4983,3.0142,3.3783.8707A2.5945,2.5945,0,0,0,713.028,331.8434Z" />
	<path class="bc" d="M692.8436,331.841c-.2427-2.2815-1.2232-14.0541,4.2163-15.402a.3665.3665,0,0,1,.4277.4136c-.16,2.3-1.0317,14.8349-1.0317,14.8349h0s-2.5417,3.0192-3.4371.8722A2.5726,2.5726,0,0,1,692.8436,331.841Z" />
	<path class="ba" d="M714.256,307.0963a11.2352,11.2352,0,1,1-11.2352-11.2353A11.2352,11.2352,0,0,1,714.256,307.0963Z" />
	<rect class="bd" x="698.2066" y="310.8859" width="2.7849" height="3.7132" rx="1.3925" />
	<rect class="bd" x="704.7048" y="310.8859" width="2.7849" height="3.7132" rx="1.3925" />
	<path class="bb" d="M709.2606,305.0155A50.3316,50.3316,0,0,0,713.17,312.1s2.1282-2.1161.26-10.2944a12.4048,12.4048,0,0,0-10.1125-6.5723c-3.5423-.0424-7.6144,1.6578-8.9964,3.9211-6.156,10.0824-.8289,12.9456-.8289,12.9456S709.2606,306.5909,709.2606,305.0155Z" />
	<polygon class="bh" points="713.042 322.882 711.412 322.862 711.412 324.46 713.118 324.46 713.042 322.882" />
	<path class="bi" d="M713.0543,323.1424c-.6025-.0167-1.155.2829-1.1482.5241.0061.2149.3686.5136,1.1987.5136" />
	<path class="bh" d="M713.06,323.2529c-.509-.0141-.9514.1884-.9456.3921.0051.1816.2853.445.9866.445" />
	<path class="bj" d="M713.0591,323.3321c-.3939-.0109-.7551.185-.7506.3427.0039.14.2409.3358.7837.3358" />
	<path class="bh" d="M713.0626,323.4044c-.3327-.0092-.6219.1231-.6182.2564.0034.1187.1865.2909.6451.2909" />
	<path class="bk" d="M763.361,220.1605a29.083,29.083,0,0,1-12.3716-.2122c-.0188.5075-.0325.9823-.04,1.4145-.0027.16.0016.3142.0116.4737l.6917,10.9883a1.3533,1.3533,0,0,1-.2462.8486l4.0567.1623,1.6289-11.2737h.0538l1.6356,11.32,3.8562-.6105a1.2828,1.2828,0,0,1-.0525-.4469l.7432-11.0106c.01-.16.0206-.2484.0268-.4368" />
	<path class="bb" d="M751.6539,232.9134c-.1692.2439-.6232,1.1414-.8963,1.219-.53.1505-.9673.4219-.859.9112.25,1.13.8679,1.5027,2.8374,1.3412.9755-.08.8429-.0957,1.4506-.1723a1.35,1.35,0,0,0,1.1318-1.1771l.2428-1.8792Z" />
	<path class="bb" d="M763.5133,234.1809c-.41-.1162-.792-1.0405-.92-1.4715l-3.9383.2953.2979,2.0792a1.35,1.35,0,0,0,1.1319,1.1771c.6077.0767.4751.0924,1.4506.1724,1.9694.1615,2.5873-.2109,2.8374-1.3413C764.4806,234.6029,764.0438,234.3315,763.5133,234.1809Z" />
	<path class="bb" d="M766.4319,206.4991s2.8052-7.45.3244-12.2067-8.0933-7.2719-9.6692-7.2846c-1.6189-.0132-3.8306,3.0979-8.4809,5.6735-5,2.769-1.3383,13.8178-1.3383,13.8178S759.8685,206.3485,766.4319,206.4991Z" />
	<polygon class="bl" points="755.561 233.156 756.159 229.021 751.413 229.021 751.654 232.913 755.561 233.156" />
	<polygon class="bl" points="758.655 233.051 758.064 228.916 762.84 228.916 762.599 232.808 758.655 233.051" />
	<path class="bm" d="M750.3869,225.6174c.1967-7.14,1.07-20.9749,1.07-20.9749h10.7068s1.3956,13.66,1.6062,20.8432C763.7621,225.4885,756.6252,227.4471,750.3869,225.6174Z" />
	<path class="bk" d="M747.38,218.9022c-.22-2.14-1.11-13.1823,3.8256-14.4465a.3375.3375,0,0,1,.3881.3879c-.1452,2.1576-.749,11.1337-.9361,13.9147a1.4674,1.4674,0,0,1-.2582.9575c-.9587,1.94-2.048,1.8744-2.86-.1395A2.4714,2.4714,0,0,1,747.38,218.9022Z" />
	<path class="bk" d="M766.3941,218.9022c.22-2.14,1.11-13.1823-3.8255-14.4465a.3376.3376,0,0,0-.3882.3879c.1452,2.1576.7491,11.1337.9361,13.9147a1.4674,1.4674,0,0,0,.2582.9575c.9587,1.94,2.048,1.8744,2.8605-.1395A2.475,2.475,0,0,0,766.3941,218.9022Z" />
	<path class="bm" d="M747.2536,219.0306c-.2313-2.1741-1.1656-13.3928,4.0179-14.6772a.3492.3492,0,0,1,.4076.3941c-.1524,2.1921-.9832,14.1369-.9832,14.1369h0s-2.4221,2.8771-3.2753.8311A2.4514,2.4514,0,0,1,747.2536,219.0306Z" />
	<path class="bm" d="M766.4949,219.0306c.2313-2.1741,1.1657-13.3928-4.0178-14.6772a.3493.3493,0,0,0-.4077.3941c.1525,2.1921.9832,14.1369.9832,14.1369h0s2.4221,2.8771,3.2753.8311A2.4445,2.4445,0,0,0,766.4949,219.0306Z" />
	<path class="s" d="M756.7426,206.1568l-.495,2.5185s-5.8567-3.2632-5.4067-4.312C751.1981,203.5308,756.7426,206.1568,756.7426,206.1568Z" />
	<path class="s" d="M757.4472,206.1568l.6851,2.5185s5.2285-3.18,4.7784-4.2286C762.5535,203.6142,757.4472,206.1568,757.4472,206.1568Z" />
	<path class="bk" d="M767.6584,195.45a10.7065,10.7065,0,1,1-10.7065-10.7065A10.7064,10.7064,0,0,1,767.6584,195.45Z" />
	<rect class="bd" x="752.3643" y="199.0616" width="2.6539" height="3.5385" rx="1.3269" />
	<rect class="bd" x="758.5566" y="199.0616" width="2.6539" height="3.5385" rx="1.3269" />
	<path class="bb" d="M762.9382,196.31a8.0006,8.0006,0,0,0,4.3258,1.1422s1.3872.75-.3934-7.0439a11.8212,11.8212,0,0,0-9.6367-6.263c-3.3755-.04-7.2509,1.5829-8.573,3.7366-4.3943,7.1589-2.0083,9.6211-2.0083,9.6211S762.9382,197.8117,762.9382,196.31Z" />
	<path class="ac" d="M751.0312,215.7161c.382.3173,2.2034,1.0686,5.9207,1.2691a12.3492,12.3492,0,0,0,5.9207-1.1168" />
	<path class="bb" d="M452.7107,368.2642a1.284,1.284,0,0,1-.6886.5117c-.5335.1514-.9729.4244-.864.9164.2516,1.137.873,1.5114,2.8538,1.349.9811-.08.8478-.0962,1.459-.1733a1.3578,1.3578,0,0,0,1.1384-1.1839l.1815-1.2567Z" />
	<path class="bb" d="M464.8516,368.8247a1.3538,1.3538,0,0,1-.8835-.9157l-3.8785.6141.1748,1.21a1.3577,1.3577,0,0,0,1.1384,1.1839c.6112.0771.4778.0929,1.459.1734,1.9808.1624,2.6022-.2121,2.8538-1.349C465.8245,369.2491,465.3851,368.9761,464.8516,368.8247Z" />
	<path class="bn" d="M464.6984,354.7232a29.2508,29.2508,0,0,1-12.4432-.2134c-.0189.51-.0327.988-.04,1.4226-.0028.1607.0016.3161.0117.4765l.6957,11.0518a1.3621,1.3621,0,0,1-.2477.8536l4.08.1632,1.6384-11.3388h.0541l1.6451,11.3856,3.8785-.6141a1.2879,1.2879,0,0,1-.0528-.45l.7474-11.0742c.01-.16.0208-.25.027-.4393" />
	<path class="bb" d="M464.9492,359.2273c-.2116-7.2427-.8237-20.1689-.8237-20.1689l-11.4374.1445s-.9063,12.4619-1.1328,19.7484A26.2939,26.2939,0,0,0,464.9492,359.2273Z" />
	<path class="bn" d="M469.0206,329.87a10.7684,10.7684,0,1,1-10.7684-10.7684A10.7684,10.7684,0,0,1,469.0206,329.87Z" />
	<rect class="bd" x="453.638" y="333.5024" width="2.6692" height="3.5589" rx="1.3346" />
	<rect class="bd" x="459.8662" y="333.5024" width="2.6692" height="3.5589" rx="1.3346" />
	<path class="bo" d="M451.6277,348.8034,450.5834,360.37a26.59,26.59,0,0,0,15.3376,0l-1.388-11.5665Z" />
	<path class="bn" d="M466.9125,353.4171c.31-2.14,1.6786-13.1932-2.9027-14.6858-.1935-.063-.3875.12-.3837.3722.0326,2.1742.1684,11.219.21,14.0213a2.9667,2.9667,0,0,0,.6143,1.8332c.5541.673,1.4185,1.1157,2.28-.8708A2.6291,2.6291,0,0,0,466.9125,353.4171Z" />
	<path class="bn" d="M448.6247,353.4577c-.2215-2.1523-1.1162-13.2585,3.8477-14.53a.34.34,0,0,1,.39.39c-.146,2.17-.7533,11.198-.9415,13.9951a2.864,2.864,0,0,1-.7491,1.8017c-.6256.6457-1.57,1.0465-2.3876-.9789A2.4925,2.4925,0,0,1,448.6247,353.4577Z" />
	<ellipse class="bp" cx="461.9543" cy="320.377" rx="2.1607" ry="1.9089" />
	<circle class="bb" cx="462.1313" cy="318.7357" r="3.0246" />
	<polygon class="bb" points="464.02 367.91 464.345 361.853 459.306 362.744 460.141 368.524 464.02 367.91" />
	<polygon class="bb" points="456.755 368.477 457.547 362.995 452.591 362.198 452.675 368.314 456.755 368.477" />
	<circle class="bb" cx="456.8072" cy="345.6507" r="0.8559" />
	<ellipse class="bq" cx="454.8931" cy="335.435" rx="3.3378" ry="3.0933" />
	<ellipse class="bq" cx="462.1313" cy="335.435" rx="3.3378" ry="3.0933" />
	<line class="bq" x1="451.3737" y1="335.0862" x2="448.0693" y2="333.8673" />
	<line class="bq" x1="458.2204" y1="335.6605" x2="458.7935" y2="335.682" />
	<line class="bq" x1="465.4691" y1="335.435" x2="468.2208" y2="334.4767" />
	<path class="bb" d="M454.6782,328.8689s6.7447,6.249,13.892,6.4129a13.1581,13.1581,0,0,0-.4862-10.3937,11.8455,11.8455,0,0,0-9.5481-6.3879c-1.763-.0143-4.7958-.5854-8.6226,3.7582s-2.2122,13.0234-2.2122,13.0234S454.6782,330.3789,454.6782,328.8689Z" />
	<ellipse class="br" cx="458.1769" cy="339.1374" rx="0.5139" ry="0.4186" />
	<path class="bs" d="M431.3945,274.88a21.8455,21.8455,0,0,0,1.2477-7.2553,22.609,22.609,0,0,0-5.274-14.3534l-17.7451,11.968Z" />
	<path class="bs" d="M405.3813,263.3607l19.2383-12.975a30.9991,30.9991,0,0,0-20.8033-7.7067,30.4626,30.4626,0,0,0-22.9068,9.8454Z" />
	<path class="bs" d="M378.4663,255.74a22.0342,22.0342,0,0,0,.9542,25.13l22.1146-14.915Z" />
	<path class="bs" d="M405.7769,267.8331l-23.7952,16.0485a30.7583,30.7583,0,0,0,21.8346,8.6884c11.43,0,21.2776-5.7723,25.9391-14.119Z" />
	<ellipse class="bt" cx="403.8163" cy="263.9509" rx="25.2603" ry="21.8599" />
	<path class="bs" d="M510.09,274.88a21.8455,21.8455,0,0,0,1.2477-7.2553,22.6085,22.6085,0,0,0-5.2741-14.3534l-17.745,11.968Z" />
	<path class="bs" d="M484.0769,263.3607l19.2383-12.975a30.9988,30.9988,0,0,0-20.8033-7.7067,30.4628,30.4628,0,0,0-22.9068,9.8454Z" />
	<path class="bs" d="M457.1619,255.74a22.0346,22.0346,0,0,0,.9542,25.13l22.1146-14.915Z" />
	<path class="bs" d="M484.4726,267.8331l-23.7953,16.0485a30.7583,30.7583,0,0,0,21.8346,8.6884c11.4306,0,21.2777-5.7723,25.9391-14.119Z" />
	<ellipse class="bt" cx="482.5119" cy="263.9509" rx="25.2603" ry="21.8599" />
	<path class="bs" d="M436.6992,353.5754a21.8451,21.8451,0,0,0,1.2477-7.2553,22.6083,22.6083,0,0,0-5.2741-14.3533l-17.745,11.9679Z" />
	<path class="bs" d="M410.6859,342.0564l19.2383-12.9751a30.9993,30.9993,0,0,0-20.8033-7.7067,30.4628,30.4628,0,0,0-22.9068,9.8454Z" />
	<path class="bs" d="M383.7709,334.4354a22.0345,22.0345,0,0,0,.9542,25.13L406.84,344.65Z" />
	<path class="bs" d="M411.0816,346.5288l-23.7953,16.0484a30.758,30.758,0,0,0,21.8346,8.6885c11.4306,0,21.2777-5.7724,25.9391-14.1191Z" />
	<ellipse class="bt" cx="409.1209" cy="342.6465" rx="25.2603" ry="21.8599" />
	<path class="bs" d="M695.4622,274.88a21.848,21.848,0,0,0,1.2476-7.2553,22.609,22.609,0,0,0-5.274-14.3534l-17.745,11.968Z" />
	<path class="bs" d="M669.4489,263.3607l19.2383-12.975a30.9988,30.9988,0,0,0-20.8033-7.7067,30.4628,30.4628,0,0,0-22.9068,9.8454Z" />
	<path class="bs" d="M642.5339,255.74a22.0346,22.0346,0,0,0,.9542,25.13l22.1146-14.915Z" />
	<path class="bs" d="M669.8446,267.8331l-23.7953,16.0485a30.7583,30.7583,0,0,0,21.8346,8.6884c11.4306,0,21.2777-5.7723,25.9391-14.119Z" />
	<ellipse class="bt" cx="667.8839" cy="263.9509" rx="25.2603" ry="21.8599" />
	<path class="bs" d="M774.1578,274.88a21.8455,21.8455,0,0,0,1.2477-7.2553,22.609,22.609,0,0,0-5.274-14.3534l-17.7451,11.968Z" />
	<path class="bs" d="M748.1445,263.3607l19.2384-12.975A30.9991,30.9991,0,0,0,746.58,242.679a30.4626,30.4626,0,0,0-22.9068,9.8454Z" />
	<path class="bs" d="M721.23,255.74a22.0344,22.0344,0,0,0,.9543,25.13l22.1146-14.915Z" />
	<path class="bs" d="M748.54,267.8331l-23.7953,16.0485A30.7586,30.7586,0,0,0,746.58,292.57c11.43,0,21.2776-5.7723,25.9391-14.119Z" />
	<ellipse class="bt" cx="746.5795" cy="263.9509" rx="25.2603" ry="21.8599" />
	<path class="bs" d="M772.4673,348.329a21.8451,21.8451,0,0,0,1.2477-7.2553,22.6089,22.6089,0,0,0-5.274-14.3533l-17.7451,11.968Z" />
	<path class="bs" d="M746.454,336.81l19.2383-12.9751a30.9992,30.9992,0,0,0-20.8033-7.7066,30.4627,30.4627,0,0,0-22.9067,9.8453Z" />
	<path class="bs" d="M719.539,329.189a22.0342,22.0342,0,0,0,.9543,25.13l22.1145-14.915Z" />
	<path class="bs" d="M746.85,341.2824l-23.7953,16.0485a30.7585,30.7585,0,0,0,21.8346,8.6884c11.4306,0,21.2777-5.7724,25.9391-14.119Z" />
	<ellipse class="bt" cx="744.889" cy="337.4002" rx="25.2603" ry="21.8599" />
	<path class="bu" d="M437.2194,274.192a1.1212,1.1212,0,0,1-.6014.4469c-.4659.1322-.85.3706-.7545.8.22.9929.7624,1.32,2.4923,1.1781.8568-.07.74-.0841,1.2741-.1514a1.1856,1.1856,0,0,0,.9942-1.0339l.1585-1.0975Z" />
	<path class="bu" d="M447.8222,274.6815a1.1825,1.1825,0,0,1-.7716-.8l-3.3871.5363.1526,1.0566a1.1858,1.1858,0,0,0,.9942,1.0339c.5338.0673.4173.0811,1.2742.1514,1.73.1418,2.2725-.1852,2.4922-1.1781C448.6718,275.0522,448.2881,274.8137,447.8222,274.6815Z" />
	<path class="bv" d="M451.1055,255.5925s2.0582-12.8619-.301-17.3856-7.247-6.3645-8.7456-6.3766c-1.54-.0125-4.7235,1.6022-8.0655,5.3956s-1.0255,18.3666-1.0255,18.3666S444.8636,255.4493,451.1055,255.5925Z" />
	<path class="bv" d="M450.3857,250.3668s2.464-6.5437.285-10.7218-7.1089-6.3874-8.493-6.3986c-1.422-.0115-4.3627,1.48-7.4494,4.9834s-1.1755,12.137-1.1755,12.137S444.6207,250.2346,450.3857,250.3668Z" />
	<path class="bn" d="M447.6884,262.3665a25.546,25.546,0,0,1-10.8668-.1864c-.0165.4458-.0286.8629-.0352,1.2424-.0024.14.0014.2761.01.4161l.6076,9.6517a1.1891,1.1891,0,0,1-.2163.7454l3.5632.1426,1.4308-9.9024h.0472l1.4367,9.9432,3.3871-.5362a1.1277,1.1277,0,0,1-.0461-.3926l.6528-9.6713c.0088-.14.0181-.2181.0236-.3836" />
	<polygon class="bw" points="447.527 273.39 447.688 262.18 436.602 262.18 437.159 273.234 447.527 273.39" />
	<path class="bx" d="M436.4236,263.7357c.1709-5.1385.9295-15.0944.9295-15.0944h9.2974s1.0949,9.858,1.2778,15.0275A28.9521,28.9521,0,0,1,436.4236,263.7357Z" />
	<path class="by" d="M433.6511,261.2613c-.1935-1.88-.9749-11.5788,3.36-12.6893a.2965.2965,0,0,1,.3409.3407c-.1275,1.8952-.6579,9.7794-.8222,12.2222a1.2891,1.2891,0,0,1-.2268.841c-.8421,1.704-1.7989,1.6464-2.5125-.1225A2.1748,2.1748,0,0,1,433.6511,261.2613Z" />
	<path class="by" d="M450.3525,261.2613c.1935-1.88.9749-11.5788-3.36-12.6893a.2965.2965,0,0,0-.3409.3407c.1275,1.8952.6579,9.7794.8222,12.2222a1.2891,1.2891,0,0,0,.2268.841c.8421,1.704,1.7989,1.6464,2.5125-.1225A2.1748,2.1748,0,0,0,450.3525,261.2613Z" />
	<path class="by" d="M451.4631,240.662a9.4042,9.4042,0,1,1-9.4042-9.4042A9.4042,9.4042,0,0,1,451.4631,240.662Z" />
	<rect class="bz" x="438.0293" y="243.8341" width="2.331" height="3.1081" rx="1.1655" />
	<rect class="bz" x="443.4684" y="243.8341" width="2.331" height="3.1081" rx="1.1655" />
	<path class="bv" d="M448.3631,238.9092s-.4659,5.6612,1.5049,8.5951c0,0,3.1363-6.6695.7771-11.1932a10.3447,10.3447,0,0,0-8.3385-5.5786c-1.54-.0125-4.1882-.5113-7.53,3.2821s-1.8085,12.7794-1.8085,12.7794S448.3631,240.2279,448.3631,238.9092Z" />
</svg>
