<svg width="1512px" height="1149px" xmlns="http://www.w3.org/2000/svg" viewBox="0 0 1512 1149">
	<defs>
		<style>
			.a{fill:#231f20;}
		</style>
	</defs>
	<rect class="a" width="14" height="1116" />
	<rect class="a" y="1098.1278" width="1503" height="14" />
	<rect class="a" x="1496" width="16" height="1116" />
	<rect class="a" width="1512" height="16" />
	<rect class="a" x="180" y="468" width="9" height="270" />
	<rect class="a" x="180" y="468" width="279" height="9" />
	<rect class="a" x="450" y="468" width="9" height="63" />
	<rect class="a" x="459" y="468" width="225" height="9" />
	<rect class="a" x="675" y="468" width="9" height="171" />
	<rect class="a" x="675" y="630" width="99" height="9" />
	<rect class="a" x="684" y="495" width="378" height="9" />
	<rect class="a" x="1053" y="504" width="9" height="144" />
	<rect class="a" x="927" y="504" width="9" height="135" />
	<rect class="a" x="801" y="495" width="9" height="135" />
	<rect class="a" x="792" y="630" width="108" height="9" />
	<rect class="a" x="918" y="630" width="108" height="9" />
	<rect class="a" x="1044" y="630" width="9" height="9" />
	<rect class="a" x="1053" y="639" width="306" height="45" />
	<rect class="a" x="1062" y="675" width="216" height="18" />
	<rect class="a" x="927" y="648" width="90" height="36" />
	<rect class="a" x="918" y="630" width="108" height="45" />
	<rect class="a" x="1044" y="639" width="9" height="36" />
	<rect class="a" x="792" y="639" width="108" height="36" />
	<rect class="a" x="801" y="630" width="90" height="54" />
	<rect class="a" x="675" y="630" width="99" height="45" />
	<rect class="a" x="675" y="639" width="90" height="45" />
	<rect class="a" x="675" y="738" width="99" height="45" />
	<rect class="a" x="792" y="738" width="108" height="45" />
	<rect class="a" x="918" y="738" width="108" height="45" />
	<rect class="a" x="1044" y="738" width="9" height="45" />
	<rect class="a" x="1053" y="756" width="90" height="81" />
	<rect class="a" x="1053" y="738" width="9" height="18" />
	<rect class="a" x="1053" y="837" width="9" height="126" />
	<rect class="a" x="1062" y="918" width="18" height="45" />
	<rect class="a" x="1116" y="918" width="27" height="45" />
	<rect class="a" x="1134" y="936" width="225" height="45" />
	<rect class="a" x="675" y="873" width="378" height="45" />
	<rect class="a" x="801" y="783" width="9" height="90" />
	<rect class="a" x="927" y="783" width="9" height="108" />
	<rect class="a" x="648" y="783" width="36" height="45" />
	<rect class="a" x="576" y="783" width="36" height="45" />
	<rect class="a" x="126" y="729" width="288" height="45" />
	<rect class="a" x="450" y="612" width="9" height="162" />
	<rect class="a" x="450" y="549" width="135" height="45" />
	<rect class="a" x="459" y="477" width="90" height="45" />
	<rect class="a" x="549" y="477" width="63" height="36" />
	<rect class="a" x="648" y="477" width="27" height="36" />
	<rect class="a" x="612" y="477" width="45" height="9" />
	<rect class="a" x="576" y="513" width="9" height="9" />
	<rect class="a" x="576" y="540" width="9" height="9" />
	<rect class="a" x="576" y="594" width="9" height="45" />
	<rect class="a" x="459" y="630" width="90" height="9" />
	<rect class="a" x="567" y="630" width="18" height="45" />
	<rect class="a" x="459" y="630" width="90" height="45" />
	<rect class="a" x="126" y="774" width="9" height="72" />
	<rect class="a" x="180" y="774" width="9" height="36" />
	<rect class="a" x="189" y="765" width="216" height="18" />
	<rect class="a" x="126" y="837" width="81" height="45" />
	<rect class="a" x="180" y="828" width="9" height="9" />
	<rect class="a" x="207" y="837" width="90" height="45" />
	<rect class="a" x="315" y="837" width="108" height="45" />
	<rect class="a" x="441" y="837" width="108" height="45" />
	<rect class="a" x="567" y="837" width="18" height="45" />
	<rect class="a" x="198" y="972" width="387" height="45" />
	<rect class="a" x="198" y="882" width="9" height="99" />
	<rect class="a" x="324" y="882" width="9" height="99" />
	<rect class="a" x="450" y="882" width="9" height="90" />
	<rect class="a" x="576" y="828" width="9" height="9" />
	<rect class="a" x="576" y="873" width="9" height="108" />
	<rect class="a" x="675" y="828" width="9" height="54" />
	<rect class="a" x="702" y="828" width="36" height="9" />
	<rect class="a" x="486" y="612" width="81" height="9" />
	<rect class="a" x="468" y="531" width="90" height="9" />
	<rect class="a" x="216" y="900" width="18" height="9" />
	<rect class="a" x="243" y="900" width="18" height="9" />
	<rect class="a" x="270" y="900" width="18" height="9" />
	<rect class="a" x="297" y="900" width="18" height="9" />
	<rect class="a" x="216" y="927" width="18" height="9" />
	<rect class="a" x="243" y="927" width="18" height="9" />
	<rect class="a" x="297" y="927" width="18" height="9" />
	<rect class="a" x="270" y="954" width="18" height="9" />
	<rect class="a" x="270" y="927" width="18" height="9" />
	<rect class="a" x="216" y="954" width="18" height="9" />
	<rect class="a" x="243" y="954" width="18" height="9" />
	<rect class="a" x="297" y="954" width="18" height="9" />
	<rect class="a" x="342" y="900" width="18" height="9" />
	<rect class="a" x="423" y="900" width="18" height="9" />
	<rect class="a" x="369" y="900" width="18" height="9" />
	<rect class="a" x="342" y="927" width="18" height="9" />
	<rect class="a" x="342" y="954" width="18" height="9" />
	<rect class="a" x="369" y="954" width="18" height="9" />
	<rect class="a" x="396" y="954" width="18" height="9" />
	<rect class="a" x="396" y="927" width="18" height="9" />
	<rect class="a" x="396" y="900" width="18" height="9" />
	<rect class="a" x="369" y="927" width="18" height="9" />
	<rect class="a" x="423" y="927" width="18" height="9" />
	<rect class="a" x="423" y="954" width="18" height="9" />
	<rect class="a" x="468" y="900" width="18" height="9" />
	<rect class="a" x="495" y="900" width="18" height="9" />
	<rect class="a" x="468" y="927" width="18" height="9" />
	<rect class="a" x="522" y="900" width="18" height="9" />
	<rect class="a" x="549" y="900" width="18" height="9" />
	<rect class="a" x="495" y="927" width="18" height="9" />
	<rect class="a" x="522" y="927" width="18" height="9" />
	<rect class="a" x="549" y="927" width="18" height="9" />
	<rect class="a" x="468" y="954" width="18" height="9" />
	<rect class="a" x="495" y="954" width="18" height="9" />
	<rect class="a" x="522" y="954" width="18" height="9" />
	<rect class="a" x="549" y="954" width="18" height="9" />
	<rect class="a" x="684" y="783" width="27" height="9" />
	<rect class="a" x="702" y="801" width="36" height="9" />
	<rect class="a" x="747" y="801" width="36" height="9" />
	<rect class="a" x="747" y="828" width="36" height="9" />
	<rect class="a" x="702" y="855" width="36" height="9" />
	<rect class="a" x="747" y="855" width="36" height="9" />
	<rect class="a" x="810" y="783" width="27" height="9" />
	<rect class="a" x="936" y="783" width="27" height="9" />
	<rect class="a" x="819" y="801" width="18" height="9" />
	<rect class="a" x="846" y="801" width="18" height="9" />
	<rect class="a" x="819" y="828" width="18" height="9" />
	<rect class="a" x="873" y="801" width="18" height="9" />
	<rect class="a" x="900" y="801" width="18" height="9" />
	<rect class="a" x="846" y="828" width="18" height="9" />
	<rect class="a" x="873" y="828" width="18" height="9" />
	<rect class="a" x="900" y="828" width="18" height="9" />
	<rect class="a" x="819" y="855" width="18" height="9" />
	<rect class="a" x="846" y="855" width="18" height="9" />
	<rect class="a" x="873" y="855" width="18" height="9" />
	<rect class="a" x="900" y="855" width="18" height="9" />
	<rect class="a" x="945" y="801" width="18" height="9" />
	<rect class="a" x="972" y="801" width="18" height="9" />
	<rect class="a" x="945" y="828" width="18" height="9" />
	<rect class="a" x="999" y="801" width="18" height="9" />
	<rect class="a" x="1026" y="801" width="18" height="9" />
	<rect class="a" x="972" y="828" width="18" height="9" />
	<rect class="a" x="999" y="828" width="18" height="9" />
	<rect class="a" x="1026" y="828" width="18" height="9" />
	<rect class="a" x="945" y="855" width="18" height="9" />
	<rect class="a" x="972" y="855" width="18" height="9" />
	<rect class="a" x="999" y="855" width="18" height="9" />
	<rect class="a" x="1026" y="855" width="18" height="9" />
	<rect class="a" x="693" y="558" width="18" height="9" />
	<rect class="a" x="720" y="558" width="18" height="9" />
	<rect class="a" x="693" y="585" width="18" height="9" />
	<rect class="a" x="747" y="558" width="18" height="9" />
	<rect class="a" x="774" y="558" width="18" height="9" />
	<rect class="a" x="720" y="585" width="18" height="9" />
	<rect class="a" x="747" y="585" width="18" height="9" />
	<rect class="a" x="774" y="585" width="18" height="9" />
	<rect class="a" x="693" y="612" width="18" height="9" />
	<rect class="a" x="720" y="612" width="18" height="9" />
	<rect class="a" x="747" y="612" width="18" height="9" />
	<rect class="a" x="486" y="594" width="90" height="9" />
	<rect class="a" x="684" y="504" width="117" height="36" />
	<rect class="a" x="810" y="504" width="243" height="36" />
	<rect class="a" x="1026" y="540" width="27" height="9" />
	<rect class="a" x="684" y="540" width="27" height="9" />
	<rect class="a" x="837" y="540" width="63" height="18" />
	<rect class="a" x="873" y="558" width="45" height="18" />
	<rect class="a" x="819" y="558" width="45" height="18" />
	<rect class="a" x="819" y="594" width="45" height="18" />
	<rect class="a" x="873" y="594" width="45" height="18" />
	<rect class="a" x="180" y="477" width="279" height="36" />
	<rect class="a" x="945" y="558" width="18" height="9" />
	<rect class="a" x="972" y="558" width="18" height="9" />
	<rect class="a" x="999" y="558" width="18" height="9" />
	<rect class="a" x="1026" y="558" width="18" height="9" />
	<rect class="a" x="945" y="579.1346" width="18" height="9" />
	<rect class="a" x="972" y="579.1346" width="18" height="9" />
	<rect class="a" x="999" y="579.1346" width="18" height="9" />
	<rect class="a" x="1026" y="579.1346" width="18" height="9" />
	<rect class="a" x="945" y="597.1346" width="18" height="9" />
	<rect class="a" x="972" y="596.1346" width="18" height="9" />
	<rect class="a" x="999" y="596.1346" width="18" height="9" />
	<rect class="a" x="1161" y="756" width="36" height="45" />
	<rect class="a" x="720" y="981" width="36" height="54" />
	<rect class="a" x="765" y="999" width="36" height="54" />
	<rect class="a" x="819" y="981" width="36" height="54" />
	<rect class="a" x="864" y="990" width="36" height="54" />
	<rect class="a" x="909" y="981" width="36" height="54" />
	<rect class="a" x="144" y="963" width="36" height="54" />
	<rect class="a" x="144" y="891" width="36" height="54" />
	<rect class="a" x="135" y="657" width="36" height="54" />
	<rect class="a" x="135" y="594" width="36" height="54" />
	<rect class="a" x="135" y="531" width="36" height="54" />
	<rect class="a" x="135" y="468" width="36" height="54" />
	<rect class="a" x="1197" y="801" width="72" height="27" />
	<rect class="a" x="1188" y="846" width="81" height="27" />
	<rect class="a" x="1188" y="891" width="81" height="27" />
	<rect class="a" x="1296" y="864" width="36" height="81" />
	<rect class="a" x="1188" y="774" width="9" height="171" />
	<rect class="a" x="1350" y="684" width="9" height="270" />
	<rect class="a" x="516.3847" y="685.6787" width="27" height="19.1723" />
	<rect class="a" x="471.3847" y="685.6787" width="27" height="19.1723" />
	<rect class="a" x="474.3038" y="730.0488" width="27" height="19.1723" />
</svg>
