<svg width="1440px" height="960px" id="no_doors" data-name="no doors" xmlns="http://www.w3.org/2000/svg" viewBox="0 0 1440 960">
	<defs>
		<style>
			.cls-1{fill:#f8edbf;}.cls-2{fill:#d2ccb5;}.cls-3{fill:#e1b673;}.cls-4{fill:#437d41;stroke:#c8c8c8;}.cls-12,.cls-13,.cls-14,.cls-4{stroke-miterlimit:10;}.cls-5{fill:#88a7ba;}.cls-6{fill:#b4aea6;}.cls-7{fill:#a81e22;}.cls-8{fill:#efeeee;}.cls-9{fill:#659bb6;}.cls-10{fill:#138844;}.cls-11{fill:#5084a4;}.cls-12,.cls-13{fill:none;stroke:#557bb7;}.cls-13{stroke-width:1.05px;}.cls-14{fill:#96d9f6;stroke:#fff;}.cls-15{fill:#fff;}.cls-16{fill:#787878;}.cls-17{fill:#f7ec46;}
		</style>
	</defs>
	<rect class="cls-1" x="189" y="549" width="225" height="36" />
	<rect class="cls-1" x="450" y="549" width="9" height="36" />
	<rect class="cls-1" x="918" y="558" width="9" height="33" />
	<polygon class="cls-1" points="900 558 810.14 558 810 558 810 591 900 591 900 558" />
	<rect class="cls-2" x="810" y="591" width="90" height="3" />
	<rect class="cls-2" x="918" y="591" width="9" height="3" />
	<rect class="cls-3" x="918" y="549" width="9" height="9" />
	<rect class="cls-3" x="810.14" y="549" width="89.86" height="9" />
	<rect class="cls-1" x="684" y="558" width="90" height="36" />
	<rect class="cls-1" x="792" y="558" width="9" height="36" />
	<rect class="cls-4" x="702.5" y="567.5" width="45" height="18" />
	<rect class="cls-3" x="684" y="549" width="90" height="9" />
	<rect class="cls-3" x="792" y="549" width="9" height="9" />
	<rect class="cls-3" x="715.57" y="634.57" width="179.93" height="8.93" transform="translate(1444.57 -166.5) rotate(90)" />
	<rect class="cls-3" x="841.57" y="634.57" width="179.93" height="8.93" transform="translate(1570.57 -292.5) rotate(90)" />
	<rect class="cls-3" x="954.07" y="648.07" width="206.93" height="8.93" transform="translate(1710.07 -405) rotate(90)" />
	<rect class="cls-5" x="675" y="693" width="378" height="36" />
	<rect class="cls-3" x="684" y="684" width="369" height="9" />
	<rect class="cls-3" x="607.5" y="616.5" width="144" height="9" transform="translate(1300.5 -58.5) rotate(90)" />
	<rect class="cls-4" x="828" y="567" width="45" height="18" />
	<rect class="cls-3" x="981" y="378" width="153" height="9" transform="translate(1440 -675) rotate(90)" />
	<rect class="cls-1" x="936" y="315" width="117" height="36" />
	<rect class="cls-3" x="684" y="306" width="369" height="9" />
	<rect class="cls-2" x="936" y="348" width="117" height="3" />
	<rect class="cls-1" x="810" y="315" width="117" height="36" />
	<rect class="cls-2" x="810" y="348" width="117" height="3" />
	<rect class="cls-1" x="684" y="315" width="117" height="36" />
	<rect class="cls-2" x="684" y="348" width="117" height="3" />
	<rect class="cls-3" x="1062" y="450" width="297" height="9" />
	<rect class="cls-1" x="1053" y="459" width="306" height="36" />
	<rect class="cls-2" x="1053" y="492" width="306" height="3" />
	<rect class="cls-6" x="1206.04" y="603.04" width="296.93" height="9" transform="translate(1962.04 -746.96) rotate(90)" />
	<rect class="cls-6" x="180" y="279" width="279" height="9" />
	<rect class="cls-7" x="450" y="369" width="9" height="18" />
	<rect class="cls-8" x="189" y="288" width="261" height="36" />
	<polygon class="cls-9" points="207 297 207 306 216 315 225 306 225 297 207 297" />
	<polygon class="cls-10" points="234 297 234 306 243 315 252 306 252 297 234 297" />
	<polygon class="cls-9" points="261 297 261 306 270 315 279 306 279 297 261 297" />
	<polygon class="cls-9" points="414 297 414 306 423 315 432 306 432 297 414 297" />
	<polygon class="cls-10" points="387 297 387 306 396 315 405 306 405 297 387 297" />
	<polygon class="cls-9" points="360 297 360 306 369 315 378 306 378 297 360 297" />
	<rect class="cls-3" x="450" y="360" width="126" height="9" />
	<rect class="cls-6" x="450" y="279.07" width="9" height="62.93" />
	<rect class="cls-1" x="459" y="369" width="117" height="36" />
	<rect class="cls-2" x="459" y="402" width="117" height="3" />
	<rect class="cls-11" x="1062" y="468" width="216" height="36" />
	<rect class="cls-9" x="1062" y="468" width="216" height="9" />
	<line class="cls-12" x1="1071" y1="477" x2="1071" y2="504" />
	<line class="cls-12" x1="1269.5" y1="477" x2="1269.5" y2="504" />
	<line class="cls-12" x1="1260.5" y1="477" x2="1260.5" y2="504" />
	<line class="cls-12" x1="1251.5" y1="477" x2="1251.5" y2="504" />
	<line class="cls-12" x1="1242.5" y1="477" x2="1242.5" y2="504" />
	<line class="cls-12" x1="1080.5" y1="477" x2="1080.5" y2="504" />
	<line class="cls-12" x1="1089.5" y1="477" x2="1089.5" y2="504" />
	<line class="cls-12" x1="1232.5" y1="477" x2="1232.5" y2="504" />
	<line class="cls-12" x1="1223.5" y1="477" x2="1223.5" y2="504" />
	<line class="cls-12" x1="1214.5" y1="477" x2="1214.5" y2="504" />
	<line class="cls-12" x1="1205.5" y1="477" x2="1205.5" y2="504" />
	<line class="cls-12" x1="1196.5" y1="477" x2="1196.5" y2="504" />
	<line class="cls-12" x1="1187.5" y1="477" x2="1187.5" y2="504" />
	<line class="cls-12" x1="1178.5" y1="477" x2="1178.5" y2="504" />
	<line class="cls-12" x1="1169.5" y1="477" x2="1169.5" y2="504" />
	<line class="cls-12" x1="1160.5" y1="477" x2="1160.5" y2="504" />
	<line class="cls-12" x1="1151.5" y1="477" x2="1151.5" y2="504" />
	<line class="cls-12" x1="1142.5" y1="477" x2="1142.5" y2="504" />
	<line class="cls-12" x1="1133.5" y1="477" x2="1133.5" y2="504" />
	<line class="cls-12" x1="1124.5" y1="477" x2="1124.5" y2="504" />
	<line class="cls-12" x1="1115.5" y1="477" x2="1115.5" y2="504" />
	<line class="cls-12" x1="1106.5" y1="477" x2="1106.5" y2="504" />
	<line class="cls-12" x1="1097.5" y1="477" x2="1097.5" y2="504" />
	<line class="cls-13" x1="1016.44" y1="468" x2="1016.44" y2="495" />
	<rect class="cls-3" x="594.04" y="360.04" width="171" height="8.93" transform="translate(1044.04 -315.04) rotate(90)" />
	<rect class="cls-3" x="733.57" y="373.57" width="143.93" height="8.93" transform="translate(1183.57 -427.5) rotate(90)" />
	<rect class="cls-3" x="859.54" y="373.54" width="143.93" height="9" transform="translate(1309.54 -553.46) rotate(90)" />
	<rect class="cls-3" x="238.57" y="733.57" width="179.93" height="8.93" transform="translate(1066.57 409.5) rotate(90)" />
	<rect class="cls-3" x="364.57" y="733.57" width="179.93" height="8.93" transform="translate(1192.57 283.5) rotate(90)" />
	<rect class="cls-3" x="468.04" y="711.04" width="225" height="8.93" transform="translate(1296.04 134.96) rotate(90)" />
	<rect class="cls-5" x="198" y="792" width="387" height="36" />
	<rect class="cls-3" x="207" y="783" width="369" height="9" />
	<rect class="cls-3" x="130.54" y="715.54" width="143.93" height="9" transform="translate(922.54 517.54) rotate(90)" />
	<rect class="cls-4" x="846" y="324" width="45" height="18" />
	<rect class="cls-4" x="720.5" y="324.5" width="45" height="18" />
	<rect class="cls-5" x="1134" y="756" width="225" height="36" />
	<rect class="cls-6" x="1134" y="747" width="216" height="9" />
	<rect class="cls-3" x="1062" y="567" width="135" height="9" />
	<rect class="cls-3" x="1107" y="657" width="171" height="9" transform="translate(1854 -531) rotate(90)" />
	<rect class="cls-6" x="1125" y="738" width="27" height="9" transform="translate(1881 -396) rotate(90)" />
	<rect class="cls-1" x="1062" y="576" width="126" height="36" />
	<rect class="cls-2" x="1062" y="609" width="126" height="3" />
	<rect class="cls-5" x="126" y="657" width="72" height="36" />
	<rect class="cls-4" x="972.5" y="323.5" width="45" height="18" />
	<rect class="cls-14" x="692.5" y="323.5" width="18" height="18" />
	<path class="cls-15" d="M702.44,330.21c.14-.09.21.73.21.75a2.84,2.84,0,0,1-.2,1c-.16.46.56.65.73.2a2.85,2.85,0,0,0,.06-2.07c-.22-.45-.7-.79-1.18-.49s0,.9.38.65Z" />
	<path class="cls-15" d="M704.68,326.39a3.81,3.81,0,0,1,1.05,3.35c-.09.48.64.68.72.2a4.59,4.59,0,0,0-1.24-4.08.38.38,0,0,0-.53.53Z" />
	<rect class="cls-14" x="774.5" y="324.5" width="18" height="18" />
	<path class="cls-15" d="M784.44,331.21c.14-.09.21.73.21.75a2.84,2.84,0,0,1-.2,1c-.16.46.56.65.73.2a2.85,2.85,0,0,0,.06-2.07c-.22-.45-.7-.79-1.18-.49s0,.9.38.65Z" />
	<path class="cls-15" d="M786.68,327.39a3.81,3.81,0,0,1,1.05,3.35c-.09.48.64.68.72.2a4.59,4.59,0,0,0-1.24-4.08.38.38,0,0,0-.53.53Z" />
	<rect class="cls-14" x="819.5" y="322.5" width="18" height="18" />
	<path class="cls-15" d="M829.44,329.21c.14-.09.21.73.21.75a2.84,2.84,0,0,1-.2,1c-.16.46.56.65.73.2a2.85,2.85,0,0,0,.06-2.07c-.22-.45-.7-.79-1.18-.49s0,.9.38.65Z" />
	<path class="cls-15" d="M831.68,325.39a3.81,3.81,0,0,1,1.05,3.35c-.09.48.64.68.72.2a4.59,4.59,0,0,0-1.24-4.08.38.38,0,0,0-.53.53Z" />
	<rect class="cls-14" x="901.5" y="323.5" width="18" height="18" />
	<path class="cls-15" d="M911.44,330.21c.14-.09.21.73.21.75a2.84,2.84,0,0,1-.2,1c-.16.46.56.65.73.2a2.85,2.85,0,0,0,.06-2.07c-.22-.45-.7-.79-1.18-.49s0,.9.38.65Z" />
	<path class="cls-15" d="M913.68,326.39a3.81,3.81,0,0,1,1.05,3.35c-.09.48.64.68.72.2a4.59,4.59,0,0,0-1.24-4.08.38.38,0,0,0-.53.53Z" />
	<rect class="cls-14" x="944.5" y="324.5" width="18" height="18" />
	<path class="cls-15" d="M954.44,331.21c.14-.09.21.73.21.75a2.84,2.84,0,0,1-.2,1c-.16.46.56.65.73.2a2.85,2.85,0,0,0,.06-2.07c-.22-.45-.7-.79-1.18-.49s0,.9.38.65Z" />
	<path class="cls-15" d="M956.68,327.39a3.81,3.81,0,0,1,1.05,3.35c-.09.48.64.68.72.2a4.59,4.59,0,0,0-1.24-4.08.38.38,0,0,0-.53.53Z" />
	<rect class="cls-14" x="1026.5" y="325.5" width="18" height="18" />
	<path class="cls-15" d="M1036.44,332.21c.14-.09.21.73.21.75a2.84,2.84,0,0,1-.2,1c-.16.46.56.65.73.2a2.85,2.85,0,0,0,.06-2.07c-.22-.45-.7-.79-1.18-.49s0,.9.38.65Z" />
	<path class="cls-15" d="M1038.68,328.39a3.81,3.81,0,0,1,1,3.35c-.09.48.64.68.72.2a4.59,4.59,0,0,0-1.24-4.08.38.38,0,0,0-.53.53Z" />
	<rect class="cls-14" x="585.5" y="297.5" width="18" height="18" />
	<path class="cls-15" d="M595.44,304.21c.14-.09.21.73.21.75a2.84,2.84,0,0,1-.2,1c-.16.46.56.65.73.2a2.85,2.85,0,0,0,.06-2.07c-.22-.45-.7-.79-1.18-.49s0,.9.38.65Z" />
	<path class="cls-15" d="M597.68,300.39a3.81,3.81,0,0,1,1.05,3.35c-.09.48.64.68.72.2a4.59,4.59,0,0,0-1.24-4.08.38.38,0,0,0-.53.53Z" />
	<rect class="cls-14" x="656.5" y="297.5" width="18" height="18" />
	<path class="cls-15" d="M666.44,304.21c.14-.09.21.73.21.75a2.84,2.84,0,0,1-.2,1c-.16.46.56.65.73.2a2.85,2.85,0,0,0,.06-2.07c-.22-.45-.7-.79-1.18-.49s0,.9.38.65Z" />
	<path class="cls-15" d="M668.68,300.39a3.81,3.81,0,0,1,1.05,3.35c-.09.48.64.68.72.2a4.59,4.59,0,0,0-1.24-4.08.38.38,0,0,0-.53.53Z" />
	<rect class="cls-14" x="585.5" y="612.5" width="18" height="18" />
	<path class="cls-15" d="M595.44,619.21c.14-.09.21.73.21.75a2.84,2.84,0,0,1-.2,1c-.16.46.56.65.73.2a2.85,2.85,0,0,0,.06-2.07c-.22-.45-.7-.79-1.18-.49s0,.9.38.65Z" />
	<path class="cls-15" d="M597.68,615.39a3.81,3.81,0,0,1,1.05,3.35c-.09.48.64.68.72.2a4.59,4.59,0,0,0-1.24-4.08.38.38,0,0,0-.53.53Z" />
	<rect class="cls-14" x="656.5" y="612.5" width="18" height="18" />
	<path class="cls-15" d="M666.44,619.21c.14-.09.21.73.21.75a2.84,2.84,0,0,1-.2,1c-.16.46.56.65.73.2a2.85,2.85,0,0,0,.06-2.07c-.22-.45-.7-.79-1.18-.49s0,.9.38.65Z" />
	<path class="cls-15" d="M668.68,615.39a3.81,3.81,0,0,1,1.05,3.35c-.09.48.64.68.72.2a4.59,4.59,0,0,0-1.24-4.08.38.38,0,0,0-.53.53Z" />
	<rect class="cls-11" x="189" y="558" width="216" height="36" />
	<rect class="cls-9" x="189" y="558" width="216" height="9" />
	<line class="cls-12" x1="198" y1="567" x2="198" y2="594" />
	<line class="cls-12" x1="396.5" y1="567" x2="396.5" y2="594" />
	<line class="cls-12" x1="387.5" y1="567" x2="387.5" y2="594" />
	<line class="cls-12" x1="378.5" y1="567" x2="378.5" y2="594" />
	<line class="cls-12" x1="369.5" y1="567" x2="369.5" y2="594" />
	<line class="cls-12" x1="207.5" y1="567" x2="207.5" y2="594" />
	<line class="cls-12" x1="216.5" y1="567" x2="216.5" y2="594" />
	<line class="cls-12" x1="359.5" y1="567" x2="359.5" y2="594" />
	<line class="cls-12" x1="350.5" y1="567" x2="350.5" y2="594" />
	<line class="cls-12" x1="341.5" y1="567" x2="341.5" y2="594" />
	<line class="cls-12" x1="332.5" y1="567" x2="332.5" y2="594" />
	<line class="cls-12" x1="323.5" y1="567" x2="323.5" y2="594" />
	<line class="cls-12" x1="314.5" y1="567" x2="314.5" y2="594" />
	<line class="cls-12" x1="305.5" y1="567" x2="305.5" y2="594" />
	<line class="cls-12" x1="296.5" y1="567" x2="296.5" y2="594" />
	<line class="cls-12" x1="287.5" y1="567" x2="287.5" y2="594" />
	<line class="cls-12" x1="278.5" y1="567" x2="278.5" y2="594" />
	<line class="cls-12" x1="269.5" y1="567" x2="269.5" y2="594" />
	<line class="cls-12" x1="260.5" y1="567" x2="260.5" y2="594" />
	<line class="cls-12" x1="251.5" y1="567" x2="251.5" y2="594" />
	<line class="cls-12" x1="242.5" y1="567" x2="242.5" y2="594" />
	<line class="cls-12" x1="233.5" y1="567" x2="233.5" y2="594" />
	<line class="cls-12" x1="224.5" y1="567" x2="224.5" y2="594" />
	<rect class="cls-6" x="49.5" y="409.5" width="270" height="9" transform="translate(598.5 229.5) rotate(90)" />
	<rect class="cls-3" x="72" y="594" width="117" height="9" transform="translate(729 468) rotate(90)" />
	<rect class="cls-3" x="127" y="540" width="53" height="9" />
	<rect class="cls-3" x="148.5" y="580.5" width="72" height="9" transform="translate(769.5 400.5) rotate(90)" />
	<rect class="cls-3" x="135" y="648" width="63" height="9" />
	<rect class="cls-1" x="135" y="549" width="45" height="36" />
	<rect class="cls-2" x="135" y="582" width="45" height="3" />
	<rect class="cls-3" x="175.5" y="643.5" width="18" height="9" transform="translate(832.5 463.5) rotate(90)" />
	<rect class="cls-16" x="135" y="558" width="45" height="9" />
	<rect class="cls-16" x="135" y="576" width="45" height="9" />
	<rect class="cls-17" x="138" y="571" width="9" height="9" rx="1.97" transform="translate(-25.23 6.84) rotate(-2.53)" />
	<rect class="cls-1" x="459" y="450" width="90" height="36" />
	<rect class="cls-1" x="567" y="450" width="18" height="36" />
	<rect class="cls-3" x="684" y="441" width="90" height="9" />
	<rect class="cls-3" x="792" y="441" width="9" height="9" />
	<rect class="cls-3" x="459.14" y="441" width="89.86" height="9" />
	<rect class="cls-3" x="567" y="441" width="9" height="9" />
	<rect class="cls-1" x="792" y="450" width="9" height="36" />
	<rect class="cls-1" x="675" y="450" width="99" height="36" />
	<rect class="cls-11" x="675" y="459" width="90" height="36" />
	<rect class="cls-9" x="675" y="459" width="90" height="9" />
	<line class="cls-13" x1="685" y1="468" x2="685" y2="495" />
	<line class="cls-13" x1="695.56" y1="468" x2="695.56" y2="495" />
	<line class="cls-13" x1="705.56" y1="468" x2="705.56" y2="495" />
	<line class="cls-13" x1="754.44" y1="468" x2="754.44" y2="495" />
	<line class="cls-13" x1="744.44" y1="468" x2="744.44" y2="495" />
	<line class="cls-13" x1="734.44" y1="468" x2="734.44" y2="495" />
	<line class="cls-13" x1="724.44" y1="468" x2="724.44" y2="495" />
	<line class="cls-13" x1="714.44" y1="468" x2="714.44" y2="495" />
	<rect class="cls-1" x="918" y="450" width="9" height="36" />
	<rect class="cls-1" x="801" y="450" width="99" height="36" />
	<rect class="cls-3" x="810" y="441" width="90" height="9" />
	<rect class="cls-3" x="918" y="441" width="9" height="9" />
	<rect class="cls-2" x="675" y="483" width="99" height="3" />
	<rect class="cls-2" x="792" y="483" width="108" height="3" />
	<rect class="cls-11" x="801" y="459" width="90" height="36" />
	<rect class="cls-9" x="801" y="459" width="90" height="9" />
	<line class="cls-13" x1="811" y1="468" x2="811" y2="495" />
	<line class="cls-13" x1="821.56" y1="468" x2="821.56" y2="495" />
	<line class="cls-13" x1="831.56" y1="468" x2="831.56" y2="495" />
	<line class="cls-13" x1="880.44" y1="468" x2="880.44" y2="495" />
	<line class="cls-13" x1="870.44" y1="468" x2="870.44" y2="495" />
	<line class="cls-13" x1="860.44" y1="468" x2="860.44" y2="495" />
	<line class="cls-13" x1="850.44" y1="468" x2="850.44" y2="495" />
	<line class="cls-13" x1="840.44" y1="468" x2="840.44" y2="495" />
	<rect class="cls-1" x="1044" y="450" width="9" height="36" />
	<rect class="cls-1" x="927" y="450" width="99" height="36" />
	<rect class="cls-2" x="918" y="483" width="108" height="3" />
	<rect class="cls-3" x="936" y="441" width="90" height="9" />
	<rect class="cls-3" x="1044" y="441" width="9" height="9" />
	<rect class="cls-2" x="1044" y="483" width="9" height="3" />
	<rect class="cls-11" x="927" y="459" width="90" height="36" />
	<rect class="cls-9" x="927" y="459" width="90" height="9" />
	<line class="cls-13" x1="937" y1="468" x2="937" y2="495" />
	<line class="cls-13" x1="947.56" y1="468" x2="947.56" y2="495" />
	<line class="cls-13" x1="957.56" y1="468" x2="957.56" y2="495" />
	<line class="cls-13" x1="1006.44" y1="468" x2="1006.44" y2="495" />
	<line class="cls-13" x1="996.44" y1="468" x2="996.44" y2="495" />
	<line class="cls-13" x1="986.44" y1="468" x2="986.44" y2="495" />
	<line class="cls-13" x1="976.44" y1="468" x2="976.44" y2="495" />
	<line class="cls-13" x1="966.44" y1="468" x2="966.44" y2="495" />
	<rect class="cls-2" x="792" y="591" width="9" height="3" />
	<rect class="cls-2" x="684" y="591" width="90" height="3" />
	<rect class="cls-1" x="1044" y="558" width="9" height="33" />
	<polygon class="cls-1" points="1026 558 936.14 558 936 558 936 591 1026 591 1026 558" />
	<rect class="cls-2" x="936" y="591" width="90" height="3" />
	<rect class="cls-2" x="1044" y="591" width="9" height="3" />
	<rect class="cls-3" x="1044" y="549" width="9" height="9" />
	<rect class="cls-3" x="936.14" y="549" width="89.86" height="9" />
	<rect class="cls-4" x="954" y="567" width="45" height="18" />
	<rect class="cls-1" x="315" y="657" width="9" height="33" />
	<polygon class="cls-1" points="297 657 207.14 657 207 657 207 690 297 690 297 657" />
	<rect class="cls-2" x="207" y="690" width="90" height="3" />
	<rect class="cls-2" x="315" y="690" width="9" height="3" />
	<rect class="cls-3" x="315" y="648" width="9" height="9" />
	<rect class="cls-3" x="207.14" y="648" width="89.86" height="9" />
	<rect class="cls-4" x="225" y="666" width="45" height="18" />
	<rect class="cls-1" x="441" y="657" width="9" height="33" />
	<polygon class="cls-1" points="423 657 333.14 657 333 657 333 690 423 690 423 657" />
	<rect class="cls-2" x="333" y="690" width="90" height="3" />
	<rect class="cls-2" x="441" y="690" width="9" height="3" />
	<rect class="cls-3" x="441" y="648" width="9" height="9" />
	<rect class="cls-3" x="333.14" y="648" width="89.86" height="9" />
	<rect class="cls-4" x="351" y="666" width="45" height="18" />
	<rect class="cls-1" x="567" y="657" width="9" height="33" />
	<polygon class="cls-1" points="549 657 459.14 657 459 657 459 690 549 690 549 657" />
	<rect class="cls-2" x="459" y="690" width="90" height="3" />
	<rect class="cls-2" x="567" y="690" width="9" height="3" />
	<rect class="cls-3" x="567" y="648" width="9" height="9" />
	<rect class="cls-3" x="459.14" y="648" width="89.86" height="9" />
	<rect class="cls-4" x="477" y="666" width="45" height="18" />
	<rect class="cls-6" x="189" y="540" width="225" height="9" />
	<rect class="cls-6" x="450" y="540" width="9" height="9" />
	<rect class="cls-2" x="189" y="582" width="225" height="3" />
	<rect class="cls-2" x="450" y="582" width="9" height="3" />
	<rect class="cls-3" x="576.14" y="594" width="35.86" height="9" />
	<rect class="cls-3" x="648" y="594" width="27" height="9" />
	<rect class="cls-5" x="585" y="603" width="27" height="36" />
	<rect class="cls-5" x="648" y="603" width="27" height="36" />
	<rect class="cls-1" x="459" y="288" width="153" height="36" />
	<rect class="cls-1" x="648" y="288" width="27" height="36" />
	<rect class="cls-3" x="648" y="279" width="27" height="9" />
	<rect class="cls-3" x="459" y="279" width="153" height="9" />
	<rect class="cls-3" x="576" y="351" width="9" height="99" />
	<rect class="cls-3" x="576" y="288" width="9" height="45" />
	<rect class="cls-6" x="450" y="423" width="9" height="125.69" />
	<rect class="cls-6" x="450" y="387" width="9" height="18" />
	<rect class="cls-2" x="189" y="321" width="261" height="3" />
	<rect class="cls-2" x="459" y="321" width="117" height="3" />
	<rect class="cls-2" x="585" y="321" width="27" height="3" />
	<rect class="cls-2" x="648" y="321" width="27" height="3" />
	<rect class="cls-5" x="1053" y="738" width="27" height="36" />
	<rect class="cls-5" x="1116" y="738" width="18" height="36" />
	<rect class="cls-6" x="1116" y="729" width="18" height="9" />
	<rect class="cls-6" x="1053" y="729" width="27" height="9" />
</svg>
